# This file uses centimeters as units for non-parametric coordinates.

mtllib accesible_planter_box.mtl
g default
v -321.675572 19.906216 600.992182
v -322.412978 20.443976 600.992182
v -321.675572 20.443976 601.656878
v -226.179743 68.487252 600.992182
v -226.917149 67.949493 600.992182
v -226.917149 68.487252 601.656878
v -322.412978 73.149731 600.992182
v -321.675572 73.687486 600.992182
v -321.675572 73.149731 601.656878
v -226.917149 73.687486 600.992182
v -226.179743 73.149731 600.992182
v -226.917149 73.149731 601.656878
v -322.412978 73.149731 409.186091
v -321.675572 73.149731 408.521396
v -321.675572 73.687486 409.186091
v -226.917149 73.149731 408.521396
v -226.179743 73.149731 409.186091
v -226.917149 73.687486 409.186091
v -322.412978 20.443976 409.186091
v -321.675572 19.906216 409.186091
v -321.675572 20.443976 408.521396
v -226.917149 67.949493 409.186091
v -226.179743 68.487252 409.186091
v -226.917149 68.487252 408.521396
vt 0.376916 -0.000000
vt 0.374140 0.002500
vt 0.376916 0.002500
vt 0.625860 0.002500
vt 0.623084 -0.000000
vt 0.623084 0.002500
vt 0.374140 0.247500
vt 0.376916 0.250860
vt 0.376916 0.247500
vt 0.623084 0.250860
vt 0.625860 0.247500
vt 0.623084 0.247500
vt 0.375000 0.499140
vt 0.376916 0.502500
vt 0.376916 0.499140
vt 0.623084 0.502500
vt 0.625000 0.499140
vt 0.623084 0.499140
vt 0.375000 0.747500
vt 0.376916 0.750860
vt 0.376916 0.747500
vt 0.623084 0.750860
vt 0.625000 0.747500
vt 0.623084 0.747500
vt 0.376916 0.999140
vt 0.376916 0.750860
vt 0.375000 0.750860
vt 0.375000 0.999140
vt 0.376916 0.002500
vt 0.623084 0.002500
vt 0.623084 -0.000000
vt 0.376916 -0.000000
vt 0.374140 0.002500
vt 0.374140 0.247500
vt 0.376916 0.247500
vt 0.376916 0.002500
vt 0.625000 0.999140
vt 0.625000 0.750860
vt 0.623084 0.750860
vt 0.623084 0.999140
vt 0.623084 0.002500
vt 0.623084 0.247500
vt 0.625860 0.247500
vt 0.625860 0.002500
vt 0.375000 0.250860
vt 0.375000 0.499140
vt 0.376916 0.499140
vt 0.376916 0.250860
vt 0.376916 0.250860
vt 0.623084 0.250860
vt 0.623084 0.247500
vt 0.376916 0.247500
vt 0.623084 0.250860
vt 0.623084 0.499140
vt 0.625000 0.499140
vt 0.625000 0.250860
vt 0.375000 0.502500
vt 0.375000 0.747500
vt 0.376916 0.747500
vt 0.376916 0.502500
vt 0.376916 0.502500
vt 0.623084 0.502500
vt 0.623084 0.499140
vt 0.376916 0.499140
vt 0.623084 0.502500
vt 0.623084 0.747500
vt 0.625000 0.747500
vt 0.625000 0.502500
vt 0.376916 0.750860
vt 0.623084 0.750860
vt 0.623084 0.747500
vt 0.376916 0.747500
vt 0.376916 0.002500
vt 0.376916 0.247500
vt 0.623084 0.247500
vt 0.623084 0.002500
vt 0.376916 0.250860
vt 0.376916 0.499140
vt 0.623084 0.499140
vt 0.623084 0.250860
vt 0.376916 0.502500
vt 0.376916 0.747500
vt 0.623084 0.747500
vt 0.623084 0.502500
vt 0.376916 0.750860
vt 0.376916 0.999140
vt 0.623084 0.999140
vt 0.623084 0.750860
vt 0.625860 0.002500
vt 0.625860 0.247500
vt 0.874140 0.247500
vt 0.874140 0.002500
vt 0.125860 0.002500
vt 0.125860 0.247500
vt 0.374140 0.247500
vt 0.374140 0.002500
vn -0.493195 -0.676306 0.547146
vn -0.493195 -0.676306 0.547146
vn -0.493195 -0.676306 0.547146
vn 0.493194 -0.676305 0.547148
vn 0.493194 -0.676305 0.547148
vn 0.493194 -0.676305 0.547148
vn -0.493195 0.676306 0.547146
vn -0.493195 0.676306 0.547146
vn -0.493195 0.676306 0.547146
vn 0.493195 0.676306 0.547146
vn 0.493195 0.676306 0.547146
vn 0.493195 0.676306 0.547146
vn -0.493195 0.676306 -0.547146
vn -0.493195 0.676306 -0.547146
vn -0.493195 0.676306 -0.547146
vn 0.493195 0.676306 -0.547146
vn 0.493195 0.676306 -0.547146
vn 0.493195 0.676306 -0.547146
vn -0.493195 -0.676306 -0.547146
vn -0.493195 -0.676306 -0.547146
vn -0.493195 -0.676306 -0.547146
vn 0.493194 -0.676305 -0.547148
vn 0.493194 -0.676305 -0.547148
vn 0.493194 -0.676305 -0.547148
vn -0.589220 -0.807973 -0.000000
vn -0.589220 -0.807973 -0.000000
vn -0.589220 -0.807973 -0.000000
vn -0.589220 -0.807973 -0.000000
vn -0.589220 -0.807973 -0.000000
vn -0.589220 -0.807973 -0.000000
vn 0.366705 -0.723276 0.585150
vn 0.366705 -0.723276 0.585150
vn 0.366705 -0.723276 0.585150
vn 0.366705 -0.723276 0.585150
vn 0.366705 -0.723276 0.585150
vn 0.366705 -0.723276 0.585150
vn -0.669541 0.000000 0.742775
vn -0.669541 0.000000 0.742775
vn -0.669541 0.000000 0.742775
vn -0.669541 0.000000 0.742775
vn -0.669541 0.000000 0.742775
vn -0.669541 0.000000 0.742775
vn 0.589220 -0.807973 0.000000
vn 0.589220 -0.807973 0.000000
vn 0.589220 -0.807973 0.000000
vn 0.589220 -0.807973 0.000000
vn 0.589220 -0.807973 0.000000
vn 0.589220 -0.807973 0.000000
vn 0.669538 0.000000 0.742778
vn 0.669538 0.000000 0.742778
vn 0.669538 0.000000 0.742778
vn 0.669538 0.000000 0.742778
vn 0.669538 0.000000 0.742778
vn 0.669538 0.000000 0.742778
vn -0.589217 0.807975 -0.000000
vn -0.589217 0.807975 -0.000000
vn -0.589217 0.807975 -0.000000
vn -0.589217 0.807975 -0.000000
vn -0.589217 0.807975 -0.000000
vn -0.589217 0.807975 -0.000000
vn -0.000000 0.777436 0.628962
vn -0.000000 0.777436 0.628962
vn -0.000000 0.777436 0.628962
vn -0.000000 0.777436 0.628962
vn -0.000000 0.777436 0.628962
vn -0.000000 0.777436 0.628962
vn 0.589217 0.807975 0.000000
vn 0.589217 0.807975 0.000000
vn 0.589217 0.807975 0.000000
vn 0.589217 0.807975 0.000000
vn 0.589217 0.807975 0.000000
vn 0.589217 0.807975 0.000000
vn -0.669541 0.000000 -0.742775
vn -0.669541 0.000000 -0.742775
vn -0.669541 0.000000 -0.742775
vn -0.669541 0.000000 -0.742775
vn -0.669541 0.000000 -0.742775
vn -0.669541 0.000000 -0.742775
vn 0.000000 0.777436 -0.628962
vn 0.000000 0.777436 -0.628962
vn 0.000000 0.777436 -0.628962
vn 0.000000 0.777436 -0.628962
vn 0.000000 0.777436 -0.628962
vn 0.000000 0.777436 -0.628962
vn 0.669538 0.000000 -0.742778
vn 0.669538 0.000000 -0.742778
vn 0.669538 0.000000 -0.742778
vn 0.669538 0.000000 -0.742778
vn 0.669538 0.000000 -0.742778
vn 0.669538 0.000000 -0.742778
vn 0.366705 -0.723276 -0.585150
vn 0.366705 -0.723276 -0.585150
vn 0.366705 -0.723276 -0.585150
vn 0.366705 -0.723276 -0.585150
vn 0.366705 -0.723276 -0.585150
vn 0.366705 -0.723276 -0.585150
vn -0.000000 0.000000 1.000000
vn -0.000000 0.000000 1.000000
vn -0.000000 0.000000 1.000000
vn -0.000000 0.000000 1.000000
vn -0.000000 0.000000 1.000000
vn -0.000000 0.000000 1.000000
vn -0.000000 1.000000 0.000000
vn -0.000000 1.000000 0.000000
vn -0.000000 1.000000 0.000000
vn -0.000000 1.000000 0.000000
vn -0.000000 1.000000 0.000000
vn -0.000000 1.000000 0.000000
vn 0.000000 0.000000 -1.000000
vn 0.000000 0.000000 -1.000000
vn 0.000000 0.000000 -1.000000
vn 0.000000 0.000000 -1.000000
vn 0.000000 0.000000 -1.000000
vn 0.000000 0.000000 -1.000000
vn 0.452207 -0.891913 0.000000
vn 0.452207 -0.891913 0.000000
vn 0.452207 -0.891913 0.000000
vn 0.452207 -0.891913 0.000000
vn 0.452207 -0.891913 0.000000
vn 0.452207 -0.891913 0.000000
vn 1.000000 0.000000 0.000000
vn 1.000000 0.000000 0.000000
vn 1.000000 0.000000 0.000000
vn 1.000000 0.000000 0.000000
vn 1.000000 0.000000 0.000000
vn 1.000000 0.000000 0.000000
vn -1.000000 0.000000 -0.000000
vn -1.000000 0.000000 -0.000000
vn -1.000000 0.000000 -0.000000
vn -1.000000 0.000000 -0.000000
vn -1.000000 0.000000 -0.000000
vn -1.000000 0.000000 -0.000000
s off
g pCube3 accessible_box group20
usemtl pCube3SG
f 1/1/1 3/3/2 2/2/3
f 4/4/4 6/6/5 5/5/6
f 7/7/7 9/9/8 8/8/9
f 10/10/10 12/12/11 11/11/12
f 13/13/13 15/15/14 14/14/15
f 16/16/16 18/18/17 17/17/18
f 19/19/19 21/21/20 20/20/21
f 22/22/22 24/24/23 23/23/24
f 1/25/25 19/27/26 20/26/27
f 1/25/28 2/28/29 19/27/30
f 3/29/31 5/31/32 6/30/33
f 3/29/34 1/32/35 5/31/36
f 2/33/37 9/35/38 7/34/39
f 2/33/40 3/36/41 9/35/42
f 4/37/43 22/39/44 23/38/45
f 4/37/46 5/40/47 22/39/48
f 6/41/49 11/43/50 12/42/51
f 6/41/52 4/44/53 11/43/54
f 7/45/55 15/47/56 13/46/57
f 7/45/58 8/48/59 15/47/60
f 8/49/61 12/51/62 10/50/63
f 8/49/64 9/52/65 12/51/66
f 10/53/67 17/55/68 18/54/69
f 10/53/70 11/56/71 17/55/72
f 13/57/73 21/59/74 19/58/75
f 13/57/76 14/60/77 21/59/78
f 14/61/79 18/63/80 16/62/81
f 14/61/82 15/64/83 18/63/84
f 16/65/85 23/67/86 24/66/87
f 16/65/88 17/68/89 23/67/90
f 20/69/91 24/71/92 22/70/93
f 20/69/94 21/72/95 24/71/96
f 3/73/97 12/75/98 9/74/99
f 3/73/100 6/76/101 12/75/102
f 8/77/103 18/79/104 15/78/105
f 8/77/106 10/80/107 18/79/108
f 14/81/109 24/83/110 21/82/111
f 14/81/112 16/84/113 24/83/114
f 20/85/115 5/87/116 1/86/117
f 20/85/118 22/88/119 5/87/120
f 4/89/121 17/91/122 11/90/123
f 4/89/124 23/92/125 17/91/126
f 19/93/127 7/95/128 13/94/129
f 19/93/130 2/96/131 7/95/132
g default
v -297.781489 -3.345138 609.022850
v -224.296362 18.521216 609.022850
v -224.296362 -3.345138 609.022850
v -297.781489 18.521216 609.022850
v -324.296359 -3.345138 609.022850
v -224.296362 77.486876 609.022850
v -324.296359 18.521216 609.022850
v -297.781489 77.486876 609.022850
v -224.296362 96.654859 609.022850
v -324.296359 77.486876 609.022850
v -297.781489 96.654859 609.022850
v -324.296359 96.654859 609.022850
v -229.777343 66.136641 583.618529
v -229.777318 66.136645 603.556395
v -295.207073 42.311046 603.556395
v -318.815402 29.088867 603.556395
v -292.731758 42.311046 576.534247
v -318.815402 29.088867 583.618529
v -229.777343 66.136641 509.022852
v -292.731758 42.311046 509.022852
v -318.815402 29.088867 509.022852
v -229.777343 66.136641 434.427151
v -292.731758 42.311046 441.511438
v -229.777318 66.136645 414.489310
v -318.815402 29.088867 434.427151
v -295.207073 42.311046 414.489310
v -318.815402 29.088867 414.489310
v -297.781489 96.654859 409.022855
v -224.296362 77.486876 409.022855
v -224.296362 96.654859 409.022855
v -297.781489 77.486876 409.022855
v -324.296359 96.654859 409.022855
v -224.296362 18.521216 409.022855
v -324.296359 77.486876 409.022855
v -297.781489 18.521216 409.022855
v -224.296362 -3.345138 409.022855
v -324.296359 18.521216 409.022855
v -297.781489 -3.345138 409.022855
v -324.296359 -3.345138 409.022855
v -224.296362 -3.345138 419.112972
v -312.632937 -3.345138 419.112972
v -324.296359 -3.345138 430.113645
v -312.632937 -3.345138 509.022852
v -324.296359 -3.345138 509.022852
v -312.632937 -3.345138 598.932733
v -324.296359 -3.345138 587.932060
v -224.296362 -3.345138 598.932733
v -224.296362 18.521216 419.112972
v -224.296362 67.531183 419.112972
v -224.296362 96.654859 430.113645
v -224.296362 67.531183 509.022852
v -224.296362 96.654859 509.022852
v -224.296362 67.531183 598.932733
v -224.296362 96.654859 587.932060
v -224.296362 18.521216 598.932733
v -324.296359 18.521216 587.932060
v -324.296359 18.521216 509.022852
v -324.296359 77.486876 587.932060
v -324.296359 96.654859 587.932060
v -324.296359 77.486876 509.022852
v -324.296359 96.654859 509.022852
v -324.296359 18.521216 430.113645
v -324.296359 77.486876 430.113645
v -324.296359 96.654859 430.113645
v -312.632807 18.521216 598.932733
v -312.632807 18.521216 509.022852
v -312.632807 18.521216 419.112972
v -318.815402 96.654859 603.556395
v -295.207073 96.654859 603.556395
v -229.777318 96.654859 603.556395
v -318.815402 96.654859 583.618529
v -318.815402 96.654859 509.022852
v -318.815402 96.654859 434.427151
v -318.815402 96.654859 414.489310
v -229.777343 96.654859 583.618529
v -229.777343 96.654859 509.022852
v -229.777343 96.654859 434.427151
v -229.777318 96.654859 414.489310
v -295.207073 96.654859 414.489310
vt 0.209660 0.419863
vt 0.361819 0.465140
vt 0.361819 0.419863
vt 0.209660 0.465140
vt 0.154758 0.419863
vt 0.361819 0.587235
vt 0.154758 0.465140
vt 0.209660 0.587235
vt 0.361819 0.626925
vt 0.154758 0.587235
vt 0.209660 0.626925
vt 0.154758 0.626925
vt 0.937322 0.461147
vt 0.937322 0.419864
vt 0.801842 0.419864
vt 0.752959 0.419864
vt 0.806968 0.475816
vt 0.752959 0.461147
vt 0.937322 0.615606
vt 0.806968 0.615606
vt 0.752959 0.615606
vt 0.937322 0.770065
vt 0.806968 0.755396
vt 0.937322 0.811348
vt 0.752959 0.770065
vt 0.801842 0.811348
vt 0.752959 0.811348
vt 0.056773 0.630674
vt 0.208932 0.670363
vt 0.208932 0.630674
vt 0.056773 0.670363
vt 0.001871 0.630674
vt 0.208932 0.792458
vt 0.001871 0.670363
vt 0.056773 0.792458
vt 0.208932 0.837735
vt 0.001871 0.792458
vt 0.056773 0.837735
vt 0.001871 0.837735
vt 0.056773 0.001992
vt 0.208932 0.022885
vt 0.208932 0.001992
vt 0.026021 0.022885
vt 0.001871 0.001992
vt 0.001871 0.045663
vt 0.026021 0.209053
vt 0.001871 0.209053
vt 0.026021 0.395222
vt 0.001871 0.372444
vt 0.056773 0.416115
vt 0.001871 0.416115
vt 0.208932 0.416115
vt 0.208932 0.395222
vt 0.216216 0.022885
vt 0.261492 0.001992
vt 0.216216 0.001992
vt 0.261492 0.022885
vt 0.383588 0.001992
vt 0.362973 0.022885
vt 0.423277 0.001992
vt 0.423277 0.045663
vt 0.362973 0.209053
vt 0.423277 0.209053
vt 0.362973 0.395222
vt 0.423277 0.372444
vt 0.383588 0.416115
vt 0.423277 0.416115
vt 0.261492 0.416115
vt 0.261492 0.395222
vt 0.216216 0.416115
vt 0.216216 0.395222
vt 0.430377 0.045663
vt 0.475654 0.001992
vt 0.430377 0.001992
vt 0.475654 0.045663
vt 0.430377 0.209053
vt 0.597749 0.001992
vt 0.475654 0.209053
vt 0.430377 0.372444
vt 0.597749 0.045663
vt 0.637439 0.001992
vt 0.637439 0.045663
vt 0.597749 0.209053
vt 0.637439 0.209053
vt 0.475654 0.372444
vt 0.430377 0.416115
vt 0.475654 0.416115
vt 0.597749 0.372444
vt 0.637439 0.372444
vt 0.597749 0.416115
vt 0.637439 0.416115
vt 0.418620 0.792201
vt 0.601531 0.792201
vt 0.601531 0.606032
vt 0.418620 0.606032
vt 0.601531 0.419863
vt 0.418620 0.419863
vt 0.554363 0.998008
vt 0.655844 0.815097
vt 0.554363 0.815097
vt 0.509086 0.815097
vt 0.509086 0.998008
vt 0.764324 0.815097
vt 0.662844 0.815097
vt 0.764324 0.998008
vt 0.809601 0.815097
vt 0.809601 0.998008
vt 0.367581 0.792201
vt 0.412858 0.792201
vt 0.412858 0.606032
vt 0.367581 0.606032
vt 0.412858 0.419863
vt 0.367581 0.419863
vt 0.216216 0.815037
vt 0.356119 0.815037
vt 0.328741 0.766153
vt 0.216216 0.766153
vt 0.279407 0.630674
vt 0.216216 0.630674
vt 0.747196 0.770065
vt 0.607293 0.811348
vt 0.747196 0.811348
vt 0.607293 0.770065
vt 0.747196 0.615606
vt 0.607293 0.615606
vt 0.747196 0.461147
vt 0.607293 0.461147
vt 0.747196 0.419863
vt 0.607293 0.419863
vt 0.921892 0.001992
vt 0.858701 0.001992
vt 0.858701 0.043276
vt 0.921892 0.043276
vt 0.858701 0.197734
vt 0.921892 0.197734
vt 0.858701 0.352193
vt 0.921892 0.352193
vt 0.858701 0.393477
vt 0.921892 0.393477
vt 0.502554 0.931429
vt 0.362651 0.980313
vt 0.502554 0.980313
vt 0.390029 0.931429
vt 0.502554 0.795949
vt 0.439363 0.795949
vt 0.851601 0.372444
vt 0.840252 0.404796
vt 0.851601 0.416115
vt 0.840252 0.363512
vt 0.704772 0.404796
vt 0.851601 0.209053
vt 0.699441 0.416115
vt 0.840252 0.209053
vt 0.655888 0.404796
vt 0.851601 0.045663
vt 0.644539 0.416115
vt 0.840252 0.054595
vt 0.655888 0.363512
vt 0.851601 0.001992
vt 0.644539 0.372444
vt 0.840252 0.013311
vt 0.655888 0.209053
vt 0.699441 0.001992
vt 0.644539 0.209053
vt 0.704772 0.013311
vt 0.655888 0.054595
vt 0.644539 0.001992
vt 0.644539 0.045663
vt 0.655888 0.013311
vn 0.000000 0.000000 1.000000
vn 0.000000 0.000000 1.000000
vn 0.000000 0.000000 1.000000
vn 0.000000 0.000000 1.000000
vn 0.000000 0.000000 1.000000
vn 0.000000 0.000000 1.000000
vn 0.000000 0.000000 1.000000
vn 0.000000 0.000000 1.000000
vn 0.000000 0.000000 1.000000
vn 0.000000 0.000000 1.000000
vn 0.000000 0.000000 1.000000
vn 0.000000 0.000000 1.000000
vn 0.000000 0.000000 1.000000
vn 0.000000 0.000000 1.000000
vn 0.000000 0.000000 1.000000
vn 0.000000 0.000000 1.000000
vn 0.000000 0.000000 1.000000
vn 0.000000 0.000000 1.000000
vn 0.000000 0.000000 1.000000
vn 0.000000 0.000000 1.000000
vn 0.000000 0.000000 1.000000
vn 0.000000 0.000000 1.000000
vn 0.000000 0.000000 1.000000
vn 0.000000 0.000000 1.000000
vn 0.000000 0.000000 1.000000
vn 0.000000 0.000000 1.000000
vn 0.000000 0.000000 1.000000
vn 0.000000 0.000000 1.000000
vn 0.000000 0.000000 1.000000
vn 0.000000 0.000000 1.000000
vn 0.000000 0.000000 1.000000
vn 0.000000 0.000000 1.000000
vn 0.000000 0.000000 1.000000
vn 0.000000 0.000000 1.000000
vn 0.000000 0.000000 1.000000
vn 0.000000 0.000000 1.000000
vn -0.383669 0.922084 -0.050579
vn -0.379489 0.912038 -0.155484
vn -0.379489 0.912038 -0.155484
vn -0.383669 0.922084 -0.050579
vn -0.383598 0.921914 0.054108
vn -0.379489 0.912038 -0.155484
vn -0.383598 0.921914 0.054108
vn -0.383669 0.922084 -0.050579
vn -0.384161 0.923266 0.000000
vn -0.383598 0.921914 0.054108
vn -0.384161 0.923266 0.000000
vn -0.383933 0.922718 0.034435
vn -0.384102 0.923125 -0.017502
vn -0.384161 0.923266 0.000000
vn -0.383669 0.922084 -0.050579
vn -0.384102 0.923125 -0.017502
vn -0.383933 0.922718 0.034435
vn -0.384161 0.923266 0.000000
vn -0.383933 0.922718 0.034435
vn -0.384102 0.923125 -0.017502
vn -0.384161 0.923266 0.000000
vn -0.383933 0.922718 0.034435
vn -0.384161 0.923266 0.000000
vn -0.384102 0.923125 0.017457
vn -0.383994 0.922864 -0.029493
vn -0.384161 0.923266 0.000000
vn -0.384102 0.923125 -0.017502
vn -0.383994 0.922864 -0.029493
vn -0.384102 0.923125 0.017457
vn -0.384161 0.923266 0.000000
vn -0.384102 0.923125 0.017457
vn -0.383994 0.922864 -0.029493
vn -0.384161 0.923266 0.000000
vn -0.383543 0.921780 -0.056718
vn -0.384161 0.923266 0.000000
vn -0.383994 0.922864 -0.029493
vn -0.384102 0.923125 0.017457
vn -0.384161 0.923266 0.000000
vn -0.383717 0.922198 0.048078
vn -0.383543 0.921780 -0.056718
vn -0.383717 0.922198 0.048078
vn -0.384161 0.923266 0.000000
vn -0.383717 0.922198 0.048078
vn -0.383543 0.921780 -0.056718
vn -0.379489 0.912038 0.155484
vn -0.383717 0.922198 0.048078
vn -0.379489 0.912038 0.155484
vn -0.379489 0.912038 0.155484
vn -0.000000 0.000000 -1.000000
vn -0.000000 0.000000 -1.000000
vn -0.000000 0.000000 -1.000000
vn -0.000000 0.000000 -1.000000
vn -0.000000 0.000000 -1.000000
vn -0.000000 0.000000 -1.000000
vn -0.000000 0.000000 -1.000000
vn -0.000000 0.000000 -1.000000
vn -0.000000 0.000000 -1.000000
vn -0.000000 0.000000 -1.000000
vn -0.000000 0.000000 -1.000000
vn -0.000000 0.000000 -1.000000
vn -0.000000 0.000000 -1.000000
vn -0.000000 0.000000 -1.000000
vn -0.000000 0.000000 -1.000000
vn -0.000000 0.000000 -1.000000
vn -0.000000 0.000000 -1.000000
vn -0.000000 0.000000 -1.000000
vn -0.000000 0.000000 -1.000000
vn -0.000000 0.000000 -1.000000
vn -0.000000 0.000000 -1.000000
vn -0.000000 0.000000 -1.000000
vn -0.000000 0.000000 -1.000000
vn -0.000000 0.000000 -1.000000
vn -0.000000 0.000000 -1.000000
vn -0.000000 0.000000 -1.000000
vn -0.000000 0.000000 -1.000000
vn -0.000000 0.000000 -1.000000
vn -0.000000 0.000000 -1.000000
vn -0.000000 0.000000 -1.000000
vn -0.000000 0.000000 -1.000000
vn -0.000000 0.000000 -1.000000
vn -0.000000 0.000000 -1.000000
vn -0.000000 0.000000 -1.000000
vn -0.000000 0.000000 -1.000000
vn -0.000000 0.000000 -1.000000
vn -0.000000 -1.000000 0.000000
vn -0.000000 -1.000000 0.000000
vn -0.000000 -1.000000 0.000000
vn -0.000000 -1.000000 0.000000
vn -0.000000 -1.000000 0.000000
vn -0.000000 -1.000000 0.000000
vn -0.000000 -1.000000 0.000000
vn -0.000000 -1.000000 0.000000
vn -0.000000 -1.000000 0.000000
vn -0.000000 -1.000000 0.000000
vn -0.000000 -1.000000 0.000000
vn -0.000000 -1.000000 0.000000
vn -0.000000 -1.000000 0.000000
vn -0.000000 -1.000000 0.000000
vn -0.000000 -1.000000 0.000000
vn -0.000000 -1.000000 0.000000
vn -0.000000 -1.000000 0.000000
vn -0.000000 -1.000000 0.000000
vn -0.000000 -1.000000 0.000000
vn -0.000000 -1.000000 0.000000
vn -0.000000 -1.000000 0.000000
vn -0.000000 -1.000000 0.000000
vn -0.000000 -1.000000 0.000000
vn -0.000000 -1.000000 0.000000
vn -0.000000 -1.000000 0.000000
vn -0.000000 -1.000000 0.000000
vn -0.000000 -1.000000 0.000000
vn -0.000000 -1.000000 0.000000
vn -0.000000 -1.000000 0.000000
vn -0.000000 -1.000000 0.000000
vn -0.000000 -1.000000 0.000000
vn -0.000000 -1.000000 0.000000
vn -0.000000 -1.000000 0.000000
vn -0.000000 -1.000000 0.000000
vn -0.000000 -1.000000 0.000000
vn -0.000000 -1.000000 0.000000
vn 1.000000 0.000000 0.000000
vn 1.000000 0.000000 0.000000
vn 1.000000 0.000000 0.000000
vn 1.000000 0.000000 0.000000
vn 1.000000 0.000000 0.000000
vn 1.000000 0.000000 0.000000
vn 1.000000 0.000000 0.000000
vn 1.000000 0.000000 0.000000
vn 1.000000 0.000000 0.000000
vn 1.000000 0.000000 0.000000
vn 1.000000 0.000000 0.000000
vn 1.000000 0.000000 0.000000
vn 1.000000 0.000000 0.000000
vn 1.000000 0.000000 0.000000
vn 1.000000 0.000000 0.000000
vn 1.000000 0.000000 0.000000
vn 1.000000 0.000000 0.000000
vn 1.000000 0.000000 0.000000
vn 1.000000 0.000000 0.000000
vn 1.000000 0.000000 0.000000
vn 1.000000 0.000000 0.000000
vn 1.000000 0.000000 0.000000
vn 1.000000 0.000000 0.000000
vn 1.000000 0.000000 0.000000
vn 1.000000 0.000000 0.000000
vn 1.000000 0.000000 0.000000
vn 1.000000 0.000000 0.000000
vn 1.000000 0.000000 0.000000
vn 1.000000 0.000000 0.000000
vn 1.000000 0.000000 0.000000
vn 1.000000 0.000000 0.000000
vn 1.000000 0.000000 0.000000
vn 1.000000 0.000000 0.000000
vn 1.000000 0.000000 0.000000
vn 1.000000 0.000000 0.000000
vn 1.000000 0.000000 0.000000
vn 1.000000 0.000000 0.000000
vn 1.000000 0.000000 0.000000
vn 1.000000 0.000000 0.000000
vn 1.000000 0.000000 0.000000
vn 1.000000 0.000000 0.000000
vn 1.000000 0.000000 0.000000
vn 1.000000 0.000000 0.000000
vn 1.000000 0.000000 0.000000
vn 1.000000 0.000000 0.000000
vn 1.000000 0.000000 0.000000
vn 1.000000 0.000000 0.000000
vn 1.000000 0.000000 0.000000
vn -1.000000 0.000000 0.000000
vn -1.000000 0.000000 0.000000
vn -1.000000 0.000000 0.000000
vn -1.000000 0.000000 0.000000
vn -1.000000 0.000000 0.000000
vn -1.000000 0.000000 0.000000
vn -1.000000 0.000000 0.000000
vn -1.000000 0.000000 0.000000
vn -1.000000 0.000000 0.000000
vn -1.000000 0.000000 0.000000
vn -1.000000 0.000000 0.000000
vn -1.000000 0.000000 0.000000
vn -1.000000 0.000000 0.000000
vn -1.000000 0.000000 0.000000
vn -1.000000 0.000000 0.000000
vn -1.000000 0.000000 0.000000
vn -1.000000 0.000000 0.000000
vn -1.000000 0.000000 0.000000
vn -1.000000 0.000000 0.000000
vn -1.000000 0.000000 0.000000
vn -1.000000 0.000000 0.000000
vn -1.000000 0.000000 0.000000
vn -1.000000 0.000000 0.000000
vn -1.000000 0.000000 0.000000
vn -1.000000 0.000000 0.000000
vn -1.000000 0.000000 0.000000
vn -1.000000 0.000000 0.000000
vn -1.000000 0.000000 0.000000
vn -1.000000 0.000000 0.000000
vn -1.000000 0.000000 0.000000
vn -1.000000 0.000000 0.000000
vn -1.000000 0.000000 0.000000
vn -1.000000 0.000000 0.000000
vn -1.000000 0.000000 0.000000
vn -1.000000 0.000000 0.000000
vn -1.000000 0.000000 0.000000
vn -1.000000 0.000000 0.000000
vn -1.000000 0.000000 0.000000
vn -1.000000 0.000000 0.000000
vn -1.000000 0.000000 0.000000
vn -1.000000 0.000000 0.000000
vn -1.000000 0.000000 0.000000
vn -1.000000 0.000000 0.000000
vn -1.000000 0.000000 0.000000
vn -1.000000 0.000000 0.000000
vn -1.000000 0.000000 0.000000
vn -1.000000 0.000000 0.000000
vn -1.000000 0.000000 0.000000
vn -1.000000 0.000000 0.000000
vn -1.000000 0.000000 0.000000
vn -1.000000 0.000000 0.000000
vn -1.000000 0.000000 0.000000
vn -1.000000 0.000000 0.000000
vn -1.000000 0.000000 0.000000
vn -1.000000 0.000000 0.000000
vn -1.000000 0.000000 0.000000
vn -1.000000 0.000000 0.000000
vn -1.000000 0.000000 0.000000
vn -1.000000 0.000000 0.000000
vn -1.000000 0.000000 0.000000
vn -1.000000 0.000000 0.000000
vn -1.000000 0.000000 0.000000
vn -1.000000 0.000000 0.000000
vn -1.000000 0.000000 0.000000
vn -1.000000 0.000000 0.000000
vn -1.000000 0.000000 0.000000
vn -1.000000 0.000000 0.000000
vn -1.000000 0.000000 0.000000
vn -1.000000 0.000000 0.000000
vn -1.000000 0.000000 0.000000
vn -1.000000 0.000000 0.000000
vn -1.000000 0.000000 0.000000
vn 0.625809 -0.779976 0.000000
vn 0.485145 -0.874434 0.000000
vn 0.485145 -0.874434 0.000000
vn 0.625809 -0.779976 0.000000
vn 0.625809 -0.779976 0.000000
vn 0.485145 -0.874434 0.000000
vn 0.625809 -0.779976 0.000000
vn 0.485145 -0.874434 0.000000
vn 0.485145 -0.874434 0.000000
vn 0.625809 -0.779976 0.000000
vn 0.625809 -0.779976 0.000000
vn 0.485145 -0.874434 0.000000
vn 0.000000 0.000000 1.000000
vn 0.000000 0.000000 1.000000
vn 0.000000 0.000000 1.000000
vn 0.000000 0.000000 1.000000
vn 0.000000 0.000000 1.000000
vn 0.000000 0.000000 1.000000
vn 0.000000 0.000000 1.000000
vn 0.000000 0.000000 1.000000
vn 0.000000 0.000000 1.000000
vn -0.000000 0.000000 -1.000000
vn -0.000000 0.000000 -1.000000
vn -0.000000 0.000000 -1.000000
vn -0.000000 0.000000 -1.000000
vn -0.000000 0.000000 -1.000000
vn -0.000000 0.000000 -1.000000
vn -0.000000 0.000000 -1.000000
vn -0.000000 0.000000 -1.000000
vn -0.000000 0.000000 -1.000000
vn 1.000000 0.000000 0.000000
vn 0.625809 -0.779976 0.000000
vn 0.625809 -0.779976 0.000000
vn 1.000000 0.000000 0.000000
vn 1.000000 0.000000 0.000000
vn 0.625809 -0.779976 0.000000
vn 1.000000 0.000000 0.000000
vn 0.625809 -0.779976 0.000000
vn 0.625809 -0.779976 0.000000
vn 1.000000 0.000000 0.000000
vn 1.000000 0.000000 0.000000
vn 0.625809 -0.779976 0.000000
vn -0.000000 0.000000 -1.000000
vn -0.000000 0.000000 -1.000000
vn -0.000000 0.000000 -1.000000
vn -0.000000 0.000000 -1.000000
vn -0.000000 0.000000 -1.000000
vn -0.000000 0.000000 -1.000000
vn -0.000000 0.000000 -1.000000
vn -0.000000 0.000000 -1.000000
vn -0.000000 0.000000 -1.000000
vn -0.000000 0.000000 -1.000000
vn -0.000000 0.000000 -1.000000
vn -0.000000 0.000000 -1.000000
vn 1.000000 0.000000 0.000000
vn 1.000000 0.000000 0.000000
vn 1.000000 0.000000 0.000000
vn 1.000000 0.000000 0.000000
vn 1.000000 0.000000 0.000000
vn 1.000000 0.000000 0.000000
vn 1.000000 0.000000 0.000000
vn 1.000000 0.000000 0.000000
vn 1.000000 0.000000 0.000000
vn 1.000000 0.000000 0.000000
vn 1.000000 0.000000 0.000000
vn 1.000000 0.000000 0.000000
vn 1.000000 0.000000 0.000000
vn 1.000000 0.000000 0.000000
vn 1.000000 0.000000 0.000000
vn 1.000000 0.000000 0.000000
vn 1.000000 0.000000 0.000000
vn 1.000000 0.000000 0.000000
vn 1.000000 0.000000 0.000000
vn 1.000000 0.000000 0.000000
vn 1.000000 0.000000 0.000000
vn 1.000000 0.000000 0.000000
vn 1.000000 0.000000 0.000000
vn 1.000000 0.000000 0.000000
vn -1.000000 0.000000 0.000000
vn -1.000000 0.000000 0.000000
vn -1.000000 0.000000 0.000000
vn -1.000000 0.000000 0.000000
vn -1.000000 0.000000 0.000000
vn -1.000000 0.000000 0.000000
vn -1.000000 0.000000 0.000000
vn -1.000000 0.000000 0.000000
vn -1.000000 0.000000 0.000000
vn -1.000000 0.000000 0.000000
vn -1.000000 0.000000 0.000000
vn -1.000000 0.000000 0.000000
vn -1.000000 0.000000 0.000000
vn -1.000000 0.000000 0.000000
vn -1.000000 0.000000 0.000000
vn -1.000000 0.000000 0.000000
vn -1.000000 0.000000 0.000000
vn -1.000000 0.000000 0.000000
vn -1.000000 0.000000 0.000000
vn -1.000000 0.000000 0.000000
vn -1.000000 0.000000 0.000000
vn -1.000000 0.000000 0.000000
vn -1.000000 0.000000 0.000000
vn -1.000000 0.000000 0.000000
vn 0.000000 0.000000 1.000000
vn 0.000000 0.000000 1.000000
vn 0.000000 0.000000 1.000000
vn 0.000000 0.000000 1.000000
vn 0.000000 0.000000 1.000000
vn 0.000000 0.000000 1.000000
vn 0.000000 0.000000 1.000000
vn 0.000000 0.000000 1.000000
vn 0.000000 0.000000 1.000000
vn 0.000000 0.000000 1.000000
vn 0.000000 0.000000 1.000000
vn 0.000000 0.000000 1.000000
vn 0.000000 1.000000 0.000000
vn 0.000000 1.000000 0.000000
vn 0.000000 1.000000 0.000000
vn 0.000000 1.000000 0.000000
vn 0.000000 1.000000 0.000000
vn 0.000000 1.000000 0.000000
vn 0.000000 1.000000 0.000000
vn 0.000000 1.000000 0.000000
vn 0.000000 1.000000 0.000000
vn 0.000000 1.000000 0.000000
vn 0.000000 1.000000 0.000000
vn 0.000000 1.000000 0.000000
vn 0.000000 1.000000 0.000000
vn 0.000000 1.000000 0.000000
vn 0.000000 1.000000 0.000000
vn 0.000000 1.000000 0.000000
vn 0.000000 1.000000 0.000000
vn 0.000000 1.000000 0.000000
vn 0.000000 1.000000 0.000000
vn 0.000000 1.000000 0.000000
vn 0.000000 1.000000 0.000000
vn 0.000000 1.000000 0.000000
vn 0.000000 1.000000 0.000000
vn 0.000000 1.000000 0.000000
vn 0.000000 1.000000 0.000000
vn 0.000000 1.000000 0.000000
vn 0.000000 1.000000 0.000000
vn 0.000000 1.000000 0.000000
vn 0.000000 1.000000 0.000000
vn 0.000000 1.000000 0.000000
vn 0.000000 1.000000 0.000000
vn 0.000000 1.000000 0.000000
vn 0.000000 1.000000 0.000000
vn 0.000000 1.000000 0.000000
vn 0.000000 1.000000 0.000000
vn 0.000000 1.000000 0.000000
vn 0.000000 1.000000 0.000000
vn 0.000000 1.000000 0.000000
vn 0.000000 1.000000 0.000000
vn 0.000000 1.000000 0.000000
vn 0.000000 1.000000 0.000000
vn 0.000000 1.000000 0.000000
vn 0.000000 1.000000 0.000000
vn 0.000000 1.000000 0.000000
vn 0.000000 1.000000 0.000000
vn 0.000000 1.000000 0.000000
vn 0.000000 1.000000 0.000000
vn 0.000000 1.000000 0.000000
vn 0.000000 1.000000 0.000000
vn 0.000000 1.000000 0.000000
vn 0.000000 1.000000 0.000000
vn 0.000000 1.000000 0.000000
vn 0.000000 1.000000 0.000000
vn 0.000000 1.000000 0.000000
vn 0.000000 1.000000 0.000000
vn 0.000000 1.000000 0.000000
vn 0.000000 1.000000 0.000000
vn 0.000000 1.000000 0.000000
vn 0.000000 1.000000 0.000000
vn 0.000000 1.000000 0.000000
vn 0.000000 1.000000 0.000000
vn 0.000000 1.000000 0.000000
vn 0.000000 1.000000 0.000000
vn 0.000000 1.000000 0.000000
vn 0.000000 1.000000 0.000000
vn 0.000000 1.000000 0.000000
vn 0.000000 1.000000 0.000000
vn 0.000000 1.000000 0.000000
vn 0.000000 1.000000 0.000000
vn 0.000000 1.000000 0.000000
vn 0.000000 1.000000 0.000000
vn 0.000000 1.000000 0.000000
s off
g accessible_box group20 pCube41
usemtl pCube41SG
f 25/97/133 27/99/134 26/98/135
f 25/97/136 26/98/137 28/100/138
f 29/101/139 25/97/140 28/100/141
f 28/100/142 26/98/143 30/102/144
f 29/101/145 28/100/146 31/103/147
f 28/100/148 30/102/149 32/104/150
f 31/103/151 28/100/152 32/104/153
f 32/104/154 30/102/155 33/105/156
f 31/103/157 32/104/158 34/106/159
f 32/104/160 33/105/161 35/107/162
f 34/106/163 32/104/164 35/107/165
f 34/106/166 35/107/167 36/108/168
f 37/109/169 39/111/170 38/110/171
f 37/109/172 40/112/173 39/111/174
f 40/112/175 37/109/176 41/113/177
f 40/112/178 41/113/179 42/114/180
f 43/115/181 41/113/182 37/109/183
f 43/115/184 42/114/185 41/113/186
f 42/114/187 43/115/188 44/116/189
f 42/114/190 44/116/191 45/117/192
f 46/118/193 44/116/194 43/115/195
f 46/118/196 45/117/197 44/116/198
f 45/117/199 46/118/200 47/119/201
f 48/120/202 47/119/203 46/118/204
f 45/117/205 47/119/206 49/121/207
f 48/120/208 49/121/209 47/119/210
f 49/121/211 48/120/212 50/122/213
f 49/121/214 50/122/215 51/123/216
f 52/124/217 54/126/218 53/125/219
f 52/124/220 53/125/221 55/127/222
f 56/128/223 52/124/224 55/127/225
f 55/127/226 53/125/227 57/129/228
f 56/128/229 55/127/230 58/130/231
f 55/127/232 57/129/233 59/131/234
f 58/130/235 55/127/236 59/131/237
f 59/131/238 57/129/239 60/132/240
f 58/130/241 59/131/242 61/133/243
f 59/131/244 60/132/245 62/134/246
f 61/133/247 59/131/248 62/134/249
f 61/133/250 62/134/251 63/135/252
f 62/136/253 60/138/254 64/137/255
f 62/136/256 64/137/257 65/139/258
f 63/140/259 62/136/260 65/139/261
f 63/140/262 65/139/263 66/141/264
f 66/141/265 65/139/266 67/142/267
f 66/141/268 67/142/269 68/143/270
f 68/143/271 67/142/272 69/144/273
f 68/143/274 69/144/275 70/145/276
f 70/145/277 69/144/278 25/146/279
f 70/145/280 25/146/281 29/147/282
f 69/144/283 27/148/284 25/146/285
f 69/144/286 71/149/287 27/148/288
f 64/150/289 60/152/290 57/151/291
f 64/150/292 57/151/293 72/153/294
f 72/153/295 57/151/296 53/154/297
f 72/153/298 53/154/299 73/155/300
f 73/155/301 53/154/302 54/156/303
f 73/155/304 54/156/305 74/157/306
f 75/158/307 73/155/308 74/157/309
f 75/158/310 74/157/311 76/159/312
f 77/160/313 75/158/314 76/159/315
f 77/160/316 76/159/317 78/161/318
f 30/162/319 77/160/320 78/161/321
f 30/162/322 78/161/323 33/163/324
f 26/164/325 77/160/326 30/162/327
f 26/164/328 79/165/329 77/160/330
f 27/166/331 79/165/332 26/164/333
f 27/166/334 71/167/335 79/165/336
f 70/168/337 29/170/338 31/169/339
f 70/168/340 31/169/341 80/171/342
f 68/172/343 70/168/344 80/171/345
f 80/171/346 31/169/347 34/173/348
f 68/172/349 80/171/350 81/174/351
f 66/175/352 68/172/353 81/174/354
f 80/171/355 34/173/356 82/176/357
f 81/174/358 80/171/359 82/176/360
f 82/176/361 34/173/362 36/177/363
f 82/176/364 36/177/365 83/178/366
f 84/179/367 82/176/368 83/178/369
f 81/174/370 82/176/371 84/179/372
f 84/179/373 83/178/374 85/180/375
f 66/175/376 81/174/377 86/181/378
f 86/181/379 81/174/380 84/179/381
f 63/182/382 66/175/383 86/181/384
f 63/182/385 86/181/386 61/183/387
f 87/184/388 84/179/389 85/180/390
f 86/181/391 84/179/392 87/184/393
f 61/183/394 86/181/395 87/184/396
f 87/184/397 85/180/398 88/185/399
f 61/183/400 87/184/401 58/186/402
f 58/186/403 87/184/404 88/185/405
f 58/186/406 88/185/407 56/187/408
f 89/188/409 75/190/410 77/189/411
f 89/188/412 90/191/413 75/190/414
f 90/191/415 73/192/416 75/190/417
f 90/191/418 91/193/419 73/192/420
f 91/194/421 72/196/422 73/195/423
f 64/197/424 72/196/425 91/194/426
f 64/197/427 91/194/428 65/198/429
f 79/199/430 89/201/431 77/200/432
f 71/202/433 89/201/434 79/199/435
f 71/202/436 69/203/437 89/201/438
f 69/204/439 90/206/440 89/205/441
f 69/204/442 67/207/443 90/206/444
f 67/207/445 91/208/446 90/206/447
f 67/207/448 65/209/449 91/208/450
f 92/210/451 39/212/452 40/211/453
f 92/210/454 93/213/455 39/212/456
f 93/213/457 38/214/458 39/212/459
f 93/213/460 94/215/461 38/214/462
f 95/216/463 92/218/464 40/217/465
f 95/216/466 40/217/467 42/219/468
f 96/220/469 95/216/470 42/219/471
f 96/220/472 42/219/473 45/221/474
f 97/222/475 96/220/476 45/221/477
f 97/222/478 45/221/479 49/223/480
f 98/224/481 97/222/482 49/223/483
f 98/224/484 49/223/485 51/225/486
f 94/226/487 37/228/488 38/227/489
f 94/226/490 99/229/491 37/228/492
f 99/229/493 43/230/494 37/228/495
f 99/229/496 100/231/497 43/230/498
f 100/231/499 46/232/500 43/230/501
f 100/231/502 101/233/503 46/232/504
f 101/233/505 48/234/506 46/232/507
f 101/233/508 102/235/509 48/234/510
f 103/236/511 98/238/512 51/237/513
f 103/236/514 51/237/515 50/239/516
f 102/240/517 103/236/518 50/239/519
f 102/240/520 50/239/521 48/241/522
f 74/242/523 54/244/524 102/243/525
f 74/242/526 102/243/527 101/245/528
f 54/244/529 103/246/530 102/243/531
f 76/247/532 74/242/533 101/245/534
f 54/244/535 52/248/536 103/246/537
f 76/247/538 101/245/539 100/249/540
f 52/248/541 98/250/542 103/246/543
f 78/251/544 76/247/545 100/249/546
f 52/248/547 56/252/548 98/250/549
f 78/251/550 100/249/551 99/253/552
f 56/252/553 97/254/554 98/250/555
f 33/255/556 78/251/557 99/253/558
f 56/252/559 88/256/560 97/254/561
f 33/255/562 99/253/563 94/257/564
f 88/256/565 96/258/566 97/254/567
f 35/259/568 33/255/569 94/257/570
f 88/256/571 85/260/572 96/258/573
f 35/259/574 94/257/575 93/261/576
f 85/260/577 95/262/578 96/258/579
f 36/263/580 35/259/581 93/261/582
f 85/260/583 83/264/584 95/262/585
f 36/263/586 93/261/587 92/265/588
f 83/264/589 92/265/590 95/262/591
f 83/264/592 36/263/593 92/265/594
g default
v -329.696828 -1.573086 609.801125
v -329.696828 21.642248 609.801125
v -322.270563 21.642248 609.801125
v -322.270563 -1.573086 609.801125
v -329.696828 21.642248 409.801129
v -322.270563 21.642248 409.801129
v -329.696828 -1.573086 409.801129
v -322.270563 -1.573086 409.801129
vt 0.375000 0.000000
vt 0.375000 0.250000
vt 0.625000 0.250000
vt 0.625000 0.000000
vt 0.375000 0.250000
vt 0.375000 0.500000
vt 0.625000 0.500000
vt 0.625000 0.250000
vt 0.375000 0.500000
vt 0.375000 0.750000
vt 0.625000 0.750000
vt 0.625000 0.500000
vt 0.375000 0.750000
vt 0.375000 1.000000
vt 0.625000 1.000000
vt 0.625000 0.750000
vt 0.625000 0.000000
vt 0.625000 0.250000
vt 0.875000 0.250000
vt 0.875000 0.000000
vt 0.125000 0.000000
vt 0.125000 0.250000
vt 0.375000 0.250000
vt 0.375000 0.000000
vn 0.000000 0.000000 1.000000
vn 0.000000 0.000000 1.000000
vn 0.000000 0.000000 1.000000
vn 0.000000 0.000000 1.000000
vn 0.000000 0.000000 1.000000
vn 0.000000 0.000000 1.000000
vn -0.000000 1.000000 0.000000
vn -0.000000 1.000000 0.000000
vn -0.000000 1.000000 0.000000
vn -0.000000 1.000000 0.000000
vn -0.000000 1.000000 0.000000
vn -0.000000 1.000000 0.000000
vn -0.000000 0.000000 -1.000000
vn -0.000000 0.000000 -1.000000
vn -0.000000 0.000000 -1.000000
vn -0.000000 0.000000 -1.000000
vn -0.000000 0.000000 -1.000000
vn -0.000000 0.000000 -1.000000
vn 0.000000 -1.000000 0.000000
vn 0.000000 -1.000000 0.000000
vn 0.000000 -1.000000 0.000000
vn 0.000000 -1.000000 0.000000
vn 0.000000 -1.000000 0.000000
vn 0.000000 -1.000000 0.000000
vn 1.000000 0.000000 0.000000
vn 1.000000 0.000000 0.000000
vn 1.000000 0.000000 0.000000
vn 1.000000 0.000000 0.000000
vn 1.000000 0.000000 0.000000
vn 1.000000 0.000000 0.000000
vn -1.000000 0.000000 0.000000
vn -1.000000 0.000000 0.000000
vn -1.000000 0.000000 0.000000
vn -1.000000 0.000000 0.000000
vn -1.000000 0.000000 0.000000
vn -1.000000 0.000000 0.000000
s off
g accessible_box group20 pCube42
usemtl pCube41SG
f 104/266/595 106/268/596 105/267/597
f 104/266/598 107/269/599 106/268/600
f 105/270/601 109/272/602 108/271/603
f 105/270/604 106/273/605 109/272/606
f 108/274/607 111/276/608 110/275/609
f 108/274/610 109/277/611 111/276/612
f 110/278/613 107/280/614 104/279/615
f 110/278/616 111/281/617 107/280/618
f 107/282/619 109/284/620 106/283/621
f 107/282/622 111/285/623 109/284/624
f 110/286/625 105/288/626 108/287/627
f 110/286/628 104/289/629 105/288/630
g default
v -329.696828 22.772326 609.801125
v -329.696828 45.987659 609.801125
v -322.270563 45.987659 609.801125
v -322.270563 22.772326 609.801125
v -329.696828 45.987659 409.801129
v -322.270563 45.987659 409.801129
v -329.696828 22.772326 409.801129
v -322.270563 22.772326 409.801129
vt 0.375000 0.000000
vt 0.375000 0.250000
vt 0.625000 0.250000
vt 0.625000 0.000000
vt 0.375000 0.250000
vt 0.375000 0.500000
vt 0.625000 0.500000
vt 0.625000 0.250000
vt 0.375000 0.500000
vt 0.375000 0.750000
vt 0.625000 0.750000
vt 0.625000 0.500000
vt 0.375000 0.750000
vt 0.375000 1.000000
vt 0.625000 1.000000
vt 0.625000 0.750000
vt 0.625000 0.000000
vt 0.625000 0.250000
vt 0.875000 0.250000
vt 0.875000 0.000000
vt 0.125000 0.000000
vt 0.125000 0.250000
vt 0.375000 0.250000
vt 0.375000 0.000000
vn 0.000000 0.000000 1.000000
vn 0.000000 0.000000 1.000000
vn 0.000000 0.000000 1.000000
vn 0.000000 0.000000 1.000000
vn 0.000000 0.000000 1.000000
vn 0.000000 0.000000 1.000000
vn -0.000000 1.000000 0.000000
vn -0.000000 1.000000 0.000000
vn -0.000000 1.000000 0.000000
vn -0.000000 1.000000 0.000000
vn -0.000000 1.000000 0.000000
vn -0.000000 1.000000 0.000000
vn -0.000000 0.000000 -1.000000
vn -0.000000 0.000000 -1.000000
vn -0.000000 0.000000 -1.000000
vn -0.000000 0.000000 -1.000000
vn -0.000000 0.000000 -1.000000
vn -0.000000 0.000000 -1.000000
vn 0.000000 -1.000000 0.000000
vn 0.000000 -1.000000 0.000000
vn 0.000000 -1.000000 0.000000
vn 0.000000 -1.000000 0.000000
vn 0.000000 -1.000000 0.000000
vn 0.000000 -1.000000 0.000000
vn 1.000000 0.000000 0.000000
vn 1.000000 0.000000 0.000000
vn 1.000000 0.000000 0.000000
vn 1.000000 0.000000 0.000000
vn 1.000000 0.000000 0.000000
vn 1.000000 0.000000 0.000000
vn -1.000000 0.000000 0.000000
vn -1.000000 0.000000 0.000000
vn -1.000000 0.000000 0.000000
vn -1.000000 0.000000 0.000000
vn -1.000000 0.000000 0.000000
vn -1.000000 0.000000 0.000000
s off
g accessible_box group20 pCube43
usemtl pCube41SG
f 112/290/631 114/292/632 113/291/633
f 112/290/634 115/293/635 114/292/636
f 113/294/637 117/296/638 116/295/639
f 113/294/640 114/297/641 117/296/642
f 116/298/643 119/300/644 118/299/645
f 116/298/646 117/301/647 119/300/648
f 118/302/649 115/304/650 112/303/651
f 118/302/652 119/305/653 115/304/654
f 115/306/655 117/308/656 114/307/657
f 115/306/658 119/309/659 117/308/660
f 118/310/661 113/312/662 116/311/663
f 118/310/664 112/313/665 113/312/666
g default
v -329.696828 46.634950 609.801125
v -329.696828 69.850284 609.801125
v -322.270563 69.850284 609.801125
v -322.270563 46.634950 609.801125
v -329.696828 69.850284 409.801129
v -322.270563 69.850284 409.801129
v -329.696828 46.634950 409.801129
v -322.270563 46.634950 409.801129
vt 0.375000 0.000000
vt 0.375000 0.250000
vt 0.625000 0.250000
vt 0.625000 0.000000
vt 0.375000 0.250000
vt 0.375000 0.500000
vt 0.625000 0.500000
vt 0.625000 0.250000
vt 0.375000 0.500000
vt 0.375000 0.750000
vt 0.625000 0.750000
vt 0.625000 0.500000
vt 0.375000 0.750000
vt 0.375000 1.000000
vt 0.625000 1.000000
vt 0.625000 0.750000
vt 0.625000 0.000000
vt 0.625000 0.250000
vt 0.875000 0.250000
vt 0.875000 0.000000
vt 0.125000 0.000000
vt 0.125000 0.250000
vt 0.375000 0.250000
vt 0.375000 0.000000
vn 0.000000 0.000000 1.000000
vn 0.000000 0.000000 1.000000
vn 0.000000 0.000000 1.000000
vn 0.000000 0.000000 1.000000
vn 0.000000 0.000000 1.000000
vn 0.000000 0.000000 1.000000
vn 0.000000 1.000000 0.000000
vn 0.000000 1.000000 0.000000
vn 0.000000 1.000000 0.000000
vn 0.000000 1.000000 0.000000
vn 0.000000 1.000000 0.000000
vn 0.000000 1.000000 0.000000
vn -0.000000 0.000000 -1.000000
vn -0.000000 0.000000 -1.000000
vn -0.000000 0.000000 -1.000000
vn -0.000000 0.000000 -1.000000
vn -0.000000 0.000000 -1.000000
vn -0.000000 0.000000 -1.000000
vn -0.000000 -1.000000 0.000000
vn -0.000000 -1.000000 0.000000
vn -0.000000 -1.000000 0.000000
vn -0.000000 -1.000000 0.000000
vn -0.000000 -1.000000 0.000000
vn -0.000000 -1.000000 0.000000
vn 1.000000 0.000000 0.000000
vn 1.000000 0.000000 0.000000
vn 1.000000 0.000000 0.000000
vn 1.000000 0.000000 0.000000
vn 1.000000 0.000000 0.000000
vn 1.000000 0.000000 0.000000
vn -1.000000 0.000000 0.000000
vn -1.000000 0.000000 0.000000
vn -1.000000 0.000000 0.000000
vn -1.000000 0.000000 0.000000
vn -1.000000 0.000000 0.000000
vn -1.000000 0.000000 0.000000
s off
g accessible_box group20 pCube44
usemtl pCube41SG
f 120/314/667 122/316/668 121/315/669
f 120/314/670 123/317/671 122/316/672
f 121/318/673 125/320/674 124/319/675
f 121/318/676 122/321/677 125/320/678
f 124/322/679 127/324/680 126/323/681
f 124/322/682 125/325/683 127/324/684
f 126/326/685 123/328/686 120/327/687
f 126/326/688 127/329/689 123/328/690
f 123/330/691 125/332/692 122/331/693
f 123/330/694 127/333/695 125/332/696
f 126/334/697 121/336/698 124/335/699
f 126/334/700 120/337/701 121/336/702
g default
v -329.696828 71.096418 609.801125
v -329.696828 94.311751 609.801125
v -322.270563 94.311751 609.801125
v -322.270563 71.096418 609.801125
v -329.696828 94.311751 409.801129
v -322.270563 94.311751 409.801129
v -329.696828 71.096418 409.801129
v -322.270563 71.096418 409.801129
vt 0.375000 0.000000
vt 0.375000 0.250000
vt 0.625000 0.250000
vt 0.625000 0.000000
vt 0.375000 0.250000
vt 0.375000 0.500000
vt 0.625000 0.500000
vt 0.625000 0.250000
vt 0.375000 0.500000
vt 0.375000 0.750000
vt 0.625000 0.750000
vt 0.625000 0.500000
vt 0.375000 0.750000
vt 0.375000 1.000000
vt 0.625000 1.000000
vt 0.625000 0.750000
vt 0.625000 0.000000
vt 0.625000 0.250000
vt 0.875000 0.250000
vt 0.875000 0.000000
vt 0.125000 0.000000
vt 0.125000 0.250000
vt 0.375000 0.250000
vt 0.375000 0.000000
vn 0.000000 0.000000 1.000000
vn 0.000000 0.000000 1.000000
vn 0.000000 0.000000 1.000000
vn 0.000000 0.000000 1.000000
vn 0.000000 0.000000 1.000000
vn 0.000000 0.000000 1.000000
vn 0.000000 1.000000 0.000000
vn 0.000000 1.000000 0.000000
vn 0.000000 1.000000 0.000000
vn 0.000000 1.000000 0.000000
vn 0.000000 1.000000 0.000000
vn 0.000000 1.000000 0.000000
vn -0.000000 0.000000 -1.000000
vn -0.000000 0.000000 -1.000000
vn -0.000000 0.000000 -1.000000
vn -0.000000 0.000000 -1.000000
vn -0.000000 0.000000 -1.000000
vn -0.000000 0.000000 -1.000000
vn 0.000000 -1.000000 0.000000
vn 0.000000 -1.000000 0.000000
vn 0.000000 -1.000000 0.000000
vn 0.000000 -1.000000 0.000000
vn 0.000000 -1.000000 0.000000
vn 0.000000 -1.000000 0.000000
vn 1.000000 0.000000 0.000000
vn 1.000000 0.000000 0.000000
vn 1.000000 0.000000 0.000000
vn 1.000000 0.000000 0.000000
vn 1.000000 0.000000 0.000000
vn 1.000000 0.000000 0.000000
vn -1.000000 0.000000 0.000000
vn -1.000000 0.000000 0.000000
vn -1.000000 0.000000 0.000000
vn -1.000000 0.000000 0.000000
vn -1.000000 0.000000 0.000000
vn -1.000000 0.000000 0.000000
s off
g accessible_box group20 pCube45
usemtl pCube41SG
f 128/338/703 130/340/704 129/339/705
f 128/338/706 131/341/707 130/340/708
f 129/342/709 133/344/710 132/343/711
f 129/342/712 130/345/713 133/344/714
f 132/346/715 135/348/716 134/347/717
f 132/346/718 133/349/719 135/348/720
f 134/350/721 131/352/722 128/351/723
f 134/350/724 135/353/725 131/352/726
f 131/354/727 133/356/728 130/355/729
f 131/354/730 135/357/731 133/356/732
f 134/358/733 129/360/734 132/359/735
f 134/358/736 128/361/737 129/360/738
g default
v -224.711547 71.096418 615.978666
v -224.711547 94.311751 615.978666
v -224.711547 94.311751 608.552401
v -224.711547 71.096418 608.552401
v -324.112465 94.311751 615.978666
v -324.112465 94.311751 608.552401
v -324.112465 71.096418 615.978666
v -324.112465 71.096418 608.552401
vt 0.375000 0.000000
vt 0.375000 0.250000
vt 0.625000 0.250000
vt 0.625000 0.000000
vt 0.375000 0.250000
vt 0.375000 0.500000
vt 0.625000 0.500000
vt 0.625000 0.250000
vt 0.375000 0.500000
vt 0.375000 0.750000
vt 0.625000 0.750000
vt 0.625000 0.500000
vt 0.375000 0.750000
vt 0.375000 1.000000
vt 0.625000 1.000000
vt 0.625000 0.750000
vt 0.625000 0.000000
vt 0.625000 0.250000
vt 0.875000 0.250000
vt 0.875000 0.000000
vt 0.125000 0.000000
vt 0.125000 0.250000
vt 0.375000 0.250000
vt 0.375000 0.000000
vn 1.000000 0.000000 0.000000
vn 1.000000 0.000000 0.000000
vn 1.000000 0.000000 0.000000
vn 1.000000 0.000000 0.000000
vn 1.000000 0.000000 0.000000
vn 1.000000 0.000000 0.000000
vn 0.000000 1.000000 0.000000
vn 0.000000 1.000000 0.000000
vn 0.000000 1.000000 0.000000
vn 0.000000 1.000000 0.000000
vn 0.000000 1.000000 0.000000
vn 0.000000 1.000000 0.000000
vn -1.000000 0.000000 0.000000
vn -1.000000 0.000000 0.000000
vn -1.000000 0.000000 0.000000
vn -1.000000 0.000000 0.000000
vn -1.000000 0.000000 0.000000
vn -1.000000 0.000000 0.000000
vn -0.000000 -1.000000 0.000000
vn -0.000000 -1.000000 0.000000
vn -0.000000 -1.000000 0.000000
vn -0.000000 -1.000000 0.000000
vn -0.000000 -1.000000 0.000000
vn -0.000000 -1.000000 0.000000
vn -0.000000 0.000000 -1.000000
vn -0.000000 0.000000 -1.000000
vn -0.000000 0.000000 -1.000000
vn -0.000000 0.000000 -1.000000
vn -0.000000 0.000000 -1.000000
vn -0.000000 0.000000 -1.000000
vn 0.000000 0.000000 1.000000
vn 0.000000 0.000000 1.000000
vn 0.000000 0.000000 1.000000
vn 0.000000 0.000000 1.000000
vn 0.000000 0.000000 1.000000
vn 0.000000 0.000000 1.000000
s off
g accessible_box group20 pCube46
usemtl pCube41SG
f 136/362/739 138/364/740 137/363/741
f 136/362/742 139/365/743 138/364/744
f 137/366/745 141/368/746 140/367/747
f 137/366/748 138/369/749 141/368/750
f 140/370/751 143/372/752 142/371/753
f 140/370/754 141/373/755 143/372/756
f 142/374/757 139/376/758 136/375/759
f 142/374/760 143/377/761 139/376/762
f 139/378/763 141/380/764 138/379/765
f 139/378/766 143/381/767 141/380/768
f 142/382/769 137/384/770 140/383/771
f 142/382/772 136/385/773 137/384/774
g default
v -224.711547 46.628916 615.978666
v -224.711547 69.844249 615.978666
v -224.711547 69.844249 608.552401
v -224.711547 46.628916 608.552401
v -324.112465 69.844249 615.978666
v -324.112465 69.844249 608.552401
v -324.112465 46.628916 615.978666
v -324.112465 46.628916 608.552401
vt 0.375000 0.000000
vt 0.375000 0.250000
vt 0.625000 0.250000
vt 0.625000 0.000000
vt 0.375000 0.250000
vt 0.375000 0.500000
vt 0.625000 0.500000
vt 0.625000 0.250000
vt 0.375000 0.500000
vt 0.375000 0.750000
vt 0.625000 0.750000
vt 0.625000 0.500000
vt 0.375000 0.750000
vt 0.375000 1.000000
vt 0.625000 1.000000
vt 0.625000 0.750000
vt 0.625000 0.000000
vt 0.625000 0.250000
vt 0.875000 0.250000
vt 0.875000 0.000000
vt 0.125000 0.000000
vt 0.125000 0.250000
vt 0.375000 0.250000
vt 0.375000 0.000000
vn 1.000000 0.000000 0.000000
vn 1.000000 0.000000 0.000000
vn 1.000000 0.000000 0.000000
vn 1.000000 0.000000 0.000000
vn 1.000000 0.000000 0.000000
vn 1.000000 0.000000 0.000000
vn 0.000000 1.000000 0.000000
vn 0.000000 1.000000 0.000000
vn 0.000000 1.000000 0.000000
vn 0.000000 1.000000 0.000000
vn 0.000000 1.000000 0.000000
vn 0.000000 1.000000 0.000000
vn -1.000000 0.000000 0.000000
vn -1.000000 0.000000 0.000000
vn -1.000000 0.000000 0.000000
vn -1.000000 0.000000 0.000000
vn -1.000000 0.000000 0.000000
vn -1.000000 0.000000 0.000000
vn -0.000000 -1.000000 0.000000
vn -0.000000 -1.000000 0.000000
vn -0.000000 -1.000000 0.000000
vn -0.000000 -1.000000 0.000000
vn -0.000000 -1.000000 0.000000
vn -0.000000 -1.000000 0.000000
vn -0.000000 0.000000 -1.000000
vn -0.000000 0.000000 -1.000000
vn -0.000000 0.000000 -1.000000
vn -0.000000 0.000000 -1.000000
vn -0.000000 0.000000 -1.000000
vn -0.000000 0.000000 -1.000000
vn 0.000000 0.000000 1.000000
vn 0.000000 0.000000 1.000000
vn 0.000000 0.000000 1.000000
vn 0.000000 0.000000 1.000000
vn 0.000000 0.000000 1.000000
vn 0.000000 0.000000 1.000000
s off
g accessible_box group20 pCube47
usemtl pCube41SG
f 144/386/775 146/388/776 145/387/777
f 144/386/778 147/389/779 146/388/780
f 145/390/781 149/392/782 148/391/783
f 145/390/784 146/393/785 149/392/786
f 148/394/787 151/396/788 150/395/789
f 148/394/790 149/397/791 151/396/792
f 150/398/793 147/400/794 144/399/795
f 150/398/796 151/401/797 147/400/798
f 147/402/799 149/404/800 146/403/801
f 147/402/802 151/405/803 149/404/804
f 150/406/805 145/408/806 148/407/807
f 150/406/808 144/409/809 145/408/810
g default
v -224.711547 22.777068 615.978666
v -224.711547 45.992401 615.978666
v -224.711547 45.992401 608.552401
v -224.711547 22.777068 608.552401
v -324.112465 45.992401 615.978666
v -324.112465 45.992401 608.552401
v -324.112465 22.777068 615.978666
v -324.112465 22.777068 608.552401
vt 0.375000 0.000000
vt 0.375000 0.250000
vt 0.625000 0.250000
vt 0.625000 0.000000
vt 0.375000 0.250000
vt 0.375000 0.500000
vt 0.625000 0.500000
vt 0.625000 0.250000
vt 0.375000 0.500000
vt 0.375000 0.750000
vt 0.625000 0.750000
vt 0.625000 0.500000
vt 0.375000 0.750000
vt 0.375000 1.000000
vt 0.625000 1.000000
vt 0.625000 0.750000
vt 0.625000 0.000000
vt 0.625000 0.250000
vt 0.875000 0.250000
vt 0.875000 0.000000
vt 0.125000 0.000000
vt 0.125000 0.250000
vt 0.375000 0.250000
vt 0.375000 0.000000
vn 1.000000 0.000000 0.000000
vn 1.000000 0.000000 0.000000
vn 1.000000 0.000000 0.000000
vn 1.000000 0.000000 0.000000
vn 1.000000 0.000000 0.000000
vn 1.000000 0.000000 0.000000
vn -0.000000 1.000000 0.000000
vn -0.000000 1.000000 0.000000
vn -0.000000 1.000000 0.000000
vn -0.000000 1.000000 0.000000
vn -0.000000 1.000000 0.000000
vn -0.000000 1.000000 0.000000
vn -1.000000 0.000000 0.000000
vn -1.000000 0.000000 0.000000
vn -1.000000 0.000000 0.000000
vn -1.000000 0.000000 0.000000
vn -1.000000 0.000000 0.000000
vn -1.000000 0.000000 0.000000
vn 0.000000 -1.000000 0.000000
vn 0.000000 -1.000000 0.000000
vn 0.000000 -1.000000 0.000000
vn 0.000000 -1.000000 0.000000
vn 0.000000 -1.000000 0.000000
vn 0.000000 -1.000000 0.000000
vn -0.000000 0.000000 -1.000000
vn -0.000000 0.000000 -1.000000
vn -0.000000 0.000000 -1.000000
vn -0.000000 0.000000 -1.000000
vn -0.000000 0.000000 -1.000000
vn -0.000000 0.000000 -1.000000
vn 0.000000 0.000000 1.000000
vn 0.000000 0.000000 1.000000
vn 0.000000 0.000000 1.000000
vn 0.000000 0.000000 1.000000
vn 0.000000 0.000000 1.000000
vn 0.000000 0.000000 1.000000
s off
g accessible_box group20 pCube48
usemtl pCube41SG
f 152/410/811 154/412/812 153/411/813
f 152/410/814 155/413/815 154/412/816
f 153/414/817 157/416/818 156/415/819
f 153/414/820 154/417/821 157/416/822
f 156/418/823 159/420/824 158/419/825
f 156/418/826 157/421/827 159/420/828
f 158/422/829 155/424/830 152/423/831
f 158/422/832 159/425/833 155/424/834
f 155/426/835 157/428/836 154/427/837
f 155/426/838 159/429/839 157/428/840
f 158/430/841 153/432/842 156/431/843
f 158/430/844 152/433/845 153/432/846
g default
v -224.711547 -1.672013 615.978666
v -224.711547 21.543320 615.978666
v -224.711547 21.543320 608.552401
v -224.711547 -1.672013 608.552401
v -324.112465 21.543320 615.978666
v -324.112465 21.543320 608.552401
v -324.112465 -1.672013 615.978666
v -324.112465 -1.672013 608.552401
vt 0.375000 0.000000
vt 0.375000 0.250000
vt 0.625000 0.250000
vt 0.625000 0.000000
vt 0.375000 0.250000
vt 0.375000 0.500000
vt 0.625000 0.500000
vt 0.625000 0.250000
vt 0.375000 0.500000
vt 0.375000 0.750000
vt 0.625000 0.750000
vt 0.625000 0.500000
vt 0.375000 0.750000
vt 0.375000 1.000000
vt 0.625000 1.000000
vt 0.625000 0.750000
vt 0.625000 0.000000
vt 0.625000 0.250000
vt 0.875000 0.250000
vt 0.875000 0.000000
vt 0.125000 0.000000
vt 0.125000 0.250000
vt 0.375000 0.250000
vt 0.375000 0.000000
vn 1.000000 0.000000 0.000000
vn 1.000000 0.000000 0.000000
vn 1.000000 0.000000 0.000000
vn 1.000000 0.000000 0.000000
vn 1.000000 0.000000 0.000000
vn 1.000000 0.000000 0.000000
vn -0.000000 1.000000 -0.000000
vn -0.000000 1.000000 -0.000000
vn -0.000000 1.000000 -0.000000
vn -0.000000 1.000000 -0.000000
vn -0.000000 1.000000 -0.000000
vn -0.000000 1.000000 -0.000000
vn -1.000000 0.000000 -0.000000
vn -1.000000 0.000000 -0.000000
vn -1.000000 0.000000 -0.000000
vn -1.000000 0.000000 -0.000000
vn -1.000000 0.000000 -0.000000
vn -1.000000 0.000000 -0.000000
vn 0.000000 -1.000000 0.000000
vn 0.000000 -1.000000 0.000000
vn 0.000000 -1.000000 0.000000
vn 0.000000 -1.000000 0.000000
vn 0.000000 -1.000000 0.000000
vn 0.000000 -1.000000 0.000000
vn -0.000000 0.000000 -1.000000
vn -0.000000 0.000000 -1.000000
vn -0.000000 0.000000 -1.000000
vn -0.000000 0.000000 -1.000000
vn -0.000000 0.000000 -1.000000
vn -0.000000 0.000000 -1.000000
vn 0.000000 0.000000 1.000000
vn 0.000000 0.000000 1.000000
vn 0.000000 0.000000 1.000000
vn 0.000000 0.000000 1.000000
vn 0.000000 0.000000 1.000000
vn 0.000000 0.000000 1.000000
s off
g accessible_box group20 pCube49
usemtl pCube41SG
f 160/434/847 162/436/848 161/435/849
f 160/434/850 163/437/851 162/436/852
f 161/438/853 165/440/854 164/439/855
f 161/438/856 162/441/857 165/440/858
f 164/442/859 167/444/860 166/443/861
f 164/442/862 165/445/863 167/444/864
f 166/446/865 163/448/866 160/447/867
f 166/446/868 167/449/869 163/448/870
f 163/450/871 165/452/872 162/451/873
f 163/450/874 167/453/875 165/452/876
f 166/454/877 161/456/878 164/455/879
f 166/454/880 160/457/881 161/456/882
g default
v -224.711547 71.096418 410.853815
v -224.711547 94.311751 410.853815
v -224.711547 94.311751 403.427551
v -224.711547 71.096418 403.427551
v -324.112465 94.311751 410.853815
v -324.112465 94.311751 403.427551
v -324.112465 71.096418 410.853815
v -324.112465 71.096418 403.427551
vt 0.375000 0.000000
vt 0.375000 0.250000
vt 0.625000 0.250000
vt 0.625000 0.000000
vt 0.375000 0.250000
vt 0.375000 0.500000
vt 0.625000 0.500000
vt 0.625000 0.250000
vt 0.375000 0.500000
vt 0.375000 0.750000
vt 0.625000 0.750000
vt 0.625000 0.500000
vt 0.375000 0.750000
vt 0.375000 1.000000
vt 0.625000 1.000000
vt 0.625000 0.750000
vt 0.625000 0.000000
vt 0.625000 0.250000
vt 0.875000 0.250000
vt 0.875000 0.000000
vt 0.125000 0.000000
vt 0.125000 0.250000
vt 0.375000 0.250000
vt 0.375000 0.000000
vn 1.000000 0.000000 0.000000
vn 1.000000 0.000000 0.000000
vn 1.000000 0.000000 0.000000
vn 1.000000 0.000000 0.000000
vn 1.000000 0.000000 0.000000
vn 1.000000 0.000000 0.000000
vn 0.000000 1.000000 0.000000
vn 0.000000 1.000000 0.000000
vn 0.000000 1.000000 0.000000
vn 0.000000 1.000000 0.000000
vn 0.000000 1.000000 0.000000
vn 0.000000 1.000000 0.000000
vn -1.000000 0.000000 0.000000
vn -1.000000 0.000000 0.000000
vn -1.000000 0.000000 0.000000
vn -1.000000 0.000000 0.000000
vn -1.000000 0.000000 0.000000
vn -1.000000 0.000000 0.000000
vn -0.000000 -1.000000 0.000000
vn -0.000000 -1.000000 0.000000
vn -0.000000 -1.000000 0.000000
vn -0.000000 -1.000000 0.000000
vn -0.000000 -1.000000 0.000000
vn -0.000000 -1.000000 0.000000
vn 0.000000 0.000000 -1.000000
vn 0.000000 0.000000 -1.000000
vn 0.000000 0.000000 -1.000000
vn 0.000000 0.000000 -1.000000
vn 0.000000 0.000000 -1.000000
vn 0.000000 0.000000 -1.000000
vn 0.000000 0.000000 1.000000
vn 0.000000 0.000000 1.000000
vn 0.000000 0.000000 1.000000
vn 0.000000 0.000000 1.000000
vn 0.000000 0.000000 1.000000
vn 0.000000 0.000000 1.000000
s off
g accessible_box group20 pCube50
usemtl pCube41SG
f 168/458/883 170/460/884 169/459/885
f 168/458/886 171/461/887 170/460/888
f 169/462/889 173/464/890 172/463/891
f 169/462/892 170/465/893 173/464/894
f 172/466/895 175/468/896 174/467/897
f 172/466/898 173/469/899 175/468/900
f 174/470/901 171/472/902 168/471/903
f 174/470/904 175/473/905 171/472/906
f 171/474/907 173/476/908 170/475/909
f 171/474/910 175/477/911 173/476/912
f 174/478/913 169/480/914 172/479/915
f 174/478/916 168/481/917 169/480/918
g default
v -224.711547 46.628916 410.948481
v -224.711547 69.844249 410.948481
v -224.711547 69.844249 403.522216
v -224.711547 46.628916 403.522216
v -324.112465 69.844249 410.948481
v -324.112465 69.844249 403.522216
v -324.112465 46.628916 410.948481
v -324.112465 46.628916 403.522216
vt 0.375000 0.000000
vt 0.375000 0.250000
vt 0.625000 0.250000
vt 0.625000 0.000000
vt 0.375000 0.250000
vt 0.375000 0.500000
vt 0.625000 0.500000
vt 0.625000 0.250000
vt 0.375000 0.500000
vt 0.375000 0.750000
vt 0.625000 0.750000
vt 0.625000 0.500000
vt 0.375000 0.750000
vt 0.375000 1.000000
vt 0.625000 1.000000
vt 0.625000 0.750000
vt 0.625000 0.000000
vt 0.625000 0.250000
vt 0.875000 0.250000
vt 0.875000 0.000000
vt 0.125000 0.000000
vt 0.125000 0.250000
vt 0.375000 0.250000
vt 0.375000 0.000000
vn 1.000000 0.000000 0.000000
vn 1.000000 0.000000 0.000000
vn 1.000000 0.000000 0.000000
vn 1.000000 0.000000 0.000000
vn 1.000000 0.000000 0.000000
vn 1.000000 0.000000 0.000000
vn 0.000000 1.000000 0.000000
vn 0.000000 1.000000 0.000000
vn 0.000000 1.000000 0.000000
vn 0.000000 1.000000 0.000000
vn 0.000000 1.000000 0.000000
vn 0.000000 1.000000 0.000000
vn -1.000000 0.000000 0.000000
vn -1.000000 0.000000 0.000000
vn -1.000000 0.000000 0.000000
vn -1.000000 0.000000 0.000000
vn -1.000000 0.000000 0.000000
vn -1.000000 0.000000 0.000000
vn -0.000000 -1.000000 0.000000
vn -0.000000 -1.000000 0.000000
vn -0.000000 -1.000000 0.000000
vn -0.000000 -1.000000 0.000000
vn -0.000000 -1.000000 0.000000
vn -0.000000 -1.000000 0.000000
vn 0.000000 0.000000 -1.000000
vn 0.000000 0.000000 -1.000000
vn 0.000000 0.000000 -1.000000
vn 0.000000 0.000000 -1.000000
vn 0.000000 0.000000 -1.000000
vn 0.000000 0.000000 -1.000000
vn 0.000000 0.000000 1.000000
vn 0.000000 0.000000 1.000000
vn 0.000000 0.000000 1.000000
vn 0.000000 0.000000 1.000000
vn 0.000000 0.000000 1.000000
vn 0.000000 0.000000 1.000000
s off
g accessible_box group20 pCube51
usemtl pCube41SG
f 176/482/919 178/484/920 177/483/921
f 176/482/922 179/485/923 178/484/924
f 177/486/925 181/488/926 180/487/927
f 177/486/928 178/489/929 181/488/930
f 180/490/931 183/492/932 182/491/933
f 180/490/934 181/493/935 183/492/936
f 182/494/937 179/496/938 176/495/939
f 182/494/940 183/497/941 179/496/942
f 179/498/943 181/500/944 178/499/945
f 179/498/946 183/501/947 181/500/948
f 182/502/949 177/504/950 180/503/951
f 182/502/952 176/505/953 177/504/954
g default
v -224.711547 22.777068 411.023585
v -224.711547 45.992401 411.023585
v -224.711547 45.992401 403.597320
v -224.711547 22.777068 403.597320
v -324.112465 45.992401 411.023585
v -324.112465 45.992401 403.597320
v -324.112465 22.777068 411.023585
v -324.112465 22.777068 403.597320
vt 0.375000 0.000000
vt 0.375000 0.250000
vt 0.625000 0.250000
vt 0.625000 0.000000
vt 0.375000 0.250000
vt 0.375000 0.500000
vt 0.625000 0.500000
vt 0.625000 0.250000
vt 0.375000 0.500000
vt 0.375000 0.750000
vt 0.625000 0.750000
vt 0.625000 0.500000
vt 0.375000 0.750000
vt 0.375000 1.000000
vt 0.625000 1.000000
vt 0.625000 0.750000
vt 0.625000 0.000000
vt 0.625000 0.250000
vt 0.875000 0.250000
vt 0.875000 0.000000
vt 0.125000 0.000000
vt 0.125000 0.250000
vt 0.375000 0.250000
vt 0.375000 0.000000
vn 1.000000 0.000000 -0.000000
vn 1.000000 0.000000 -0.000000
vn 1.000000 0.000000 -0.000000
vn 1.000000 0.000000 -0.000000
vn 1.000000 0.000000 -0.000000
vn 1.000000 0.000000 -0.000000
vn -0.000000 1.000000 0.000000
vn -0.000000 1.000000 0.000000
vn -0.000000 1.000000 0.000000
vn -0.000000 1.000000 0.000000
vn -0.000000 1.000000 0.000000
vn -0.000000 1.000000 0.000000
vn -1.000000 0.000000 0.000000
vn -1.000000 0.000000 0.000000
vn -1.000000 0.000000 0.000000
vn -1.000000 0.000000 0.000000
vn -1.000000 0.000000 0.000000
vn -1.000000 0.000000 0.000000
vn 0.000000 -1.000000 -0.000000
vn 0.000000 -1.000000 -0.000000
vn 0.000000 -1.000000 -0.000000
vn 0.000000 -1.000000 -0.000000
vn 0.000000 -1.000000 -0.000000
vn 0.000000 -1.000000 -0.000000
vn -0.000000 0.000000 -1.000000
vn -0.000000 0.000000 -1.000000
vn -0.000000 0.000000 -1.000000
vn -0.000000 0.000000 -1.000000
vn -0.000000 0.000000 -1.000000
vn -0.000000 0.000000 -1.000000
vn 0.000000 0.000000 1.000000
vn 0.000000 0.000000 1.000000
vn 0.000000 0.000000 1.000000
vn 0.000000 0.000000 1.000000
vn 0.000000 0.000000 1.000000
vn 0.000000 0.000000 1.000000
s off
g accessible_box group20 pCube52
usemtl pCube41SG
f 184/506/955 186/508/956 185/507/957
f 184/506/958 187/509/959 186/508/960
f 185/510/961 189/512/962 188/511/963
f 185/510/964 186/513/965 189/512/966
f 188/514/967 191/516/968 190/515/969
f 188/514/970 189/517/971 191/516/972
f 190/518/973 187/520/974 184/519/975
f 190/518/976 191/521/977 187/520/978
f 187/522/979 189/524/980 186/523/981
f 187/522/982 191/525/983 189/524/984
f 190/526/985 185/528/986 188/527/987
f 190/526/988 184/529/989 185/528/990
g default
v -224.711547 -1.672013 411.396235
v -224.711547 21.543320 411.396235
v -224.711547 21.543320 403.969970
v -224.711547 -1.672013 403.969970
v -324.112465 21.543320 411.396235
v -324.112465 21.543320 403.969970
v -324.112465 -1.672013 411.396235
v -324.112465 -1.672013 403.969970
vt 0.375000 0.000000
vt 0.375000 0.250000
vt 0.625000 0.250000
vt 0.625000 0.000000
vt 0.375000 0.250000
vt 0.375000 0.500000
vt 0.625000 0.500000
vt 0.625000 0.250000
vt 0.375000 0.500000
vt 0.375000 0.750000
vt 0.625000 0.750000
vt 0.625000 0.500000
vt 0.375000 0.750000
vt 0.375000 1.000000
vt 0.625000 1.000000
vt 0.625000 0.750000
vt 0.625000 0.000000
vt 0.625000 0.250000
vt 0.875000 0.250000
vt 0.875000 0.000000
vt 0.125000 0.000000
vt 0.125000 0.250000
vt 0.375000 0.250000
vt 0.375000 0.000000
vn 1.000000 0.000000 0.000000
vn 1.000000 0.000000 0.000000
vn 1.000000 0.000000 0.000000
vn 1.000000 0.000000 0.000000
vn 1.000000 0.000000 0.000000
vn 1.000000 0.000000 0.000000
vn 0.000000 1.000000 0.000000
vn 0.000000 1.000000 0.000000
vn 0.000000 1.000000 0.000000
vn 0.000000 1.000000 0.000000
vn 0.000000 1.000000 0.000000
vn 0.000000 1.000000 0.000000
vn -1.000000 0.000000 0.000000
vn -1.000000 0.000000 0.000000
vn -1.000000 0.000000 0.000000
vn -1.000000 0.000000 0.000000
vn -1.000000 0.000000 0.000000
vn -1.000000 0.000000 0.000000
vn 0.000000 -1.000000 0.000000
vn 0.000000 -1.000000 0.000000
vn 0.000000 -1.000000 0.000000
vn 0.000000 -1.000000 0.000000
vn 0.000000 -1.000000 0.000000
vn 0.000000 -1.000000 0.000000
vn 0.000000 0.000000 -1.000000
vn 0.000000 0.000000 -1.000000
vn 0.000000 0.000000 -1.000000
vn 0.000000 0.000000 -1.000000
vn 0.000000 0.000000 -1.000000
vn 0.000000 0.000000 -1.000000
vn 0.000000 0.000000 1.000000
vn 0.000000 0.000000 1.000000
vn 0.000000 0.000000 1.000000
vn 0.000000 0.000000 1.000000
vn 0.000000 0.000000 1.000000
vn 0.000000 0.000000 1.000000
s off
g accessible_box group20 pCube53
usemtl pCube41SG
f 192/530/991 194/532/992 193/531/993
f 192/530/994 195/533/995 194/532/996
f 193/534/997 197/536/998 196/535/999
f 193/534/1000 194/537/1001 197/536/1002
f 196/538/1003 199/540/1004 198/539/1005
f 196/538/1006 197/541/1007 199/540/1008
f 198/542/1009 195/544/1010 192/543/1011
f 198/542/1012 199/545/1013 195/544/1014
f 195/546/1015 197/548/1016 194/547/1017
f 195/546/1018 199/549/1019 197/548/1020
f 198/550/1021 193/552/1022 196/551/1023
f 198/550/1024 192/553/1025 193/552/1026
g default
v -227.395843 71.096418 609.801125
v -227.395843 94.311751 609.801125
v -219.969578 94.311751 609.801125
v -219.969578 71.096418 609.801125
v -227.395843 94.311751 409.801129
v -219.969578 94.311751 409.801129
v -227.395843 71.096418 409.801129
v -219.969578 71.096418 409.801129
vt 0.375000 0.000000
vt 0.375000 0.250000
vt 0.625000 0.250000
vt 0.625000 0.000000
vt 0.375000 0.250000
vt 0.375000 0.500000
vt 0.625000 0.500000
vt 0.625000 0.250000
vt 0.375000 0.500000
vt 0.375000 0.750000
vt 0.625000 0.750000
vt 0.625000 0.500000
vt 0.375000 0.750000
vt 0.375000 1.000000
vt 0.625000 1.000000
vt 0.625000 0.750000
vt 0.625000 0.000000
vt 0.625000 0.250000
vt 0.875000 0.250000
vt 0.875000 0.000000
vt 0.125000 0.000000
vt 0.125000 0.250000
vt 0.375000 0.250000
vt 0.375000 0.000000
vn -0.000000 0.000000 1.000000
vn -0.000000 0.000000 1.000000
vn -0.000000 0.000000 1.000000
vn -0.000000 0.000000 1.000000
vn -0.000000 0.000000 1.000000
vn -0.000000 0.000000 1.000000
vn 0.000000 1.000000 0.000000
vn 0.000000 1.000000 0.000000
vn 0.000000 1.000000 0.000000
vn 0.000000 1.000000 0.000000
vn 0.000000 1.000000 0.000000
vn 0.000000 1.000000 0.000000
vn 0.000000 0.000000 -1.000000
vn 0.000000 0.000000 -1.000000
vn 0.000000 0.000000 -1.000000
vn 0.000000 0.000000 -1.000000
vn 0.000000 0.000000 -1.000000
vn 0.000000 0.000000 -1.000000
vn 0.000000 -1.000000 0.000000
vn 0.000000 -1.000000 0.000000
vn 0.000000 -1.000000 0.000000
vn 0.000000 -1.000000 0.000000
vn 0.000000 -1.000000 0.000000
vn 0.000000 -1.000000 0.000000
vn 1.000000 0.000000 0.000000
vn 1.000000 0.000000 0.000000
vn 1.000000 0.000000 0.000000
vn 1.000000 0.000000 0.000000
vn 1.000000 0.000000 0.000000
vn 1.000000 0.000000 0.000000
vn -1.000000 0.000000 0.000000
vn -1.000000 0.000000 0.000000
vn -1.000000 0.000000 0.000000
vn -1.000000 0.000000 0.000000
vn -1.000000 0.000000 0.000000
vn -1.000000 0.000000 0.000000
s off
g accessible_box group20 pCube54
usemtl pCube41SG
f 200/554/1027 202/556/1028 201/555/1029
f 200/554/1030 203/557/1031 202/556/1032
f 201/558/1033 205/560/1034 204/559/1035
f 201/558/1036 202/561/1037 205/560/1038
f 204/562/1039 207/564/1040 206/563/1041
f 204/562/1042 205/565/1043 207/564/1044
f 206/566/1045 203/568/1046 200/567/1047
f 206/566/1048 207/569/1049 203/568/1050
f 203/570/1051 205/572/1052 202/571/1053
f 203/570/1054 207/573/1055 205/572/1056
f 206/574/1057 201/576/1058 204/575/1059
f 206/574/1060 200/577/1061 201/576/1062
