# This file uses centimeters as units for non-parametric coordinates.

mtllib plastic_planter_box.mtl
g default
v 349.691534 26.262463 581.300786
v 359.691534 67.131200 581.300786
v 359.691534 26.262463 581.300786
v 349.691534 67.131200 581.300786
v 359.691534 99.999998 581.300786
v 349.691534 99.999998 581.300786
v 346.409747 99.999998 581.300786
v 346.409747 67.131200 581.300786
v 346.409747 26.262463 581.300786
v 399.691533 26.262463 577.236655
v 439.691532 67.131200 577.236655
v 439.691532 26.262463 577.236655
v 399.691533 67.131200 577.236655
v 439.691532 99.999998 577.236655
v 399.691533 99.999998 577.236655
v 359.691534 99.999998 577.236655
v 359.691534 67.131200 577.236655
v 359.691534 26.262463 577.236655
v 349.691534 99.999998 373.172529
v 359.691534 67.131200 373.172529
v 359.691534 99.999998 373.172529
v 349.691534 67.131200 373.172529
v 359.691534 26.262463 373.172529
v 349.691534 26.262463 373.172529
v 346.409747 26.262463 373.172529
v 346.409747 67.131200 373.172529
v 346.409747 99.999998 373.172529
v 399.691533 99.999998 377.236660
v 439.691532 67.131200 377.236660
v 439.691532 99.999998 377.236660
v 399.691533 67.131200 377.236660
v 439.691532 26.262463 377.236660
v 399.691533 26.262463 377.236660
v 359.691534 26.262463 377.236660
v 359.691534 67.131200 377.236660
v 359.691534 99.999998 377.236660
v 449.691527 26.262463 427.236658
v 449.691527 67.131195 387.236650
v 449.691527 26.262463 387.236650
v 449.691527 67.131195 427.236658
v 449.691527 99.999998 387.236650
v 449.691527 26.262463 477.236657
v 449.691527 99.999998 427.236658
v 449.691527 67.131200 477.236657
v 449.691527 99.999998 477.236657
v 449.691527 26.262463 527.236656
v 449.691527 67.131200 527.236656
v 449.691527 99.999998 527.236656
v 449.691527 99.999998 567.236665
v 449.691527 67.131200 567.236665
v 449.691527 26.262463 567.236665
v 452.973319 26.262463 577.236655
v 452.973314 67.131200 567.236665
v 452.973314 26.262463 567.236665
v 452.973319 67.131200 577.236655
v 452.973314 99.999998 567.236665
v 452.973319 99.999998 577.236655
v 452.973319 99.999998 581.300786
v 452.973319 67.131200 581.300786
v 452.973319 26.262463 581.300786
v 349.691539 67.131200 387.236650
v 349.691539 26.262463 427.236658
v 349.691539 26.262463 387.236650
v 349.691539 67.131200 427.236658
v 349.691539 99.999998 387.236650
v 349.691539 99.999998 427.236658
v 349.691539 99.999998 477.236657
v 349.691539 67.131200 477.236657
v 349.691539 26.262463 477.236657
v 349.691539 99.999998 527.236656
v 349.691539 67.131200 527.236656
v 349.691539 99.999998 567.236665
v 349.691539 26.262463 527.236656
v 349.691539 67.131200 567.236665
v 349.691539 26.262463 567.236665
v 346.409752 67.131200 567.236665
v 346.409747 26.262463 577.236655
v 346.409752 26.262463 567.236665
v 346.409747 67.131200 577.236655
v 346.409752 99.999998 567.236665
v 346.409747 99.999998 577.236655
v 439.691532 67.131200 581.300786
v 449.691532 26.262463 581.300786
v 439.691532 26.262463 581.300786
v 449.691532 67.131200 581.300786
v 439.691532 99.999998 581.300786
v 449.691532 99.999998 581.300786
v 439.691532 67.131200 373.172529
v 449.691532 99.999998 373.172529
v 439.691532 99.999998 373.172529
v 449.691532 67.131200 373.172529
v 439.691532 26.262463 373.172529
v 452.973319 99.999998 373.172529
v 449.691532 26.262463 373.172529
v 452.973319 67.131200 373.172529
v 452.973319 26.262463 373.172529
v 346.409747 26.262463 377.236660
v 346.409752 67.131200 387.236650
v 346.409752 26.262463 387.236650
v 346.409747 67.131200 377.236660
v 346.409752 99.999998 387.236650
v 346.409747 99.999998 377.236660
v 439.691532 26.262463 387.236659
v 399.691533 26.262463 387.236659
v 359.691534 26.262463 387.236659
v 439.691532 26.262463 427.236658
v 359.691534 26.262463 427.236658
v 399.691533 26.262463 427.236658
v 439.691532 26.262463 477.236657
v 359.691534 26.262463 477.236657
v 399.691533 26.262463 477.236657
v 439.691532 26.262463 527.236656
v 439.691532 26.262463 567.236655
v 359.691534 26.262463 527.236656
v 399.691533 26.262463 527.236656
v 399.691533 26.262463 567.236655
v 359.691534 26.262463 567.236655
v 452.973314 67.131195 387.236650
v 452.973319 26.262463 377.236660
v 452.973314 26.262463 387.236650
v 452.973319 67.131200 377.236660
v 452.973314 99.999998 387.236650
v 452.973319 99.999998 377.236660
v 399.691533 62.456014 573.872056
v 444.079843 62.456014 530.922989
v 444.079843 62.456014 573.872056
v 399.691533 62.456014 530.922989
v 444.079843 62.456014 477.236657
v 355.303223 62.456014 530.922989
v 355.303223 62.456014 573.872056
v 355.303223 62.456014 477.236657
v 399.691533 62.456014 477.236657
v 444.079843 62.456014 423.550326
v 355.303223 62.456014 423.550326
v 399.691533 62.456014 423.550326
v 444.079843 62.456014 380.601259
v 355.303223 62.456014 380.601259
v 399.691533 62.456014 380.601259
v 359.691534 -0.000004 577.236655
v 359.691534 -0.000004 567.236655
v 349.691539 -0.000004 567.236665
v 349.691534 0.000000 577.236655
v 449.691532 0.000000 577.236655
v 449.691527 -0.000004 567.236665
v 439.691532 -0.000004 567.236655
v 439.691532 -0.000004 577.236655
v 449.691527 -0.000004 387.236650
v 449.691532 0.000000 377.236660
v 439.691532 -0.000004 377.236660
v 439.691532 -0.000004 387.236659
v 359.691534 -0.000004 377.236660
v 349.691534 0.000000 377.236660
v 349.691539 -0.000004 387.236650
v 359.691534 -0.000004 387.236659
v 349.691534 26.262463 577.236655
v 349.691534 99.999998 577.236655
v 355.303223 99.999998 573.872056
v 399.691533 99.999998 573.872056
v 355.303223 99.999998 530.922989
v 355.303223 99.999998 477.236657
v 355.303223 99.999998 423.550326
v 444.079843 99.999998 573.872056
v 355.303223 99.999998 380.601259
v 444.079843 99.999998 530.922989
v 444.079843 99.999998 477.236657
v 444.079843 99.999998 423.550326
v 444.079843 99.999998 380.601259
v 449.691532 99.999998 577.236655
v 399.691533 99.999998 380.601259
v 449.691532 99.999998 377.236660
v 349.691534 99.999998 377.236660
v 349.691534 26.262463 377.236660
v 449.691532 26.262463 577.236655
v 449.691532 26.262463 377.236660
v 349.691534 25.979650 577.236655
v 359.691534 25.979648 577.236655
v 349.691539 25.979648 567.236665
v 359.691534 25.979648 567.236655
v 439.691532 25.979648 577.236655
v 449.691532 25.979650 577.236655
v 439.691532 25.979648 567.236655
v 449.691527 25.979648 567.236665
v 439.691532 25.979648 387.236659
v 449.691527 25.979648 387.236650
v 439.691532 25.979648 377.236660
v 449.691532 25.979650 377.236660
v 359.691534 25.979648 387.236659
v 359.691534 25.979648 377.236660
v 349.691539 25.979648 387.236650
v 349.691534 25.979650 377.236660
vt 0.484166 0.324479
vt 0.531304 0.517126
vt 0.531304 0.324479
vt 0.484166 0.517126
vt 0.531304 0.672064
vt 0.484166 0.672064
vt 0.468696 0.672064
vt 0.468696 0.517126
vt 0.468696 0.324479
vt 0.326208 0.498271
vt 0.518855 0.309719
vt 0.326208 0.309719
vt 0.518855 0.498271
vt 0.673792 0.309719
vt 0.673792 0.498271
vt 0.673792 0.686824
vt 0.518855 0.686824
vt 0.326208 0.686824
vt 0.484166 0.324479
vt 0.531304 0.479416
vt 0.531304 0.324479
vt 0.484166 0.479416
vt 0.531304 0.672064
vt 0.484166 0.672064
vt 0.468696 0.672064
vt 0.468696 0.479416
vt 0.468696 0.324479
vt 0.326208 0.498271
vt 0.481145 0.309719
vt 0.326208 0.309719
vt 0.481145 0.498271
vt 0.673792 0.309719
vt 0.673792 0.498271
vt 0.673792 0.686824
vt 0.481145 0.686824
vt 0.326208 0.686824
vt 0.326208 0.262581
vt 0.518855 0.074028
vt 0.326208 0.074028
vt 0.518855 0.262581
vt 0.673792 0.074028
vt 0.326208 0.498271
vt 0.673792 0.262581
vt 0.518855 0.498271
vt 0.673792 0.498271
vt 0.326208 0.733962
vt 0.518855 0.733962
vt 0.673792 0.733962
vt 0.673792 0.922514
vt 0.518855 0.922514
vt 0.326208 0.922514
vt 0.486010 0.324479
vt 0.533148 0.517126
vt 0.533148 0.324479
vt 0.486010 0.517126
vt 0.533148 0.672064
vt 0.486010 0.672064
vt 0.466852 0.672064
vt 0.466852 0.517126
vt 0.466852 0.324479
vt 0.518855 0.922514
vt 0.326208 0.733962
vt 0.326208 0.922514
vt 0.518855 0.733962
vt 0.673792 0.922514
vt 0.673792 0.733962
vt 0.673792 0.498271
vt 0.518855 0.498271
vt 0.326208 0.498271
vt 0.673792 0.262581
vt 0.518855 0.262581
vt 0.673792 0.074028
vt 0.326208 0.262581
vt 0.518855 0.074028
vt 0.326208 0.074028
vt 0.466852 0.517126
vt 0.513990 0.324479
vt 0.466852 0.324479
vt 0.513990 0.517126
vt 0.466852 0.672064
vt 0.533148 0.324479
vt 0.513990 0.672064
vt 0.533148 0.517126
vt 0.533148 0.672064
vt 0.468696 0.517126
vt 0.515834 0.324479
vt 0.468696 0.324479
vt 0.515834 0.517126
vt 0.468696 0.672064
vt 0.531304 0.324479
vt 0.515834 0.672064
vt 0.531304 0.517126
vt 0.531304 0.672064
vt 0.468696 0.479416
vt 0.515834 0.324479
vt 0.468696 0.324479
vt 0.515834 0.479416
vt 0.468696 0.672064
vt 0.531304 0.324479
vt 0.515834 0.672064
vt 0.531304 0.479416
vt 0.531304 0.672064
vt 0.486010 0.324479
vt 0.533148 0.517126
vt 0.533148 0.324479
vt 0.486010 0.517126
vt 0.533148 0.672064
vt 0.486010 0.672064
vt 0.466852 0.672064
vt 0.466852 0.517126
vt 0.466852 0.324479
vt 0.500000 0.026890
vt 0.688552 0.074028
vt 0.688552 0.026890
vt 0.500000 0.074028
vt 0.311447 0.074028
vt 0.311447 0.026890
vt 0.688552 0.262581
vt 0.735691 0.074028
vt 0.735691 0.262581
vt 0.311447 0.262581
vt 0.264309 0.074028
vt 0.264309 0.262581
vt 0.500000 0.262581
vt 0.688552 0.498271
vt 0.735691 0.498271
vt 0.311447 0.498271
vt 0.264309 0.498271
vt 0.500000 0.498271
vt 0.688552 0.733962
vt 0.735691 0.733962
vt 0.735691 0.922514
vt 0.688552 0.922514
vt 0.311447 0.733962
vt 0.264309 0.733962
vt 0.500000 0.733962
vt 0.500000 0.922514
vt 0.688552 0.969652
vt 0.500000 0.969652
vt 0.311447 0.969652
vt 0.311447 0.922514
vt 0.264309 0.922514
vt 0.466852 0.517126
vt 0.513990 0.324479
vt 0.466852 0.324479
vt 0.513990 0.517126
vt 0.466852 0.672064
vt 0.533148 0.324479
vt 0.513990 0.672064
vt 0.533148 0.517126
vt 0.533148 0.672064
vt 0.500000 0.042750
vt 0.709238 0.245204
vt 0.709238 0.042750
vt 0.500000 0.245204
vt 0.709238 0.498271
vt 0.290762 0.245204
vt 0.290762 0.042750
vt 0.290762 0.498271
vt 0.500000 0.498271
vt 0.709238 0.751338
vt 0.290762 0.751338
vt 0.500000 0.751338
vt 0.709238 0.953792
vt 0.290762 0.953792
vt 0.500000 0.953792
vt 0.523569 0.521840
vt 0.523569 0.474702
vt 0.476431 0.474702
vt 0.476431 0.521840
vt 0.523569 0.521840
vt 0.523569 0.474702
vt 0.476431 0.474702
vt 0.476431 0.521840
vt 0.523569 0.521840
vt 0.523569 0.474702
vt 0.476431 0.474702
vt 0.476431 0.521840
vt 0.523569 0.474702
vt 0.476431 0.474702
vt 0.476431 0.521840
vt 0.523569 0.521840
vt 0.484166 0.512261
vt 0.531304 0.531419
vt 0.531304 0.512261
vt 0.484166 0.531419
vt 0.468696 0.531419
vt 0.468696 0.512261
vt 0.484166 0.465123
vt 0.468696 0.465123
vt 0.509579 0.324479
vt 0.490421 0.324479
vt 0.490421 0.517126
vt 0.509579 0.517126
vt 0.490421 0.672064
vt 0.509579 0.672064
vt 0.311448 0.026890
vt 0.311448 0.007732
vt 0.264310 0.007732
vt 0.264310 0.026890
vt 0.248840 0.026890
vt 0.248840 0.007732
vt 0.248840 0.074028
vt 0.264310 0.074028
vt 0.290762 0.042750
vt 0.500000 0.042750
vt 0.290762 0.245204
vt 0.500000 0.026890
vt 0.264310 0.262581
vt 0.290762 0.498271
vt 0.264310 0.498271
vt 0.290762 0.751338
vt 0.264310 0.733962
vt 0.709238 0.042750
vt 0.290762 0.953792
vt 0.688553 0.026890
vt 0.264310 0.922514
vt 0.735691 0.074028
vt 0.709238 0.245204
vt 0.735691 0.262581
vt 0.709238 0.498271
vt 0.735691 0.498271
vt 0.709238 0.751338
vt 0.735691 0.733962
vt 0.735691 0.922514
vt 0.709238 0.953792
vt 0.735691 0.026890
vt 0.688553 0.007732
vt 0.735691 0.007732
vt 0.751160 0.007732
vt 0.751160 0.026890
vt 0.751160 0.074028
vt 0.688553 0.969653
vt 0.500000 0.953792
vt 0.500000 0.969653
vt 0.311448 0.969653
vt 0.735691 0.969653
vt 0.751160 0.922514
vt 0.751160 0.969653
vt 0.735691 0.988810
vt 0.688553 0.988810
vt 0.751160 0.988810
vt 0.264310 0.969653
vt 0.311448 0.988810
vt 0.264310 0.988810
vt 0.248840 0.988810
vt 0.248840 0.969653
vt 0.248840 0.922514
vt 0.490421 0.672064
vt 0.509579 0.672064
vt 0.509579 0.517126
vt 0.490421 0.517126
vt 0.509579 0.324479
vt 0.490421 0.324479
vt 0.531304 0.484281
vt 0.531304 0.465123
vt 0.484166 0.465123
vt 0.484166 0.484281
vt 0.468696 0.484281
vt 0.468696 0.465123
vt 0.468696 0.531419
vt 0.484166 0.531419
vt 0.490421 0.517126
vt 0.509579 0.324479
vt 0.490421 0.324479
vt 0.509579 0.517126
vt 0.490421 0.672064
vt 0.509579 0.672064
vt 0.468696 0.512261
vt 0.468696 0.531419
vt 0.515834 0.531419
vt 0.515834 0.512261
vt 0.531304 0.512261
vt 0.531304 0.531419
vt 0.531304 0.465123
vt 0.515834 0.465123
vt 0.509579 0.517126
vt 0.490421 0.672064
vt 0.509579 0.672064
vt 0.490421 0.517126
vt 0.509579 0.324479
vt 0.490421 0.324479
vt 0.515834 0.484281
vt 0.468696 0.465123
vt 0.468696 0.484281
vt 0.515834 0.465123
vt 0.531304 0.465123
vt 0.531304 0.484281
vt 0.515834 0.531419
vt 0.531304 0.531419
vt 0.492265 0.672064
vt 0.507735 0.672064
vt 0.507735 0.479416
vt 0.492265 0.479416
vt 0.507735 0.324479
vt 0.492265 0.324479
vt 0.507735 0.479416
vt 0.492265 0.672064
vt 0.507735 0.672064
vt 0.492265 0.479416
vt 0.507735 0.324479
vt 0.492265 0.324479
vt 0.507735 0.517126
vt 0.492265 0.672064
vt 0.507735 0.672064
vt 0.492265 0.517126
vt 0.507735 0.324479
vt 0.492265 0.324479
vt 0.492265 0.517126
vt 0.507735 0.324479
vt 0.492265 0.324479
vt 0.507735 0.517126
vt 0.492265 0.672064
vt 0.507735 0.672064
vt 0.523569 0.560169
vt 0.476431 0.558836
vt 0.476431 0.560169
vt 0.523569 0.558836
vt 0.476431 0.436373
vt 0.523569 0.436373
vt 0.523569 0.560169
vt 0.476431 0.558836
vt 0.476431 0.560169
vt 0.523569 0.558836
vt 0.476431 0.436373
vt 0.523569 0.436373
vt 0.476431 0.436373
vt 0.523569 0.437706
vt 0.523569 0.436373
vt 0.476431 0.437706
vt 0.523569 0.560169
vt 0.476431 0.560169
vt 0.523569 0.560169
vt 0.476431 0.558836
vt 0.476431 0.560169
vt 0.523569 0.558836
vt 0.476431 0.436373
vt 0.523569 0.436373
vt 0.523569 0.560169
vt 0.476431 0.558836
vt 0.476431 0.560169
vt 0.523569 0.558836
vt 0.476431 0.436373
vt 0.523569 0.436373
vt 0.523569 0.560169
vt 0.476431 0.558836
vt 0.476431 0.560169
vt 0.523569 0.558836
vt 0.476431 0.436373
vt 0.523569 0.436373
vt 0.476431 0.436373
vt 0.523569 0.437706
vt 0.523569 0.436373
vt 0.476431 0.437706
vt 0.523569 0.560169
vt 0.476431 0.560169
vt 0.523569 0.560169
vt 0.476431 0.558836
vt 0.476431 0.560169
vt 0.523569 0.558836
vt 0.476431 0.436373
vt 0.523569 0.436373
vt 0.523569 0.560169
vt 0.476431 0.558836
vt 0.476431 0.560169
vt 0.523569 0.558836
vt 0.476431 0.436373
vt 0.523569 0.436373
vt 0.523569 0.560169
vt 0.476431 0.558836
vt 0.476431 0.560169
vt 0.523569 0.558836
vt 0.476431 0.436373
vt 0.523569 0.436373
vt 0.476431 0.436373
vt 0.523569 0.437706
vt 0.523569 0.436373
vt 0.476431 0.437706
vt 0.523569 0.560169
vt 0.476431 0.560169
vt 0.523569 0.560169
vt 0.476431 0.558836
vt 0.476431 0.560169
vt 0.523569 0.558836
vt 0.476431 0.436373
vt 0.523569 0.436373
vt 0.523569 0.560169
vt 0.476431 0.558836
vt 0.476431 0.560169
vt 0.523569 0.558836
vt 0.476431 0.436373
vt 0.523569 0.436373
vt 0.523569 0.560169
vt 0.476431 0.558836
vt 0.476431 0.560169
vt 0.523569 0.558836
vt 0.476431 0.436373
vt 0.523569 0.436373
vt 0.523569 0.560169
vt 0.476431 0.558836
vt 0.476431 0.560169
vt 0.523569 0.558836
vt 0.476431 0.436373
vt 0.523569 0.436373
vt 0.476431 0.436373
vt 0.523569 0.437706
vt 0.523569 0.436373
vt 0.476431 0.437706
vt 0.523569 0.560169
vt 0.476431 0.560169
vt 0.588488 0.751338
vt 0.411512 0.953792
vt 0.588488 0.953792
vt 0.411512 0.751338
vt 0.588488 0.498271
vt 0.411512 0.498271
vt 0.588488 0.245204
vt 0.411512 0.245204
vt 0.588488 0.042750
vt 0.411512 0.042750
vt 0.588488 0.289033
vt 0.411512 0.289033
vt 0.411512 0.498271
vt 0.588488 0.498271
vt 0.411512 0.707509
vt 0.588488 0.707509
vt 0.588488 0.042750
vt 0.411512 0.042750
vt 0.411512 0.245204
vt 0.588488 0.245204
vt 0.411512 0.498271
vt 0.588488 0.498271
vt 0.411512 0.751338
vt 0.588488 0.751338
vt 0.411512 0.953792
vt 0.588488 0.953792
vt 0.411512 0.498271
vt 0.588488 0.289033
vt 0.411512 0.289033
vt 0.588488 0.498271
vt 0.411512 0.707509
vt 0.588488 0.707509
vn 0.000000 0.000000 1.000000
vn 0.000000 0.000000 1.000000
vn 0.000000 0.000000 1.000000
vn 0.000000 0.000000 1.000000
vn 0.000000 0.000000 1.000000
vn 0.000000 0.000000 1.000000
vn 0.000000 0.000000 1.000000
vn 0.000000 0.000000 1.000000
vn 0.000000 0.000000 1.000000
vn 0.000000 0.000000 1.000000
vn 0.000000 0.000000 1.000000
vn 0.000000 0.000000 1.000000
vn 0.000000 0.000000 1.000000
vn 0.000000 0.000000 1.000000
vn 0.000000 0.000000 1.000000
vn 0.000000 0.000000 1.000000
vn 0.000000 0.000000 1.000000
vn 0.000000 0.000000 1.000000
vn 0.000000 0.000000 1.000000
vn 0.000000 0.000000 1.000000
vn 0.000000 0.000000 1.000000
vn 0.000000 0.000000 1.000000
vn 0.000000 0.000000 1.000000
vn 0.000000 0.000000 1.000000
vn 0.000000 0.000000 1.000000
vn 0.000000 0.000000 1.000000
vn 0.000000 0.000000 1.000000
vn 0.000000 0.000000 1.000000
vn 0.000000 0.000000 1.000000
vn 0.000000 0.000000 1.000000
vn 0.000000 0.000000 1.000000
vn 0.000000 0.000000 1.000000
vn 0.000000 0.000000 1.000000
vn 0.000000 0.000000 1.000000
vn 0.000000 0.000000 1.000000
vn 0.000000 0.000000 1.000000
vn 0.000000 0.000000 1.000000
vn 0.000000 0.000000 1.000000
vn 0.000000 0.000000 1.000000
vn 0.000000 0.000000 1.000000
vn 0.000000 0.000000 1.000000
vn 0.000000 0.000000 1.000000
vn 0.000000 0.000000 1.000000
vn 0.000000 0.000000 1.000000
vn 0.000000 0.000000 1.000000
vn 0.000000 0.000000 1.000000
vn 0.000000 0.000000 1.000000
vn 0.000000 0.000000 1.000000
vn 0.000000 0.000000 -1.000000
vn 0.000000 0.000000 -1.000000
vn 0.000000 0.000000 -1.000000
vn 0.000000 0.000000 -1.000000
vn 0.000000 0.000000 -1.000000
vn 0.000000 0.000000 -1.000000
vn 0.000000 0.000000 -1.000000
vn 0.000000 0.000000 -1.000000
vn 0.000000 0.000000 -1.000000
vn 0.000000 0.000000 -1.000000
vn 0.000000 0.000000 -1.000000
vn 0.000000 0.000000 -1.000000
vn 0.000000 0.000000 -1.000000
vn 0.000000 0.000000 -1.000000
vn 0.000000 0.000000 -1.000000
vn 0.000000 0.000000 -1.000000
vn 0.000000 0.000000 -1.000000
vn 0.000000 0.000000 -1.000000
vn 0.000000 0.000000 -1.000000
vn 0.000000 0.000000 -1.000000
vn 0.000000 0.000000 -1.000000
vn 0.000000 0.000000 -1.000000
vn 0.000000 0.000000 -1.000000
vn 0.000000 0.000000 -1.000000
vn 0.000000 0.000000 -1.000000
vn 0.000000 0.000000 -1.000000
vn 0.000000 0.000000 -1.000000
vn 0.000000 0.000000 -1.000000
vn 0.000000 0.000000 -1.000000
vn 0.000000 0.000000 -1.000000
vn 0.000000 0.000000 -1.000000
vn 0.000000 0.000000 -1.000000
vn 0.000000 0.000000 -1.000000
vn 0.000000 0.000000 -1.000000
vn 0.000000 0.000000 -1.000000
vn 0.000000 0.000000 -1.000000
vn 0.000000 0.000000 -1.000000
vn 0.000000 0.000000 -1.000000
vn 0.000000 0.000000 -1.000000
vn 0.000000 0.000000 -1.000000
vn 0.000000 0.000000 -1.000000
vn 0.000000 0.000000 -1.000000
vn 0.000000 0.000000 -1.000000
vn 0.000000 0.000000 -1.000000
vn 0.000000 0.000000 -1.000000
vn 0.000000 0.000000 -1.000000
vn 0.000000 0.000000 -1.000000
vn 0.000000 0.000000 -1.000000
vn 1.000000 0.000000 0.000000
vn 1.000000 0.000000 0.000000
vn 1.000000 0.000000 0.000000
vn 1.000000 0.000000 0.000000
vn 1.000000 0.000000 0.000000
vn 1.000000 0.000000 0.000000
vn 1.000000 0.000000 0.000000
vn 1.000000 0.000000 0.000000
vn 1.000000 0.000000 0.000000
vn 1.000000 0.000000 0.000000
vn 1.000000 0.000000 0.000000
vn 1.000000 0.000000 0.000000
vn 1.000000 0.000000 0.000000
vn 1.000000 0.000000 0.000000
vn 1.000000 0.000000 0.000000
vn 1.000000 0.000000 0.000000
vn 1.000000 0.000000 0.000000
vn 1.000000 0.000000 0.000000
vn 1.000000 0.000000 0.000000
vn 1.000000 0.000000 0.000000
vn 1.000000 0.000000 0.000000
vn 1.000000 0.000000 0.000000
vn 1.000000 0.000000 0.000000
vn 1.000000 0.000000 0.000000
vn 1.000000 0.000000 0.000000
vn 1.000000 0.000000 0.000000
vn 1.000000 0.000000 0.000000
vn 1.000000 0.000000 0.000000
vn 1.000000 0.000000 0.000000
vn 1.000000 0.000000 0.000000
vn 1.000000 0.000000 0.000000
vn 1.000000 0.000000 0.000000
vn 1.000000 0.000000 0.000000
vn 1.000000 0.000000 0.000000
vn 1.000000 0.000000 0.000000
vn 1.000000 0.000000 0.000000
vn 1.000000 0.000000 0.000000
vn 1.000000 0.000000 0.000000
vn 1.000000 0.000000 0.000000
vn 1.000000 0.000000 0.000000
vn 1.000000 0.000000 0.000000
vn 1.000000 0.000000 0.000000
vn 1.000000 0.000000 0.000000
vn 1.000000 0.000000 0.000000
vn 1.000000 0.000000 0.000000
vn 1.000000 0.000000 0.000000
vn 1.000000 0.000000 0.000000
vn 1.000000 0.000000 0.000000
vn 1.000000 0.000000 0.000000
vn 1.000000 0.000000 0.000000
vn 1.000000 0.000000 0.000000
vn 1.000000 0.000000 0.000000
vn 1.000000 0.000000 0.000000
vn 1.000000 0.000000 0.000000
vn 1.000000 0.000000 0.000000
vn 1.000000 0.000000 0.000000
vn 1.000000 0.000000 0.000000
vn 1.000000 0.000000 0.000000
vn 1.000000 0.000000 0.000000
vn 1.000000 0.000000 0.000000
vn 1.000000 0.000000 0.000000
vn 1.000000 0.000000 0.000000
vn 1.000000 0.000000 0.000000
vn 1.000000 0.000000 0.000000
vn 1.000000 0.000000 0.000000
vn 1.000000 0.000000 0.000000
vn 1.000000 0.000000 0.000000
vn 1.000000 0.000000 0.000000
vn 1.000000 0.000000 0.000000
vn 1.000000 0.000000 0.000000
vn 1.000000 0.000000 0.000000
vn 1.000000 0.000000 0.000000
vn -1.000000 0.000000 0.000000
vn -1.000000 0.000000 0.000000
vn -1.000000 0.000000 0.000000
vn -1.000000 0.000000 0.000000
vn -1.000000 0.000000 0.000000
vn -1.000000 0.000000 0.000000
vn -1.000000 0.000000 0.000000
vn -1.000000 0.000000 0.000000
vn -1.000000 0.000000 0.000000
vn -1.000000 0.000000 0.000000
vn -1.000000 0.000000 0.000000
vn -1.000000 0.000000 0.000000
vn -1.000000 0.000000 0.000000
vn -1.000000 0.000000 0.000000
vn -1.000000 0.000000 0.000000
vn -1.000000 0.000000 0.000000
vn -1.000000 0.000000 0.000000
vn -1.000000 0.000000 0.000000
vn -1.000000 0.000000 0.000000
vn -1.000000 0.000000 0.000000
vn -1.000000 0.000000 0.000000
vn -1.000000 0.000000 0.000000
vn -1.000000 0.000000 0.000000
vn -1.000000 0.000000 0.000000
vn -1.000000 0.000000 0.000000
vn -1.000000 0.000000 0.000000
vn -1.000000 0.000000 0.000000
vn -1.000000 0.000000 0.000000
vn -1.000000 0.000000 0.000000
vn -1.000000 0.000000 0.000000
vn -1.000000 0.000000 0.000000
vn -1.000000 0.000000 0.000000
vn -1.000000 0.000000 0.000000
vn -1.000000 0.000000 0.000000
vn -1.000000 0.000000 0.000000
vn -1.000000 0.000000 0.000000
vn -1.000000 0.000000 0.000000
vn -1.000000 0.000000 0.000000
vn -1.000000 0.000000 0.000000
vn -1.000000 0.000000 0.000000
vn -1.000000 0.000000 0.000000
vn -1.000000 0.000000 0.000000
vn -1.000000 0.000000 0.000000
vn -1.000000 0.000000 0.000000
vn -1.000000 0.000000 0.000000
vn -1.000000 0.000000 0.000000
vn -1.000000 0.000000 0.000000
vn -1.000000 0.000000 0.000000
vn -1.000000 0.000000 0.000000
vn -1.000000 0.000000 0.000000
vn -1.000000 0.000000 0.000000
vn -1.000000 0.000000 0.000000
vn -1.000000 0.000000 0.000000
vn -1.000000 0.000000 0.000000
vn -1.000000 0.000000 0.000000
vn -1.000000 0.000000 0.000000
vn -1.000000 0.000000 0.000000
vn -1.000000 0.000000 0.000000
vn -1.000000 0.000000 0.000000
vn -1.000000 0.000000 0.000000
vn -1.000000 0.000000 0.000000
vn -1.000000 0.000000 0.000000
vn -1.000000 0.000000 0.000000
vn -1.000000 0.000000 0.000000
vn -1.000000 0.000000 0.000000
vn -1.000000 0.000000 0.000000
vn -1.000000 0.000000 0.000000
vn -1.000000 0.000000 0.000000
vn -1.000000 0.000000 0.000000
vn -1.000000 0.000000 0.000000
vn -1.000000 0.000000 0.000000
vn -1.000000 0.000000 0.000000
vn 0.000000 0.000000 1.000000
vn 0.000000 0.000000 1.000000
vn 0.000000 0.000000 1.000000
vn 0.000000 0.000000 1.000000
vn 0.000000 0.000000 1.000000
vn 0.000000 0.000000 1.000000
vn 0.000000 0.000000 1.000000
vn 0.000000 0.000000 1.000000
vn 0.000000 0.000000 1.000000
vn 0.000000 0.000000 1.000000
vn 0.000000 0.000000 1.000000
vn 0.000000 0.000000 1.000000
vn 0.000000 0.000000 1.000000
vn 0.000000 0.000000 1.000000
vn 0.000000 0.000000 1.000000
vn 0.000000 0.000000 1.000000
vn 0.000000 0.000000 1.000000
vn 0.000000 0.000000 1.000000
vn 0.000000 0.000000 1.000000
vn 0.000000 0.000000 1.000000
vn 0.000000 0.000000 1.000000
vn 0.000000 0.000000 1.000000
vn 0.000000 0.000000 1.000000
vn 0.000000 0.000000 1.000000
vn 0.000000 0.000000 -1.000000
vn 0.000000 0.000000 -1.000000
vn 0.000000 0.000000 -1.000000
vn 0.000000 0.000000 -1.000000
vn 0.000000 0.000000 -1.000000
vn 0.000000 0.000000 -1.000000
vn 0.000000 0.000000 -1.000000
vn 0.000000 0.000000 -1.000000
vn 0.000000 0.000000 -1.000000
vn 0.000000 0.000000 -1.000000
vn 0.000000 0.000000 -1.000000
vn 0.000000 0.000000 -1.000000
vn 0.000000 0.000000 -1.000000
vn 0.000000 0.000000 -1.000000
vn 0.000000 0.000000 -1.000000
vn 0.000000 0.000000 -1.000000
vn 0.000000 0.000000 -1.000000
vn 0.000000 0.000000 -1.000000
vn 0.000000 0.000000 -1.000000
vn 0.000000 0.000000 -1.000000
vn 0.000000 0.000000 -1.000000
vn 0.000000 0.000000 -1.000000
vn 0.000000 0.000000 -1.000000
vn 0.000000 0.000000 -1.000000
vn -1.000000 0.000000 0.000000
vn -1.000000 0.000000 0.000000
vn -1.000000 0.000000 0.000000
vn -1.000000 0.000000 0.000000
vn -1.000000 0.000000 0.000000
vn -1.000000 0.000000 0.000000
vn -1.000000 0.000000 0.000000
vn -1.000000 0.000000 0.000000
vn -1.000000 0.000000 0.000000
vn -1.000000 0.000000 0.000000
vn -1.000000 0.000000 0.000000
vn -1.000000 0.000000 0.000000
vn -1.000000 0.000000 0.000000
vn -1.000000 0.000000 0.000000
vn -1.000000 0.000000 0.000000
vn -1.000000 0.000000 0.000000
vn -1.000000 0.000000 0.000000
vn -1.000000 0.000000 0.000000
vn -1.000000 0.000000 0.000000
vn -1.000000 0.000000 0.000000
vn -1.000000 0.000000 0.000000
vn -1.000000 0.000000 0.000000
vn -1.000000 0.000000 0.000000
vn -1.000000 0.000000 0.000000
vn 0.000000 -1.000000 0.000000
vn 0.000000 -1.000000 0.000000
vn 0.000000 -1.000000 0.000000
vn 0.000000 -1.000000 0.000000
vn 0.000000 -1.000000 0.000000
vn 0.000000 -1.000000 0.000000
vn 0.000000 -1.000000 0.000000
vn 0.000000 -1.000000 0.000000
vn 0.000000 -1.000000 0.000000
vn 0.000000 -1.000000 0.000000
vn 0.000000 -1.000000 0.000000
vn 0.000000 -1.000000 0.000000
vn 0.000000 -1.000000 0.000000
vn 0.000000 -1.000000 0.000000
vn 0.000000 -1.000000 0.000000
vn 0.000000 -1.000000 0.000000
vn 0.000000 -1.000000 0.000000
vn 0.000000 -1.000000 0.000000
vn 0.000000 -1.000000 0.000000
vn 0.000000 -1.000000 0.000000
vn 0.000000 -1.000000 0.000000
vn 0.000000 -1.000000 0.000000
vn 0.000000 -1.000000 0.000000
vn 0.000000 -1.000000 0.000000
vn 0.000000 -1.000000 0.000000
vn 0.000000 -1.000000 0.000000
vn 0.000000 -1.000000 0.000000
vn 0.000000 -1.000000 0.000000
vn 0.000000 -1.000000 0.000000
vn 0.000000 -1.000000 0.000000
vn 0.000000 -1.000000 0.000000
vn 0.000000 -1.000000 0.000000
vn 0.000000 -1.000000 0.000000
vn 0.000000 -1.000000 0.000000
vn 0.000000 -1.000000 0.000000
vn 0.000000 -1.000000 0.000000
vn 0.000000 -1.000000 0.000000
vn 0.000000 -1.000000 0.000000
vn 0.000000 -1.000000 0.000000
vn 0.000000 -1.000000 0.000000
vn 0.000000 -1.000000 0.000000
vn 0.000000 -1.000000 0.000000
vn 0.000000 -1.000000 0.000000
vn 0.000000 -1.000000 0.000000
vn 0.000000 -1.000000 0.000000
vn 0.000000 -1.000000 0.000000
vn 0.000000 -1.000000 0.000000
vn 0.000000 -1.000000 0.000000
vn 0.000000 -1.000000 0.000000
vn 0.000000 -1.000000 0.000000
vn 0.000000 -1.000000 0.000000
vn 0.000000 -1.000000 0.000000
vn 0.000000 -1.000000 0.000000
vn 0.000000 -1.000000 0.000000
vn 0.000000 -1.000000 0.000000
vn 0.000000 -1.000000 0.000000
vn 0.000000 -1.000000 0.000000
vn 0.000000 -1.000000 0.000000
vn 0.000000 -1.000000 0.000000
vn 0.000000 -1.000000 0.000000
vn 0.000000 -1.000000 0.000000
vn 0.000000 -1.000000 0.000000
vn 0.000000 -1.000000 0.000000
vn 0.000000 -1.000000 0.000000
vn 0.000000 -1.000000 0.000000
vn 0.000000 -1.000000 0.000000
vn 0.000000 -1.000000 0.000000
vn 0.000000 -1.000000 0.000000
vn 0.000000 -1.000000 0.000000
vn 0.000000 -1.000000 0.000000
vn 0.000000 -1.000000 0.000000
vn 0.000000 -1.000000 0.000000
vn 0.000000 -1.000000 0.000000
vn 0.000000 -1.000000 0.000000
vn 0.000000 -1.000000 0.000000
vn 0.000000 -1.000000 0.000000
vn 0.000000 -1.000000 0.000000
vn 0.000000 -1.000000 0.000000
vn 0.000000 -1.000000 0.000000
vn 0.000000 -1.000000 0.000000
vn 0.000000 -1.000000 0.000000
vn 0.000000 -1.000000 0.000000
vn 0.000000 -1.000000 0.000000
vn 0.000000 -1.000000 0.000000
vn 0.000000 -1.000000 0.000000
vn 0.000000 -1.000000 0.000000
vn 0.000000 -1.000000 0.000000
vn 0.000000 -1.000000 0.000000
vn 0.000000 -1.000000 0.000000
vn 0.000000 -1.000000 0.000000
vn 0.000000 -1.000000 0.000000
vn 0.000000 -1.000000 0.000000
vn 0.000000 -1.000000 0.000000
vn 0.000000 -1.000000 0.000000
vn 0.000000 -1.000000 0.000000
vn 0.000000 -1.000000 0.000000
vn 0.000000 -1.000000 0.000000
vn 0.000000 -1.000000 0.000000
vn 0.000000 -1.000000 0.000000
vn 0.000000 -1.000000 0.000000
vn 0.000000 -1.000000 0.000000
vn 0.000000 -1.000000 0.000000
vn 0.000000 -1.000000 0.000000
vn 0.000000 -1.000000 0.000000
vn 0.000000 -1.000000 0.000000
vn 0.000000 -1.000000 0.000000
vn 0.000000 -1.000000 0.000000
vn 0.000000 -1.000000 0.000000
vn 0.000000 -1.000000 0.000000
vn 0.000000 -1.000000 0.000000
vn 0.000000 -1.000000 0.000000
vn 0.000000 -1.000000 0.000000
vn 0.000000 -1.000000 0.000000
vn 0.000000 -1.000000 0.000000
vn 0.000000 -1.000000 0.000000
vn 0.000000 -1.000000 0.000000
vn 0.000000 -1.000000 0.000000
vn 0.000000 -1.000000 0.000000
vn 0.000000 -1.000000 0.000000
vn 0.000000 -1.000000 0.000000
vn 1.000000 0.000000 0.000000
vn 1.000000 0.000000 0.000000
vn 1.000000 0.000000 0.000000
vn 1.000000 0.000000 0.000000
vn 1.000000 0.000000 0.000000
vn 1.000000 0.000000 0.000000
vn 1.000000 0.000000 0.000000
vn 1.000000 0.000000 0.000000
vn 1.000000 0.000000 0.000000
vn 1.000000 0.000000 0.000000
vn 1.000000 0.000000 0.000000
vn 1.000000 0.000000 0.000000
vn 1.000000 0.000000 0.000000
vn 1.000000 0.000000 0.000000
vn 1.000000 0.000000 0.000000
vn 1.000000 0.000000 0.000000
vn 1.000000 0.000000 0.000000
vn 1.000000 0.000000 0.000000
vn 1.000000 0.000000 0.000000
vn 1.000000 0.000000 0.000000
vn 1.000000 0.000000 0.000000
vn 1.000000 0.000000 0.000000
vn 1.000000 0.000000 0.000000
vn 1.000000 0.000000 0.000000
vn 0.000000 1.000000 0.000000
vn 0.000000 1.000000 0.000000
vn 0.000000 1.000000 0.000000
vn 0.000000 1.000000 0.000000
vn 0.000000 1.000000 0.000000
vn 0.000000 1.000000 0.000000
vn 0.000000 1.000000 0.000000
vn 0.000000 1.000000 0.000000
vn 0.000000 1.000000 0.000000
vn 0.000000 1.000000 0.000000
vn 0.000000 1.000000 0.000000
vn 0.000000 1.000000 0.000000
vn 0.000000 1.000000 0.000000
vn 0.000000 1.000000 0.000000
vn 0.000000 1.000000 0.000000
vn 0.000000 1.000000 0.000000
vn 0.000000 1.000000 0.000000
vn 0.000000 1.000000 0.000000
vn 0.000000 1.000000 0.000000
vn 0.000000 1.000000 0.000000
vn 0.000000 1.000000 0.000000
vn 0.000000 1.000000 0.000000
vn 0.000000 1.000000 0.000000
vn 0.000000 1.000000 0.000000
vn 0.000000 1.000000 0.000000
vn 0.000000 1.000000 0.000000
vn 0.000000 1.000000 0.000000
vn 0.000000 1.000000 0.000000
vn 0.000000 1.000000 0.000000
vn 0.000000 1.000000 0.000000
vn 0.000000 1.000000 0.000000
vn 0.000000 1.000000 0.000000
vn 0.000000 1.000000 0.000000
vn 0.000000 1.000000 0.000000
vn 0.000000 1.000000 0.000000
vn 0.000000 1.000000 0.000000
vn 0.000000 1.000000 0.000000
vn 0.000000 1.000000 0.000000
vn 0.000000 1.000000 0.000000
vn 0.000000 1.000000 0.000000
vn 0.000000 1.000000 0.000000
vn 0.000000 1.000000 0.000000
vn 0.000000 1.000000 0.000000
vn 0.000000 1.000000 0.000000
vn 0.000000 1.000000 0.000000
vn 0.000000 1.000000 0.000000
vn 0.000000 1.000000 0.000000
vn 0.000000 1.000000 0.000000
vn 0.000000 -1.000000 0.000000
vn 0.000000 -1.000000 0.000000
vn 0.000000 -1.000000 0.000000
vn 0.000000 -1.000000 0.000000
vn 0.000000 -1.000000 0.000000
vn 0.000000 -1.000000 0.000000
vn 0.000000 -1.000000 0.000000
vn 0.000000 -1.000000 0.000000
vn 0.000000 -1.000000 0.000000
vn 0.000000 -1.000000 0.000000
vn 0.000000 -1.000000 0.000000
vn 0.000000 -1.000000 0.000000
vn 0.000000 -1.000000 0.000000
vn 0.000000 -1.000000 0.000000
vn 0.000000 -1.000000 0.000000
vn 0.000000 -1.000000 0.000000
vn 0.000000 -1.000000 0.000000
vn 0.000000 -1.000000 0.000000
vn 0.000000 -1.000000 0.000000
vn 0.000000 -1.000000 0.000000
vn 0.000000 -1.000000 0.000000
vn 0.000000 -1.000000 0.000000
vn 0.000000 -1.000000 0.000000
vn 0.000000 -1.000000 0.000000
vn 0.000000 -1.000000 0.000000
vn 0.000000 -1.000000 0.000000
vn 0.000000 -1.000000 0.000000
vn 0.000000 -1.000000 0.000000
vn 0.000000 -1.000000 0.000000
vn 0.000000 -1.000000 0.000000
vn 0.000000 -1.000000 0.000000
vn 0.000000 -1.000000 0.000000
vn 0.000000 -1.000000 0.000000
vn 0.000000 -1.000000 0.000000
vn 0.000000 -1.000000 0.000000
vn 0.000000 -1.000000 0.000000
vn 0.000000 -1.000000 0.000000
vn 0.000000 -1.000000 0.000000
vn 0.000000 -1.000000 0.000000
vn 0.000000 -1.000000 0.000000
vn 0.000000 -1.000000 0.000000
vn 0.000000 -1.000000 0.000000
vn 1.000000 0.000000 0.000000
vn 1.000000 0.000000 0.000000
vn 1.000000 0.000000 0.000000
vn 1.000000 0.000000 0.000000
vn 1.000000 0.000000 0.000000
vn 1.000000 0.000000 0.000000
vn 1.000000 0.000000 0.000000
vn 1.000000 0.000000 0.000000
vn 1.000000 0.000000 0.000000
vn 1.000000 0.000000 0.000000
vn 1.000000 0.000000 0.000000
vn 1.000000 0.000000 0.000000
vn 0.000000 1.000000 0.000000
vn 0.000000 1.000000 0.000000
vn 0.000000 1.000000 0.000000
vn 0.000000 1.000000 0.000000
vn 0.000000 1.000000 0.000000
vn 0.000000 1.000000 0.000000
vn 0.000000 1.000000 0.000000
vn 0.000000 1.000000 0.000000
vn 0.000000 1.000000 0.000000
vn 0.000000 1.000000 0.000000
vn 0.000000 1.000000 0.000000
vn 0.000000 1.000000 0.000000
vn 0.000000 1.000000 0.000000
vn 0.000000 1.000000 0.000000
vn 0.000000 1.000000 0.000000
vn 0.000000 1.000000 0.000000
vn 0.000000 1.000000 0.000000
vn 0.000000 1.000000 0.000000
vn 0.000000 1.000000 0.000000
vn 0.000000 1.000000 0.000000
vn 0.000000 1.000000 0.000000
vn 0.000000 1.000000 0.000000
vn 0.000000 1.000000 0.000000
vn 0.000000 1.000000 0.000000
vn 0.000000 1.000000 0.000000
vn 0.000000 1.000000 0.000000
vn 0.000000 1.000000 0.000000
vn 0.000000 1.000000 0.000000
vn 0.000000 1.000000 0.000000
vn 0.000000 1.000000 0.000000
vn 0.000000 1.000000 0.000000
vn 0.000000 1.000000 0.000000
vn 0.000000 1.000000 0.000000
vn 0.000000 1.000000 0.000000
vn 0.000000 1.000000 0.000000
vn 0.000000 1.000000 0.000000
vn 0.000000 1.000000 0.000000
vn 0.000000 1.000000 0.000000
vn 0.000000 1.000000 0.000000
vn 0.000000 1.000000 0.000000
vn 0.000000 1.000000 0.000000
vn 0.000000 1.000000 0.000000
vn 0.000000 1.000000 0.000000
vn 0.000000 1.000000 0.000000
vn 0.000000 1.000000 0.000000
vn 0.000000 1.000000 0.000000
vn 0.000000 1.000000 0.000000
vn 0.000000 1.000000 0.000000
vn 0.000000 1.000000 0.000000
vn 0.000000 1.000000 0.000000
vn 0.000000 1.000000 0.000000
vn 0.000000 1.000000 0.000000
vn 0.000000 1.000000 0.000000
vn 0.000000 1.000000 0.000000
vn 0.000000 1.000000 0.000000
vn 0.000000 1.000000 0.000000
vn 0.000000 1.000000 0.000000
vn 0.000000 1.000000 0.000000
vn 0.000000 1.000000 0.000000
vn 0.000000 1.000000 0.000000
vn 0.000000 1.000000 0.000000
vn 0.000000 1.000000 0.000000
vn 0.000000 1.000000 0.000000
vn 0.000000 1.000000 0.000000
vn 0.000000 1.000000 0.000000
vn 0.000000 1.000000 0.000000
vn 0.000000 1.000000 0.000000
vn 0.000000 1.000000 0.000000
vn 0.000000 1.000000 0.000000
vn 0.000000 1.000000 0.000000
vn 0.000000 1.000000 0.000000
vn 0.000000 1.000000 0.000000
vn 0.000000 1.000000 0.000000
vn 0.000000 1.000000 0.000000
vn 0.000000 1.000000 0.000000
vn 0.000000 1.000000 0.000000
vn 0.000000 1.000000 0.000000
vn 0.000000 1.000000 0.000000
vn 0.000000 1.000000 0.000000
vn 0.000000 1.000000 0.000000
vn 0.000000 1.000000 0.000000
vn 0.000000 1.000000 0.000000
vn 0.000000 1.000000 0.000000
vn 0.000000 1.000000 0.000000
vn 0.000000 1.000000 0.000000
vn 0.000000 1.000000 0.000000
vn 0.000000 1.000000 0.000000
vn 0.000000 1.000000 0.000000
vn 0.000000 1.000000 0.000000
vn 0.000000 1.000000 0.000000
vn 0.000000 1.000000 0.000000
vn 0.000000 1.000000 0.000000
vn 0.000000 1.000000 0.000000
vn 0.000000 1.000000 0.000000
vn 0.000000 1.000000 0.000000
vn 0.000000 1.000000 0.000000
vn 0.000000 1.000000 0.000000
vn 0.000000 1.000000 0.000000
vn 0.000000 1.000000 0.000000
vn 0.000000 1.000000 0.000000
vn 0.000000 1.000000 0.000000
vn 0.000000 1.000000 0.000000
vn 0.000000 1.000000 0.000000
vn 0.000000 1.000000 0.000000
vn 0.000000 1.000000 0.000000
vn 0.000000 1.000000 0.000000
vn 0.000000 1.000000 0.000000
vn 0.000000 1.000000 0.000000
vn 0.000000 1.000000 0.000000
vn 0.000000 1.000000 0.000000
vn 0.000000 1.000000 0.000000
vn 0.000000 1.000000 0.000000
vn 0.000000 1.000000 0.000000
vn 0.000000 1.000000 0.000000
vn 0.000000 1.000000 0.000000
vn 0.000000 1.000000 0.000000
vn 0.000000 1.000000 0.000000
vn 0.000000 1.000000 0.000000
vn 0.000000 1.000000 0.000000
vn 0.000000 1.000000 0.000000
vn 0.000000 1.000000 0.000000
vn 0.000000 1.000000 0.000000
vn 0.000000 1.000000 0.000000
vn 0.000000 1.000000 0.000000
vn 0.000000 1.000000 0.000000
vn 0.000000 1.000000 0.000000
vn 0.000000 1.000000 0.000000
vn 0.000000 1.000000 0.000000
vn 0.000000 1.000000 0.000000
vn 0.000000 1.000000 0.000000
vn 0.000000 1.000000 0.000000
vn 0.000000 1.000000 0.000000
vn 0.000000 1.000000 0.000000
vn 0.000000 1.000000 0.000000
vn 0.000000 1.000000 0.000000
vn 0.000000 1.000000 0.000000
vn 0.000000 1.000000 0.000000
vn 0.000000 1.000000 0.000000
vn 0.000000 1.000000 0.000000
vn 0.000000 1.000000 0.000000
vn 0.000000 1.000000 0.000000
vn 0.000000 1.000000 0.000000
vn 0.000000 1.000000 0.000000
vn 0.000000 1.000000 0.000000
vn 0.000000 1.000000 0.000000
vn 0.000000 1.000000 0.000000
vn 0.000000 1.000000 0.000000
vn 0.000000 1.000000 0.000000
vn 0.000000 1.000000 0.000000
vn 0.000000 1.000000 0.000000
vn 0.000000 1.000000 0.000000
vn 0.000000 1.000000 0.000000
vn 0.000000 1.000000 0.000000
vn 0.000000 1.000000 0.000000
vn 0.000000 1.000000 0.000000
vn 0.000000 1.000000 0.000000
vn 0.000000 1.000000 0.000000
vn 0.000000 1.000000 0.000000
vn 0.000000 1.000000 0.000000
vn 0.000000 1.000000 0.000000
vn 0.000000 1.000000 0.000000
vn 0.000000 1.000000 0.000000
vn 0.000000 1.000000 0.000000
vn 0.000000 1.000000 0.000000
vn 0.000000 1.000000 0.000000
vn 0.000000 1.000000 0.000000
vn 0.000000 1.000000 0.000000
vn 0.000000 1.000000 0.000000
vn 1.000000 0.000000 0.000000
vn 1.000000 0.000000 0.000000
vn 1.000000 0.000000 0.000000
vn 1.000000 0.000000 0.000000
vn 1.000000 0.000000 0.000000
vn 1.000000 0.000000 0.000000
vn 1.000000 0.000000 0.000000
vn 1.000000 0.000000 0.000000
vn 1.000000 0.000000 0.000000
vn 1.000000 0.000000 0.000000
vn 1.000000 0.000000 0.000000
vn 1.000000 0.000000 0.000000
vn 0.000000 -1.000000 0.000000
vn 0.000000 -1.000000 0.000000
vn 0.000000 -1.000000 0.000000
vn 0.000000 -1.000000 0.000000
vn 0.000000 -1.000000 0.000000
vn 0.000000 -1.000000 0.000000
vn 0.000000 -1.000000 0.000000
vn 0.000000 -1.000000 0.000000
vn 0.000000 -1.000000 0.000000
vn 0.000000 -1.000000 0.000000
vn 0.000000 -1.000000 0.000000
vn 0.000000 -1.000000 0.000000
vn 0.000000 -1.000000 0.000000
vn 0.000000 -1.000000 0.000000
vn 0.000000 -1.000000 0.000000
vn 0.000000 -1.000000 0.000000
vn 0.000000 -1.000000 0.000000
vn 0.000000 -1.000000 0.000000
vn -1.000000 0.000000 0.000000
vn -1.000000 0.000000 0.000000
vn -1.000000 0.000000 0.000000
vn -1.000000 0.000000 0.000000
vn -1.000000 0.000000 0.000000
vn -1.000000 0.000000 0.000000
vn -1.000000 0.000000 0.000000
vn -1.000000 0.000000 0.000000
vn -1.000000 0.000000 0.000000
vn -1.000000 0.000000 0.000000
vn -1.000000 0.000000 0.000000
vn -1.000000 0.000000 0.000000
vn 0.000000 -1.000000 0.000000
vn 0.000000 -1.000000 0.000000
vn 0.000000 -1.000000 0.000000
vn 0.000000 -1.000000 0.000000
vn 0.000000 -1.000000 0.000000
vn 0.000000 -1.000000 0.000000
vn 0.000000 -1.000000 0.000000
vn 0.000000 -1.000000 0.000000
vn 0.000000 -1.000000 0.000000
vn 0.000000 -1.000000 0.000000
vn 0.000000 -1.000000 0.000000
vn 0.000000 -1.000000 0.000000
vn 0.000000 -1.000000 0.000000
vn 0.000000 -1.000000 0.000000
vn 0.000000 -1.000000 0.000000
vn 0.000000 -1.000000 0.000000
vn 0.000000 -1.000000 0.000000
vn 0.000000 -1.000000 0.000000
vn -1.000000 0.000000 0.000000
vn -1.000000 0.000000 0.000000
vn -1.000000 0.000000 0.000000
vn -1.000000 0.000000 0.000000
vn -1.000000 0.000000 0.000000
vn -1.000000 0.000000 0.000000
vn -1.000000 0.000000 0.000000
vn -1.000000 0.000000 0.000000
vn -1.000000 0.000000 0.000000
vn -1.000000 0.000000 0.000000
vn -1.000000 0.000000 0.000000
vn -1.000000 0.000000 0.000000
vn 0.000000 -1.000000 0.000000
vn 0.000000 -1.000000 0.000000
vn 0.000000 -1.000000 0.000000
vn 0.000000 -1.000000 0.000000
vn 0.000000 -1.000000 0.000000
vn 0.000000 -1.000000 0.000000
vn 0.000000 -1.000000 0.000000
vn 0.000000 -1.000000 0.000000
vn 0.000000 -1.000000 0.000000
vn 0.000000 -1.000000 0.000000
vn 0.000000 -1.000000 0.000000
vn 0.000000 -1.000000 0.000000
vn 0.000000 -1.000000 0.000000
vn 0.000000 -1.000000 0.000000
vn 0.000000 -1.000000 0.000000
vn 0.000000 -1.000000 0.000000
vn 0.000000 -1.000000 0.000000
vn 0.000000 -1.000000 0.000000
vn 0.000000 0.000000 -1.000000
vn 0.000000 0.000000 -1.000000
vn 0.000000 0.000000 -1.000000
vn 0.000000 0.000000 -1.000000
vn 0.000000 0.000000 -1.000000
vn 0.000000 0.000000 -1.000000
vn 0.000000 0.000000 -1.000000
vn 0.000000 0.000000 -1.000000
vn 0.000000 0.000000 -1.000000
vn 0.000000 0.000000 -1.000000
vn 0.000000 0.000000 -1.000000
vn 0.000000 0.000000 -1.000000
vn 0.000000 0.000000 -1.000000
vn 0.000000 0.000000 -1.000000
vn 0.000000 0.000000 -1.000000
vn 0.000000 0.000000 -1.000000
vn 0.000000 0.000000 -1.000000
vn 0.000000 0.000000 -1.000000
vn 0.000000 0.000000 -1.000000
vn 0.000000 0.000000 -1.000000
vn 0.000000 0.000000 -1.000000
vn 0.000000 0.000000 -1.000000
vn 0.000000 0.000000 -1.000000
vn 0.000000 0.000000 -1.000000
vn 0.000000 0.000000 1.000000
vn 0.000000 0.000000 1.000000
vn 0.000000 0.000000 1.000000
vn 0.000000 0.000000 1.000000
vn 0.000000 0.000000 1.000000
vn 0.000000 0.000000 1.000000
vn 0.000000 0.000000 1.000000
vn 0.000000 0.000000 1.000000
vn 0.000000 0.000000 1.000000
vn 0.000000 0.000000 1.000000
vn 0.000000 0.000000 1.000000
vn 0.000000 0.000000 1.000000
vn 0.000000 0.000000 1.000000
vn 0.000000 0.000000 1.000000
vn 0.000000 0.000000 1.000000
vn 0.000000 0.000000 1.000000
vn 0.000000 0.000000 1.000000
vn 0.000000 0.000000 1.000000
vn 0.000000 0.000000 1.000000
vn 0.000000 0.000000 1.000000
vn 0.000000 0.000000 1.000000
vn 0.000000 0.000000 1.000000
vn 0.000000 0.000000 1.000000
vn 0.000000 0.000000 1.000000
vn 0.000000 0.000000 1.000000
vn 0.000000 0.000000 1.000000
vn 0.000000 0.000000 1.000000
vn 0.000000 0.000000 1.000000
vn 0.000000 0.000000 1.000000
vn 0.000000 0.000000 1.000000
vn 0.000000 0.000000 1.000000
vn 0.000000 0.000000 1.000000
vn 0.000000 0.000000 1.000000
vn 0.000000 0.000000 1.000000
vn 0.000000 0.000000 1.000000
vn 0.000000 0.000000 1.000000
vn -1.000000 0.000000 0.000000
vn -1.000000 0.000000 0.000000
vn -1.000000 0.000000 0.000000
vn -1.000000 0.000000 0.000000
vn -1.000000 0.000000 0.000000
vn -1.000000 0.000000 0.000000
vn -1.000000 0.000000 0.000000
vn -1.000000 0.000000 0.000000
vn -1.000000 0.000000 0.000000
vn -1.000000 0.000000 0.000000
vn -1.000000 0.000000 0.000000
vn -1.000000 0.000000 0.000000
vn 0.000000 0.000000 -1.000000
vn 0.000000 0.000000 -1.000000
vn 0.000000 0.000000 -1.000000
vn 0.000000 0.000000 -1.000000
vn 0.000000 0.000000 -1.000000
vn 0.000000 0.000000 -1.000000
vn 0.000000 0.000000 -1.000000
vn 0.000000 0.000000 -1.000000
vn 0.000000 0.000000 -1.000000
vn 0.000000 0.000000 -1.000000
vn 0.000000 0.000000 -1.000000
vn 0.000000 0.000000 -1.000000
vn 1.000000 0.000000 0.000000
vn 1.000000 0.000000 0.000000
vn 1.000000 0.000000 0.000000
vn 1.000000 0.000000 0.000000
vn 1.000000 0.000000 0.000000
vn 1.000000 0.000000 0.000000
vn 1.000000 0.000000 0.000000
vn 1.000000 0.000000 0.000000
vn 1.000000 0.000000 0.000000
vn 1.000000 0.000000 0.000000
vn 1.000000 0.000000 0.000000
vn 1.000000 0.000000 0.000000
vn 0.000000 0.000000 1.000000
vn 0.000000 0.000000 1.000000
vn 0.000000 0.000000 1.000000
vn 0.000000 0.000000 1.000000
vn 0.000000 0.000000 1.000000
vn 0.000000 0.000000 1.000000
vn 0.000000 0.000000 1.000000
vn 0.000000 0.000000 1.000000
vn 0.000000 0.000000 1.000000
vn 0.000000 0.000000 1.000000
vn 0.000000 0.000000 1.000000
vn 0.000000 0.000000 1.000000
vn -1.000000 0.000000 0.000000
vn -1.000000 0.000000 0.000000
vn -1.000000 0.000000 0.000000
vn -1.000000 0.000000 0.000000
vn -1.000000 0.000000 0.000000
vn -1.000000 0.000000 0.000000
vn -1.000000 0.000000 0.000000
vn -1.000000 0.000000 0.000000
vn -1.000000 0.000000 0.000000
vn -1.000000 0.000000 0.000000
vn -1.000000 0.000000 0.000000
vn -1.000000 0.000000 0.000000
vn 0.000000 0.000000 -1.000000
vn 0.000000 0.000000 -1.000000
vn 0.000000 0.000000 -1.000000
vn 0.000000 0.000000 -1.000000
vn 0.000000 0.000000 -1.000000
vn 0.000000 0.000000 -1.000000
vn 0.000000 0.000000 -1.000000
vn 0.000000 0.000000 -1.000000
vn 0.000000 0.000000 -1.000000
vn 0.000000 0.000000 -1.000000
vn 0.000000 0.000000 -1.000000
vn 0.000000 0.000000 -1.000000
vn 1.000000 0.000000 0.000000
vn 1.000000 0.000000 0.000000
vn 1.000000 0.000000 0.000000
vn 1.000000 0.000000 0.000000
vn 1.000000 0.000000 0.000000
vn 1.000000 0.000000 0.000000
vn 1.000000 0.000000 0.000000
vn 1.000000 0.000000 0.000000
vn 1.000000 0.000000 0.000000
vn 1.000000 0.000000 0.000000
vn 1.000000 0.000000 0.000000
vn 1.000000 0.000000 0.000000
vn 0.000000 0.000000 1.000000
vn 0.000000 0.000000 1.000000
vn 0.000000 0.000000 1.000000
vn 0.000000 0.000000 1.000000
vn 0.000000 0.000000 1.000000
vn 0.000000 0.000000 1.000000
vn 0.000000 0.000000 1.000000
vn 0.000000 0.000000 1.000000
vn 0.000000 0.000000 1.000000
vn 0.000000 0.000000 1.000000
vn 0.000000 0.000000 1.000000
vn 0.000000 0.000000 1.000000
vn -1.000000 0.000000 0.000000
vn -1.000000 0.000000 0.000000
vn -1.000000 0.000000 0.000000
vn -1.000000 0.000000 0.000000
vn -1.000000 0.000000 0.000000
vn -1.000000 0.000000 0.000000
vn -1.000000 0.000000 0.000000
vn -1.000000 0.000000 0.000000
vn -1.000000 0.000000 0.000000
vn -1.000000 0.000000 0.000000
vn -1.000000 0.000000 0.000000
vn -1.000000 0.000000 0.000000
vn 0.000000 0.000000 -1.000000
vn 0.000000 0.000000 -1.000000
vn 0.000000 0.000000 -1.000000
vn 0.000000 0.000000 -1.000000
vn 0.000000 0.000000 -1.000000
vn 0.000000 0.000000 -1.000000
vn 0.000000 0.000000 -1.000000
vn 0.000000 0.000000 -1.000000
vn 0.000000 0.000000 -1.000000
vn 0.000000 0.000000 -1.000000
vn 0.000000 0.000000 -1.000000
vn 0.000000 0.000000 -1.000000
vn 1.000000 0.000000 0.000000
vn 1.000000 0.000000 0.000000
vn 1.000000 0.000000 0.000000
vn 1.000000 0.000000 0.000000
vn 1.000000 0.000000 0.000000
vn 1.000000 0.000000 0.000000
vn 1.000000 0.000000 0.000000
vn 1.000000 0.000000 0.000000
vn 1.000000 0.000000 0.000000
vn 1.000000 0.000000 0.000000
vn 1.000000 0.000000 0.000000
vn 1.000000 0.000000 0.000000
vn 1.000000 0.000000 0.000000
vn 1.000000 0.000000 0.000000
vn 1.000000 0.000000 0.000000
vn 1.000000 0.000000 0.000000
vn 1.000000 0.000000 0.000000
vn 1.000000 0.000000 0.000000
vn 1.000000 0.000000 0.000000
vn 1.000000 0.000000 0.000000
vn 1.000000 0.000000 0.000000
vn 1.000000 0.000000 0.000000
vn 1.000000 0.000000 0.000000
vn 1.000000 0.000000 0.000000
vn 0.000000 0.000000 1.000000
vn 0.000000 0.000000 1.000000
vn 0.000000 0.000000 1.000000
vn 0.000000 0.000000 1.000000
vn 0.000000 0.000000 1.000000
vn 0.000000 0.000000 1.000000
vn 0.000000 0.000000 1.000000
vn 0.000000 0.000000 1.000000
vn 0.000000 0.000000 1.000000
vn 0.000000 0.000000 1.000000
vn 0.000000 0.000000 1.000000
vn 0.000000 0.000000 1.000000
vn -1.000000 0.000000 0.000000
vn -1.000000 0.000000 0.000000
vn -1.000000 0.000000 0.000000
vn -1.000000 0.000000 0.000000
vn -1.000000 0.000000 0.000000
vn -1.000000 0.000000 0.000000
vn -1.000000 0.000000 0.000000
vn -1.000000 0.000000 0.000000
vn -1.000000 0.000000 0.000000
vn -1.000000 0.000000 0.000000
vn -1.000000 0.000000 0.000000
vn -1.000000 0.000000 0.000000
vn 0.000000 0.000000 -1.000000
vn 0.000000 0.000000 -1.000000
vn 0.000000 0.000000 -1.000000
vn 0.000000 0.000000 -1.000000
vn 0.000000 0.000000 -1.000000
vn 0.000000 0.000000 -1.000000
vn 0.000000 0.000000 -1.000000
vn 0.000000 0.000000 -1.000000
vn 0.000000 0.000000 -1.000000
vn 0.000000 0.000000 -1.000000
vn 0.000000 0.000000 -1.000000
vn 0.000000 0.000000 -1.000000
vn -1.000000 0.000000 0.000000
vn -1.000000 0.000000 0.000000
vn -1.000000 0.000000 0.000000
vn -1.000000 0.000000 0.000000
vn -1.000000 0.000000 0.000000
vn -1.000000 0.000000 0.000000
vn -1.000000 0.000000 0.000000
vn -1.000000 0.000000 0.000000
vn -1.000000 0.000000 0.000000
vn -1.000000 0.000000 0.000000
vn -1.000000 0.000000 0.000000
vn -1.000000 0.000000 0.000000
vn -1.000000 0.000000 0.000000
vn -1.000000 0.000000 0.000000
vn -1.000000 0.000000 0.000000
vn -1.000000 0.000000 0.000000
vn -1.000000 0.000000 0.000000
vn -1.000000 0.000000 0.000000
vn -1.000000 0.000000 0.000000
vn -1.000000 0.000000 0.000000
vn -1.000000 0.000000 0.000000
vn -1.000000 0.000000 0.000000
vn -1.000000 0.000000 0.000000
vn -1.000000 0.000000 0.000000
vn 0.000000 0.000000 1.000000
vn 0.000000 0.000000 1.000000
vn 0.000000 0.000000 1.000000
vn 0.000000 0.000000 1.000000
vn 0.000000 0.000000 1.000000
vn 0.000000 0.000000 1.000000
vn 0.000000 0.000000 1.000000
vn 0.000000 0.000000 1.000000
vn 0.000000 0.000000 1.000000
vn 0.000000 0.000000 1.000000
vn 0.000000 0.000000 1.000000
vn 0.000000 0.000000 1.000000
vn 1.000000 0.000000 0.000000
vn 1.000000 0.000000 0.000000
vn 1.000000 0.000000 0.000000
vn 1.000000 0.000000 0.000000
vn 1.000000 0.000000 0.000000
vn 1.000000 0.000000 0.000000
vn 1.000000 0.000000 0.000000
vn 1.000000 0.000000 0.000000
vn 1.000000 0.000000 0.000000
vn 1.000000 0.000000 0.000000
vn 1.000000 0.000000 0.000000
vn 1.000000 0.000000 0.000000
vn 1.000000 0.000000 0.000000
vn 1.000000 0.000000 0.000000
vn 1.000000 0.000000 0.000000
vn 1.000000 0.000000 0.000000
vn 1.000000 0.000000 0.000000
vn 1.000000 0.000000 0.000000
vn 1.000000 0.000000 0.000000
vn 1.000000 0.000000 0.000000
vn 1.000000 0.000000 0.000000
vn 1.000000 0.000000 0.000000
vn 1.000000 0.000000 0.000000
vn 1.000000 0.000000 0.000000
vn 0.000000 0.000000 -1.000000
vn 0.000000 0.000000 -1.000000
vn 0.000000 0.000000 -1.000000
vn 0.000000 0.000000 -1.000000
vn 0.000000 0.000000 -1.000000
vn 0.000000 0.000000 -1.000000
vn 0.000000 0.000000 -1.000000
vn 0.000000 0.000000 -1.000000
vn 0.000000 0.000000 -1.000000
vn 0.000000 0.000000 -1.000000
vn 0.000000 0.000000 -1.000000
vn 0.000000 0.000000 -1.000000
s off
g pCube90 plastic_planter_box group
usemtl pCube90SG
f 1/1/1 3/3/2 2/2/3
f 1/1/4 2/2/5 4/4/6
f 4/4/7 2/2/8 5/5/9
f 4/4/10 5/5/11 6/6/12
f 4/4/13 6/6/14 7/7/15
f 4/4/16 7/7/17 8/8/18
f 1/1/19 4/4/20 8/8/21
f 1/1/22 8/8/23 9/9/24
f 10/10/25 12/12/26 11/11/27
f 10/10/28 11/11/29 13/13/30
f 13/13/31 11/11/32 14/14/33
f 13/13/34 14/14/35 15/15/36
f 16/16/37 13/13/38 15/15/39
f 16/16/40 17/17/41 13/13/42
f 17/17/43 10/10/44 13/13/45
f 17/17/46 18/18/47 10/10/48
f 19/19/49 21/21/50 20/20/51
f 19/19/52 20/20/53 22/22/54
f 22/22/55 20/20/56 23/23/57
f 22/22/58 23/23/59 24/24/60
f 22/22/61 24/24/62 25/25/63
f 22/22/64 25/25/65 26/26/66
f 19/19/67 22/22/68 26/26/69
f 19/19/70 26/26/71 27/27/72
f 28/28/73 30/30/74 29/29/75
f 28/28/76 29/29/77 31/31/78
f 31/31/79 29/29/80 32/32/81
f 31/31/82 32/32/83 33/33/84
f 34/34/85 31/31/86 33/33/87
f 34/34/88 35/35/89 31/31/90
f 35/35/91 28/28/92 31/31/93
f 35/35/94 36/36/95 28/28/96
f 37/37/97 39/39/98 38/38/99
f 37/37/100 38/38/101 40/40/102
f 40/40/103 38/38/104 41/41/105
f 42/42/106 37/37/107 40/40/108
f 40/40/109 41/41/110 43/43/111
f 42/42/112 40/40/113 44/44/114
f 44/44/115 40/40/116 43/43/117
f 44/44/118 43/43/119 45/45/120
f 46/46/121 42/42/122 44/44/123
f 47/47/124 44/44/125 45/45/126
f 46/46/127 44/44/128 47/47/129
f 47/47/130 45/45/131 48/48/132
f 49/49/133 47/47/134 48/48/135
f 49/49/136 50/50/137 47/47/138
f 50/50/139 46/46/140 47/47/141
f 50/50/142 51/51/143 46/46/144
f 52/52/145 54/54/146 53/53/147
f 52/52/148 53/53/149 55/55/150
f 55/55/151 53/53/152 56/56/153
f 55/55/154 56/56/155 57/57/156
f 55/55/157 57/57/158 58/58/159
f 55/55/160 58/58/161 59/59/162
f 52/52/163 55/55/164 59/59/165
f 52/52/166 59/59/167 60/60/168
f 61/61/169 63/63/170 62/62/171
f 61/61/172 62/62/173 64/64/174
f 65/65/175 61/61/176 64/64/177
f 65/65/178 64/64/179 66/66/180
f 64/64/181 67/67/182 66/66/183
f 62/62/184 68/68/185 64/64/186
f 64/64/187 68/68/188 67/67/189
f 62/62/190 69/69/191 68/68/192
f 68/68/193 70/70/194 67/67/195
f 69/69/196 71/71/197 68/68/198
f 68/68/199 71/71/200 70/70/201
f 71/71/202 72/72/203 70/70/204
f 69/69/205 73/73/206 71/71/207
f 71/71/208 74/74/209 72/72/210
f 73/73/211 74/74/212 71/71/213
f 73/73/214 75/75/215 74/74/216
f 76/76/217 78/78/218 77/77/219
f 76/76/220 77/77/221 79/79/222
f 80/80/223 76/76/224 79/79/225
f 79/79/226 77/77/227 9/81/228
f 80/80/229 79/79/230 81/82/231
f 79/79/232 9/81/233 8/83/234
f 81/82/235 79/79/236 8/83/237
f 81/82/238 8/83/239 7/84/240
f 82/85/241 84/87/242 83/86/243
f 82/85/244 83/86/245 85/88/246
f 86/89/247 82/85/248 85/88/249
f 85/88/250 83/86/251 60/90/252
f 86/89/253 85/88/254 87/91/255
f 85/88/256 60/90/257 59/92/258
f 87/91/259 85/88/260 59/92/261
f 87/91/262 59/92/263 58/93/264
f 88/94/265 90/96/266 89/95/267
f 88/94/268 89/95/269 91/97/270
f 92/98/271 88/94/272 91/97/273
f 91/97/274 89/95/275 93/99/276
f 92/98/277 91/97/278 94/100/279
f 91/97/280 93/99/281 95/101/282
f 94/100/283 91/97/284 95/101/285
f 94/100/286 95/101/287 96/102/288
f 97/103/289 99/105/290 98/104/291
f 97/103/292 98/104/293 100/106/294
f 100/106/295 98/104/296 101/107/297
f 100/106/298 101/107/299 102/108/300
f 100/106/301 102/108/302 27/109/303
f 100/106/304 27/109/305 26/110/306
f 97/103/307 100/106/308 26/110/309
f 97/103/310 26/110/311 25/111/312
f 33/112/313 32/114/314 103/113/315
f 33/112/316 103/113/317 104/115/318
f 105/116/319 33/112/320 104/115/321
f 105/116/322 34/117/323 33/112/324
f 104/115/325 103/113/326 106/118/327
f 106/118/328 103/113/329 39/119/330
f 106/118/331 39/119/332 37/120/333
f 107/121/334 105/116/335 104/115/336
f 63/122/337 105/116/338 107/121/339
f 63/122/340 107/121/341 62/123/342
f 104/115/343 106/118/344 108/124/345
f 107/121/346 104/115/347 108/124/348
f 109/125/349 106/118/350 37/120/351
f 108/124/352 106/118/353 109/125/354
f 109/125/355 37/120/356 42/126/357
f 62/123/358 107/121/359 110/127/360
f 110/127/361 107/121/362 108/124/363
f 62/123/364 110/127/365 69/128/366
f 108/124/367 109/125/368 111/129/369
f 110/127/370 108/124/371 111/129/372
f 112/130/373 109/125/374 42/126/375
f 111/129/376 109/125/377 112/130/378
f 112/130/379 42/126/380 46/131/381
f 51/132/382 112/130/383 46/131/384
f 51/132/385 113/133/386 112/130/387
f 69/128/388 110/127/389 114/134/390
f 114/134/391 110/127/392 111/129/393
f 69/128/394 114/134/395 73/135/396
f 111/129/397 112/130/398 115/136/399
f 115/136/400 112/130/401 113/133/402
f 114/134/403 111/129/404 115/136/405
f 115/136/406 113/133/407 116/137/408
f 116/137/409 114/134/410 115/136/411
f 116/137/412 113/133/413 12/138/414
f 116/137/415 12/138/416 10/139/417
f 18/140/418 116/137/419 10/139/420
f 18/140/421 117/141/422 116/137/423
f 116/137/424 117/141/425 114/134/426
f 73/135/427 114/134/428 117/141/429
f 73/135/430 117/141/431 75/142/432
f 118/143/433 120/145/434 119/144/435
f 118/143/436 119/144/437 121/146/438
f 122/147/439 118/143/440 121/146/441
f 121/146/442 119/144/443 96/148/444
f 122/147/445 121/146/446 123/149/447
f 121/146/448 96/148/449 95/150/450
f 123/149/451 121/146/452 95/150/453
f 123/149/454 95/150/455 93/151/456
f 124/152/457 126/154/458 125/153/459
f 124/152/460 125/153/461 127/155/462
f 127/155/463 125/153/464 128/156/465
f 129/157/466 124/152/467 127/155/468
f 129/157/469 130/158/470 124/152/471
f 131/159/472 129/157/473 127/155/474
f 127/155/475 128/156/476 132/160/477
f 131/159/478 127/155/479 132/160/480
f 132/160/481 128/156/482 133/161/483
f 134/162/484 131/159/485 132/160/486
f 132/160/487 133/161/488 135/163/489
f 134/162/490 132/160/491 135/163/492
f 135/163/493 133/161/494 136/164/495
f 137/165/496 134/162/497 135/163/498
f 135/163/499 136/164/500 138/166/501
f 137/165/502 135/163/503 138/166/504
f 139/167/505 141/169/506 140/168/507
f 139/167/508 142/170/509 141/169/510
f 143/171/511 145/173/512 144/172/513
f 143/171/514 146/174/515 145/173/516
f 147/175/517 149/177/518 148/176/519
f 147/175/520 150/178/521 149/177/522
f 151/179/523 153/181/524 152/180/525
f 151/179/526 154/182/527 153/181/528
f 155/183/529 18/185/530 3/184/531
f 155/183/532 3/184/533 1/186/534
f 155/183/535 1/186/536 9/187/537
f 155/183/538 9/187/539 77/188/540
f 75/189/541 155/183/542 77/188/543
f 75/189/544 77/188/545 78/190/546
f 18/191/547 2/193/548 3/192/549
f 18/191/550 17/194/551 2/193/552
f 17/194/553 5/195/554 2/193/555
f 17/194/556 16/196/557 5/195/558
f 16/197/559 6/199/560 5/198/561
f 16/197/562 156/200/563 6/199/564
f 6/199/565 156/200/566 81/201/567
f 6/199/568 81/201/569 7/202/570
f 156/200/571 80/203/572 81/201/573
f 156/200/574 72/204/575 80/203/576
f 156/200/577 16/197/578 157/205/579
f 156/200/580 157/205/581 72/204/582
f 158/206/583 157/205/584 16/197/585
f 72/204/586 157/205/587 159/207/588
f 158/206/589 16/197/590 15/208/591
f 72/204/592 159/207/593 70/209/594
f 70/209/595 159/207/596 160/210/597
f 70/209/598 160/210/599 67/211/600
f 67/211/601 160/210/602 161/212/603
f 67/211/604 161/212/605 66/213/606
f 15/208/607 162/214/608 158/206/609
f 66/213/610 161/212/611 163/215/612
f 15/208/613 14/216/614 162/214/615
f 66/213/616 163/215/617 65/217/618
f 49/218/619 162/214/620 14/216/621
f 164/219/622 162/214/623 49/218/624
f 164/219/625 49/218/626 48/220/627
f 165/221/628 164/219/629 48/220/630
f 165/221/631 48/220/632 45/222/633
f 166/223/634 165/221/635 45/222/636
f 166/223/637 45/222/638 43/224/639
f 41/225/640 166/223/641 43/224/642
f 41/225/643 167/226/644 166/223/645
f 49/218/646 14/216/647 168/227/648
f 168/227/649 14/216/650 86/228/651
f 168/227/652 86/228/653 87/229/654
f 168/227/655 87/229/656 58/230/657
f 168/227/658 58/230/659 57/231/660
f 49/218/661 168/227/662 57/231/663
f 49/218/664 57/231/665 56/232/666
f 30/233/667 167/226/668 41/225/669
f 169/234/670 167/226/671 30/233/672
f 169/234/673 30/233/674 28/235/675
f 36/236/676 169/234/677 28/235/678
f 36/236/679 163/215/680 169/234/681
f 65/217/682 163/215/683 36/236/684
f 30/233/685 41/225/686 170/237/687
f 170/237/688 41/225/689 122/238/690
f 170/237/691 122/238/692 123/239/693
f 30/233/694 170/237/695 89/240/696
f 89/240/697 170/237/698 123/239/699
f 30/233/700 89/240/701 90/241/702
f 89/240/703 123/239/704 93/242/705
f 65/217/706 36/236/707 171/243/708
f 171/243/709 36/236/710 21/244/711
f 171/243/712 21/244/713 19/245/714
f 171/243/715 19/245/716 27/246/717
f 171/243/718 27/246/719 102/247/720
f 65/217/721 171/243/722 102/247/723
f 65/217/724 102/247/725 101/248/726
f 36/249/727 20/251/728 21/250/729
f 36/249/730 35/252/731 20/251/732
f 35/252/733 23/253/734 20/251/735
f 35/252/736 34/254/737 23/253/738
f 34/255/739 24/257/740 23/256/741
f 34/255/742 172/258/743 24/257/744
f 24/257/745 172/258/746 97/259/747
f 24/257/748 97/259/749 25/260/750
f 172/258/751 99/261/752 97/259/753
f 172/258/754 63/262/755 99/261/756
f 11/263/757 12/265/758 84/264/759
f 11/263/760 84/264/761 82/266/762
f 14/267/763 11/263/764 82/266/765
f 14/267/766 82/266/767 86/268/768
f 12/269/769 83/271/770 84/270/771
f 12/269/772 173/272/773 83/271/774
f 83/271/775 173/272/776 52/273/777
f 83/271/778 52/273/779 60/274/780
f 173/272/781 54/275/782 52/273/783
f 173/272/784 51/276/785 54/275/786
f 29/277/787 30/279/788 90/278/789
f 29/277/790 90/278/791 88/280/792
f 32/281/793 29/277/794 88/280/795
f 32/281/796 88/280/797 92/282/798
f 174/283/799 32/285/800 92/284/801
f 174/283/802 92/284/803 94/286/804
f 174/283/805 94/286/806 96/287/807
f 174/283/808 96/287/809 119/288/810
f 39/289/811 174/283/812 119/288/813
f 39/289/814 119/288/815 120/290/816
f 51/291/817 53/293/818 54/292/819
f 51/291/820 50/294/821 53/293/822
f 50/294/823 56/295/824 53/293/825
f 50/294/826 49/296/827 56/295/828
f 74/297/829 75/299/830 78/298/831
f 74/297/832 78/298/833 76/300/834
f 72/301/835 74/297/836 76/300/837
f 72/301/838 76/300/839 80/302/840
f 61/303/841 65/305/842 101/304/843
f 61/303/844 101/304/845 98/306/846
f 63/307/847 61/303/848 98/306/849
f 63/307/850 98/306/851 99/308/852
f 38/309/853 39/311/854 120/310/855
f 38/309/856 120/310/857 118/312/858
f 41/313/859 38/309/860 118/312/861
f 41/313/862 118/312/863 122/314/864
f 18/315/865 155/317/866 175/316/867
f 18/315/868 175/316/869 176/318/870
f 176/318/871 175/316/872 142/319/873
f 176/318/874 142/319/875 139/320/876
f 155/321/877 75/323/878 177/322/879
f 155/321/880 177/322/881 175/324/882
f 175/324/883 177/322/884 141/325/885
f 175/324/886 141/325/887 142/326/888
f 75/327/889 117/329/890 178/328/891
f 75/327/892 178/328/893 177/330/894
f 177/330/895 178/328/896 140/331/897
f 177/330/898 140/331/899 141/332/900
f 117/333/901 18/335/902 176/334/903
f 117/333/904 176/334/905 178/336/906
f 178/336/907 176/334/908 139/337/909
f 178/336/910 139/337/911 140/338/912
f 173/339/913 12/341/914 179/340/915
f 173/339/916 179/340/917 180/342/918
f 180/342/919 179/340/920 146/343/921
f 180/342/922 146/343/923 143/344/924
f 12/345/925 113/347/926 181/346/927
f 12/345/928 181/346/929 179/348/930
f 179/348/931 181/346/932 145/349/933
f 179/348/934 145/349/935 146/350/936
f 113/351/937 51/353/938 182/352/939
f 113/351/940 182/352/941 181/354/942
f 181/354/943 182/352/944 144/355/945
f 181/354/946 144/355/947 145/356/948
f 51/357/949 173/359/950 180/358/951
f 51/357/952 180/358/953 182/360/954
f 182/360/955 180/358/956 143/361/957
f 182/360/958 143/361/959 144/362/960
f 39/363/961 103/365/962 183/364/963
f 39/363/964 183/364/965 184/366/966
f 184/366/967 183/364/968 150/367/969
f 184/366/970 150/367/971 147/368/972
f 103/369/973 32/371/974 185/370/975
f 103/369/976 185/370/977 183/372/978
f 183/372/979 185/370/980 149/373/981
f 183/372/982 149/373/983 150/374/984
f 32/375/985 174/377/986 186/376/987
f 32/375/988 186/376/989 185/378/990
f 185/378/991 186/376/992 148/379/993
f 185/378/994 148/379/995 149/380/996
f 174/381/997 39/383/998 184/382/999
f 174/381/1000 184/382/1001 186/384/1002
f 186/384/1003 184/382/1004 147/385/1005
f 186/384/1006 147/385/1007 148/386/1008
f 34/387/1009 105/389/1010 187/388/1011
f 34/387/1012 187/388/1013 188/390/1014
f 188/390/1015 187/388/1016 154/391/1017
f 188/390/1018 154/391/1019 151/392/1020
f 105/393/1021 63/395/1022 189/394/1023
f 105/393/1024 189/394/1025 187/396/1026
f 187/396/1027 189/394/1028 153/397/1029
f 187/396/1030 153/397/1031 154/398/1032
f 63/399/1033 172/401/1034 190/400/1035
f 63/399/1036 190/400/1037 189/402/1038
f 189/402/1039 190/400/1040 152/403/1041
f 189/402/1042 152/403/1043 153/404/1044
f 172/405/1045 34/407/1046 188/406/1047
f 172/405/1048 188/406/1049 190/408/1050
f 190/408/1051 188/406/1052 151/409/1053
f 190/408/1054 151/409/1055 152/410/1056
f 166/411/1057 167/413/1058 136/412/1059
f 166/411/1060 136/412/1061 133/414/1062
f 165/415/1063 166/411/1064 133/414/1065
f 165/415/1066 133/414/1067 128/416/1068
f 164/417/1069 165/415/1070 128/416/1071
f 164/417/1072 128/416/1073 125/418/1074
f 162/419/1075 164/417/1076 125/418/1077
f 162/419/1078 125/418/1079 126/420/1080
f 167/421/1081 138/423/1082 136/422/1083
f 167/421/1084 169/424/1085 138/423/1086
f 169/424/1087 137/425/1088 138/423/1089
f 169/424/1090 163/426/1091 137/425/1092
f 163/427/1093 134/429/1094 137/428/1095
f 163/427/1096 161/430/1097 134/429/1098
f 161/430/1099 131/431/1100 134/429/1101
f 161/430/1102 160/432/1103 131/431/1104
f 160/432/1105 129/433/1106 131/431/1107
f 160/432/1108 159/434/1109 129/433/1110
f 159/434/1111 130/435/1112 129/433/1113
f 159/434/1114 157/436/1115 130/435/1116
f 158/437/1117 162/439/1118 126/438/1119
f 158/437/1120 126/438/1121 124/440/1122
f 157/441/1123 158/437/1124 124/440/1125
f 157/441/1126 124/440/1127 130/442/1128
g default
v 352.312321 35.571827 573.139698
v 351.574917 35.945450 573.139698
v 352.312321 35.945450 573.804393
v 447.808156 35.945450 573.139698
v 447.070741 35.571827 573.139698
v 447.070741 35.945450 573.804393
v 351.574917 72.564241 573.139698
v 352.312321 72.937861 573.139698
v 352.312321 72.564241 573.804393
v 447.070741 72.937861 573.139698
v 447.808156 72.564241 573.139698
v 447.070741 72.564241 573.804393
v 351.574917 72.564241 381.333612
v 352.312321 72.564241 380.668914
v 352.312321 72.937861 381.333612
v 447.070741 72.564241 380.668914
v 447.808156 72.564241 381.333612
v 447.070741 72.937861 381.333612
v 351.574917 35.945450 381.333612
v 352.312321 35.571827 381.333612
v 352.312321 35.945450 380.668914
v 447.070741 35.571827 381.333612
v 447.808156 35.945450 381.333612
v 447.070741 35.945450 380.668914
vt 0.001874 0.003700
vt 0.004355 0.003700
vt 0.004355 0.001992
vt 0.510655 0.496415
vt 0.508175 0.496415
vt 0.510655 0.498122
vt 0.247459 0.003700
vt 0.249939 0.003700
vt 0.247459 0.001992
vt 0.756240 0.496415
vt 0.753760 0.496415
vt 0.753760 0.498122
vt 0.247459 0.496415
vt 0.247459 0.498122
vt 0.249939 0.496415
vt 0.753760 0.001992
vt 0.753760 0.003700
vt 0.756240 0.003700
vt 0.004355 0.496415
vt 0.001874 0.496415
vt 0.004355 0.498122
vt 0.508175 0.003700
vt 0.510655 0.003700
vt 0.510655 0.001992
vt 0.001874 0.003700
vt 0.001874 0.496415
vt 0.004355 0.496415
vt 0.004355 0.003700
vt 0.256950 0.498122
vt 0.501213 0.498122
vt 0.501213 0.496415
vt 0.256950 0.496415
vt 0.004355 0.003700
vt 0.247459 0.003700
vt 0.247459 0.001992
vt 0.004355 0.001992
vt 0.510655 0.496415
vt 0.510655 0.003700
vt 0.508175 0.003700
vt 0.508175 0.496415
vt 0.510655 0.498122
vt 0.753760 0.498122
vt 0.753760 0.496415
vt 0.510655 0.496415
vt 0.247459 0.003700
vt 0.247459 0.496415
vt 0.249939 0.496415
vt 0.249939 0.003700
vt 0.694756 0.503585
vt 0.939020 0.503585
vt 0.939020 0.501878
vt 0.694756 0.501878
vt 0.756240 0.496415
vt 0.756240 0.003700
vt 0.753760 0.003700
vt 0.753760 0.496415
vt 0.247459 0.496415
vt 0.004355 0.496415
vt 0.004355 0.498122
vt 0.247459 0.498122
vt 0.694756 0.998008
vt 0.939020 0.998008
vt 0.939020 0.996300
vt 0.694756 0.996300
vt 0.753760 0.001992
vt 0.510655 0.001992
vt 0.510655 0.003700
vt 0.753760 0.003700
vt 0.256950 0.003700
vt 0.501213 0.003700
vt 0.501213 0.001992
vt 0.256950 0.001992
vt 0.445879 0.746141
vt 0.688984 0.746141
vt 0.688984 0.501878
vt 0.445879 0.501878
vt 0.694756 0.503585
vt 0.694756 0.996300
vt 0.939020 0.996300
vt 0.939020 0.503585
vt 0.197002 0.746141
vt 0.440107 0.746141
vt 0.440107 0.501878
vt 0.197002 0.501878
vt 0.256950 0.003700
vt 0.256950 0.496415
vt 0.501213 0.496415
vt 0.501213 0.003700
vt 0.510655 0.496415
vt 0.753760 0.496415
vt 0.753760 0.003700
vt 0.510655 0.003700
vt 0.004355 0.496415
vt 0.247459 0.496415
vt 0.247459 0.003700
vt 0.004355 0.003700
vn -0.404022 -0.797413 0.448218
vn -0.404022 -0.797413 0.448218
vn -0.404022 -0.797413 0.448218
vn 0.404022 -0.797413 0.448218
vn 0.404022 -0.797413 0.448218
vn 0.404022 -0.797413 0.448218
vn -0.404022 0.797413 0.448218
vn -0.404022 0.797413 0.448218
vn -0.404022 0.797413 0.448218
vn 0.404022 0.797413 0.448218
vn 0.404022 0.797413 0.448218
vn 0.404022 0.797413 0.448218
vn -0.404022 0.797413 -0.448218
vn -0.404022 0.797413 -0.448218
vn -0.404022 0.797413 -0.448218
vn 0.404022 0.797413 -0.448218
vn 0.404022 0.797413 -0.448218
vn 0.404022 0.797413 -0.448218
vn -0.404022 -0.797413 -0.448218
vn -0.404022 -0.797413 -0.448218
vn -0.404022 -0.797413 -0.448218
vn 0.404022 -0.797413 -0.448218
vn 0.404022 -0.797413 -0.448218
vn 0.404022 -0.797413 -0.448218
vn -0.451968 -0.892034 0.000000
vn -0.451968 -0.892034 0.000000
vn -0.451968 -0.892034 0.000000
vn -0.451968 -0.892034 0.000000
vn -0.451968 -0.892034 0.000000
vn -0.451968 -0.892034 0.000000
vn 0.000000 -0.871727 0.489992
vn 0.000000 -0.871727 0.489992
vn 0.000000 -0.871727 0.489992
vn 0.000000 -0.871727 0.489992
vn 0.000000 -0.871727 0.489992
vn 0.000000 -0.871727 0.489992
vn -0.669541 0.000000 0.742775
vn -0.669541 0.000000 0.742775
vn -0.669541 0.000000 0.742775
vn -0.669541 0.000000 0.742775
vn -0.669541 0.000000 0.742775
vn -0.669541 0.000000 0.742775
vn 0.451968 -0.892034 0.000000
vn 0.451968 -0.892034 0.000000
vn 0.451968 -0.892034 0.000000
vn 0.451968 -0.892034 0.000000
vn 0.451968 -0.892034 0.000000
vn 0.451968 -0.892034 0.000000
vn 0.669541 0.000000 0.742775
vn 0.669541 0.000000 0.742775
vn 0.669541 0.000000 0.742775
vn 0.669541 0.000000 0.742775
vn 0.669541 0.000000 0.742775
vn 0.669541 0.000000 0.742775
vn -0.451966 0.892035 0.000000
vn -0.451966 0.892035 0.000000
vn -0.451966 0.892035 0.000000
vn -0.451966 0.892035 0.000000
vn -0.451966 0.892035 0.000000
vn -0.451966 0.892035 0.000000
vn -0.000000 0.871728 0.489990
vn -0.000000 0.871728 0.489990
vn -0.000000 0.871728 0.489990
vn -0.000000 0.871728 0.489990
vn -0.000000 0.871728 0.489990
vn -0.000000 0.871728 0.489990
vn 0.451966 0.892035 0.000000
vn 0.451966 0.892035 0.000000
vn 0.451966 0.892035 0.000000
vn 0.451966 0.892035 0.000000
vn 0.451966 0.892035 0.000000
vn 0.451966 0.892035 0.000000
vn -0.669541 0.000000 -0.742775
vn -0.669541 0.000000 -0.742775
vn -0.669541 0.000000 -0.742775
vn -0.669541 0.000000 -0.742775
vn -0.669541 0.000000 -0.742775
vn -0.669541 0.000000 -0.742775
vn -0.000000 0.871728 -0.489990
vn -0.000000 0.871728 -0.489990
vn -0.000000 0.871728 -0.489990
vn -0.000000 0.871728 -0.489990
vn -0.000000 0.871728 -0.489990
vn -0.000000 0.871728 -0.489990
vn 0.669541 0.000000 -0.742775
vn 0.669541 0.000000 -0.742775
vn 0.669541 0.000000 -0.742775
vn 0.669541 0.000000 -0.742775
vn 0.669541 0.000000 -0.742775
vn 0.669541 0.000000 -0.742775
vn 0.000000 -0.871727 -0.489992
vn 0.000000 -0.871727 -0.489992
vn 0.000000 -0.871727 -0.489992
vn 0.000000 -0.871727 -0.489992
vn 0.000000 -0.871727 -0.489992
vn 0.000000 -0.871727 -0.489992
vn 0.000000 0.000000 1.000000
vn 0.000000 0.000000 1.000000
vn 0.000000 0.000000 1.000000
vn 0.000000 0.000000 1.000000
vn 0.000000 0.000000 1.000000
vn 0.000000 0.000000 1.000000
vn -0.000000 1.000000 0.000000
vn -0.000000 1.000000 0.000000
vn -0.000000 1.000000 0.000000
vn -0.000000 1.000000 0.000000
vn -0.000000 1.000000 0.000000
vn -0.000000 1.000000 0.000000
vn 0.000000 0.000000 -1.000000
vn 0.000000 0.000000 -1.000000
vn 0.000000 0.000000 -1.000000
vn 0.000000 0.000000 -1.000000
vn 0.000000 0.000000 -1.000000
vn 0.000000 0.000000 -1.000000
vn 0.000000 -1.000000 0.000000
vn 0.000000 -1.000000 0.000000
vn 0.000000 -1.000000 0.000000
vn 0.000000 -1.000000 0.000000
vn 0.000000 -1.000000 0.000000
vn 0.000000 -1.000000 0.000000
vn 1.000000 0.000000 0.000000
vn 1.000000 0.000000 0.000000
vn 1.000000 0.000000 0.000000
vn 1.000000 0.000000 0.000000
vn 1.000000 0.000000 0.000000
vn 1.000000 0.000000 0.000000
vn -1.000000 0.000000 0.000000
vn -1.000000 0.000000 0.000000
vn -1.000000 0.000000 0.000000
vn -1.000000 0.000000 0.000000
vn -1.000000 0.000000 0.000000
vn -1.000000 0.000000 0.000000
s off
g plastic_planter_box group pCube91
usemtl pCube91SG
f 191/443/1129 193/445/1130 192/444/1131
f 194/446/1132 196/448/1133 195/447/1134
f 197/449/1135 199/451/1136 198/450/1137
f 200/452/1138 202/454/1139 201/453/1140
f 203/455/1141 205/457/1142 204/456/1143
f 206/458/1144 208/460/1145 207/459/1146
f 209/461/1147 211/463/1148 210/462/1149
f 212/464/1150 214/466/1151 213/465/1152
f 191/467/1153 209/469/1154 210/468/1155
f 191/467/1156 192/470/1157 209/469/1158
f 193/471/1159 195/473/1160 196/472/1161
f 193/471/1162 191/474/1163 195/473/1164
f 192/475/1165 199/477/1166 197/476/1167
f 192/475/1168 193/478/1169 199/477/1170
f 194/479/1171 212/481/1172 213/480/1173
f 194/479/1174 195/482/1175 212/481/1176
f 196/483/1177 201/485/1178 202/484/1179
f 196/483/1180 194/486/1181 201/485/1182
f 197/487/1183 205/489/1184 203/488/1185
f 197/487/1186 198/490/1187 205/489/1188
f 198/491/1189 202/493/1190 200/492/1191
f 198/491/1192 199/494/1193 202/493/1194
f 200/495/1195 207/497/1196 208/496/1197
f 200/495/1198 201/498/1199 207/497/1200
f 203/499/1201 211/501/1202 209/500/1203
f 203/499/1204 204/502/1205 211/501/1206
f 204/503/1207 208/505/1208 206/504/1209
f 204/503/1210 205/506/1211 208/505/1212
f 206/507/1213 213/509/1214 214/508/1215
f 206/507/1216 207/510/1217 213/509/1218
f 210/511/1219 214/513/1220 212/512/1221
f 210/511/1222 211/514/1223 214/513/1224
f 193/515/1225 202/517/1226 199/516/1227
f 193/515/1228 196/518/1229 202/517/1230
f 198/519/1231 208/521/1232 205/520/1233
f 198/519/1234 200/522/1235 208/521/1236
f 204/523/1237 214/525/1238 211/524/1239
f 204/523/1240 206/526/1241 214/525/1242
f 210/527/1243 195/529/1244 191/528/1245
f 210/527/1246 212/530/1247 195/529/1248
f 194/531/1249 207/533/1250 201/532/1251
f 194/531/1252 213/534/1253 207/533/1254
f 209/535/1255 197/537/1256 203/536/1257
f 209/535/1258 192/538/1259 197/537/1260
