# This file uses centimeters as units for non-parametric coordinates.

mtllib shop_stand.mtl
g default
v -152.478786 -1.376707 -465.553632
v -152.478786 155.046416 -465.553653
v -109.047462 155.046416 -465.553653
v -109.047462 -1.376707 -465.553632
v -152.478786 155.046416 -508.984977
v -109.047462 155.046416 -508.984977
v -152.478786 -1.376707 -508.984956
v -109.047462 -1.376707 -508.984956
vt 0.375000 0.000000
vt 0.375000 0.250000
vt 0.625000 0.250000
vt 0.625000 0.000000
vt 0.375000 0.250000
vt 0.375000 0.500000
vt 0.625000 0.500000
vt 0.625000 0.250000
vt 0.375000 0.500000
vt 0.375000 0.750000
vt 0.625000 0.750000
vt 0.625000 0.500000
vt 0.375000 0.750000
vt 0.375000 1.000000
vt 0.625000 1.000000
vt 0.625000 0.750000
vt 0.625000 0.000000
vt 0.625000 0.250000
vt 0.875000 0.250000
vt 0.875000 0.000000
vt 0.125000 0.000000
vt 0.125000 0.250000
vt 0.375000 0.250000
vt 0.375000 0.000000
vn 0.000000 0.000000 1.000000
vn 0.000000 0.000000 1.000000
vn 0.000000 0.000000 1.000000
vn 0.000000 0.000000 1.000000
vn 0.000000 0.000000 1.000000
vn 0.000000 0.000000 1.000000
vn 0.000000 1.000000 0.000000
vn 0.000000 1.000000 0.000000
vn 0.000000 1.000000 0.000000
vn 0.000000 1.000000 0.000000
vn 0.000000 1.000000 0.000000
vn 0.000000 1.000000 0.000000
vn 0.000000 -0.000000 -1.000000
vn 0.000000 -0.000000 -1.000000
vn 0.000000 -0.000000 -1.000000
vn 0.000000 -0.000000 -1.000000
vn 0.000000 -0.000000 -1.000000
vn 0.000000 -0.000000 -1.000000
vn 0.000000 -1.000000 0.000000
vn 0.000000 -1.000000 0.000000
vn 0.000000 -1.000000 0.000000
vn 0.000000 -1.000000 0.000000
vn 0.000000 -1.000000 0.000000
vn 0.000000 -1.000000 0.000000
vn 1.000000 0.000000 0.000000
vn 1.000000 0.000000 0.000000
vn 1.000000 0.000000 0.000000
vn 1.000000 0.000000 0.000000
vn 1.000000 0.000000 0.000000
vn 1.000000 0.000000 0.000000
vn -1.000000 0.000000 0.000000
vn -1.000000 0.000000 0.000000
vn -1.000000 0.000000 0.000000
vn -1.000000 0.000000 0.000000
vn -1.000000 0.000000 0.000000
vn -1.000000 0.000000 0.000000
s off
g pCube2 ground_support shop group43
usemtl pCube2SG
f 1/1/1 3/3/2 2/2/3
f 1/1/4 4/4/5 3/3/6
f 2/5/7 6/7/8 5/6/9
f 2/5/10 3/8/11 6/7/12
f 5/9/13 8/11/14 7/10/15
f 5/9/16 6/12/17 8/11/18
f 7/13/19 4/15/20 1/14/21
f 7/13/22 8/16/23 4/15/24
f 4/17/25 6/19/26 3/18/27
f 4/17/28 8/20/29 6/19/30
f 7/21/31 2/23/32 5/22/33
f 7/21/34 1/24/35 2/23/36
g default
v -201.084156 482.176675 -296.340690
v -201.084156 496.971584 -301.091543
v 201.084156 496.971584 -301.091543
v 201.084156 482.176675 -296.340690
v -201.084156 420.524666 -539.159393
v 201.084156 420.524666 -539.159393
v -201.084156 405.729757 -534.408540
v 201.084156 405.729757 -534.408540
vt 0.375000 0.000000
vt 0.375000 0.250000
vt 0.625000 0.250000
vt 0.625000 0.000000
vt 0.375000 0.250000
vt 0.375000 0.500000
vt 0.625000 0.500000
vt 0.625000 0.250000
vt 0.375000 0.500000
vt 0.375000 0.750000
vt 0.625000 0.750000
vt 0.625000 0.500000
vt 0.375000 0.750000
vt 0.375000 1.000000
vt 0.625000 1.000000
vt 0.625000 0.750000
vt 0.625000 0.000000
vt 0.625000 0.250000
vt 0.875000 0.250000
vt 0.875000 0.000000
vt 0.125000 0.000000
vt 0.125000 0.250000
vt 0.375000 0.250000
vt 0.375000 0.000000
vn 0.000000 0.305738 0.952116
vn 0.000000 0.305738 0.952116
vn 0.000000 0.305738 0.952116
vn 0.000000 0.305738 0.952116
vn 0.000000 0.305738 0.952116
vn 0.000000 0.305738 0.952116
vn 0.000000 0.952116 -0.305738
vn 0.000000 0.952116 -0.305738
vn 0.000000 0.952116 -0.305738
vn 0.000000 0.952116 -0.305738
vn 0.000000 0.952116 -0.305738
vn 0.000000 0.952116 -0.305738
vn 0.000000 -0.305738 -0.952116
vn 0.000000 -0.305738 -0.952116
vn 0.000000 -0.305738 -0.952116
vn 0.000000 -0.305738 -0.952116
vn 0.000000 -0.305738 -0.952116
vn 0.000000 -0.305738 -0.952116
vn 0.000000 -0.952116 0.305738
vn 0.000000 -0.952116 0.305738
vn 0.000000 -0.952116 0.305738
vn 0.000000 -0.952116 0.305738
vn 0.000000 -0.952116 0.305738
vn 0.000000 -0.952116 0.305738
vn 1.000000 0.000000 0.000000
vn 1.000000 0.000000 0.000000
vn 1.000000 0.000000 0.000000
vn 1.000000 0.000000 0.000000
vn 1.000000 0.000000 0.000000
vn 1.000000 0.000000 0.000000
vn -1.000000 0.000000 0.000000
vn -1.000000 0.000000 0.000000
vn -1.000000 0.000000 0.000000
vn -1.000000 0.000000 0.000000
vn -1.000000 0.000000 0.000000
vn -1.000000 0.000000 0.000000
s off
g shop group43 roof1
usemtl pCube2SG
f 9/25/37 11/27/38 10/26/39
f 9/25/40 12/28/41 11/27/42
f 10/29/43 14/31/44 13/30/45
f 10/29/46 11/32/47 14/31/48
f 13/33/49 16/35/50 15/34/51
f 13/33/52 14/36/53 16/35/54
f 15/37/55 12/39/56 9/38/57
f 15/37/58 16/40/59 12/39/60
f 12/41/61 14/43/62 11/42/63
f 12/41/64 16/44/65 14/43/66
f 15/45/67 10/47/68 13/46/69
f 15/45/70 9/48/71 10/47/72
g default
v -141.256681 173.106398 -477.647088
v -141.256681 423.852353 -477.647107
v -121.480419 423.852353 -477.647107
v -121.480419 173.106398 -477.647088
v -141.256681 417.600388 -497.423368
v -121.480419 417.600388 -497.423368
v -141.256681 173.106398 -497.423350
v -121.480419 173.106398 -497.423350
vt 0.375000 0.000000
vt 0.375000 0.250000
vt 0.625000 0.250000
vt 0.625000 0.000000
vt 0.375000 0.250000
vt 0.375000 0.500000
vt 0.625000 0.500000
vt 0.625000 0.250000
vt 0.375000 0.500000
vt 0.375000 0.750000
vt 0.625000 0.750000
vt 0.625000 0.500000
vt 0.375000 0.750000
vt 0.375000 1.000000
vt 0.625000 1.000000
vt 0.625000 0.750000
vt 0.625000 0.000000
vt 0.625000 0.250000
vt 0.875000 0.250000
vt 0.875000 0.000000
vt 0.125000 0.000000
vt 0.125000 0.250000
vt 0.375000 0.250000
vt 0.375000 0.000000
vn 0.000000 0.000000 1.000000
vn 0.000000 0.000000 1.000000
vn 0.000000 0.000000 1.000000
vn 0.000000 0.000000 1.000000
vn 0.000000 0.000000 1.000000
vn 0.000000 0.000000 1.000000
vn 0.000000 0.953488 -0.301430
vn 0.000000 0.953488 -0.301430
vn 0.000000 0.953488 -0.301430
vn 0.000000 0.953488 -0.301430
vn 0.000000 0.953488 -0.301430
vn 0.000000 0.953488 -0.301430
vn 0.000000 -0.000000 -1.000000
vn 0.000000 -0.000000 -1.000000
vn 0.000000 -0.000000 -1.000000
vn 0.000000 -0.000000 -1.000000
vn 0.000000 -0.000000 -1.000000
vn 0.000000 -0.000000 -1.000000
vn 0.000000 -1.000000 0.000000
vn 0.000000 -1.000000 0.000000
vn 0.000000 -1.000000 0.000000
vn 0.000000 -1.000000 0.000000
vn 0.000000 -1.000000 0.000000
vn 0.000000 -1.000000 0.000000
vn 1.000000 0.000000 0.000000
vn 1.000000 0.000000 0.000000
vn 1.000000 0.000000 0.000000
vn 1.000000 0.000000 0.000000
vn 1.000000 0.000000 0.000000
vn 1.000000 0.000000 0.000000
vn -1.000000 0.000000 0.000000
vn -1.000000 0.000000 0.000000
vn -1.000000 0.000000 0.000000
vn -1.000000 0.000000 0.000000
vn -1.000000 0.000000 0.000000
vn -1.000000 0.000000 0.000000
s off
g shop group43 pCube7 roof_support
usemtl pCube2SG
f 17/49/73 19/51/74 18/50/75
f 17/49/76 20/52/77 19/51/78
f 18/53/79 22/55/80 21/54/81
f 18/53/82 19/56/83 22/55/84
f 21/57/85 24/59/86 23/58/87
f 21/57/88 22/60/89 24/59/90
f 23/61/91 20/63/92 17/62/93
f 23/61/94 24/64/95 20/63/96
f 20/65/97 22/67/98 19/66/99
f 20/65/100 24/68/101 22/67/102
f 23/69/103 18/71/104 21/70/105
f 23/69/106 17/72/107 18/71/108
g default
v -163.114769 -0.344137 -317.479243
v -163.114769 23.203499 -317.479243
v 163.114769 23.203499 -317.479243
v 163.114769 -0.344137 -317.479243
v -163.114769 23.203499 -520.928737
v -163.114769 -0.344137 -520.928737
v 163.114769 -0.344137 -520.928737
v 163.114769 23.203499 -520.928737
v -163.114769 140.941681 -520.928737
v -163.114769 164.489339 -520.928737
v -163.114769 164.489339 -317.479243
v -163.114769 140.941681 -317.479243
v 163.114769 140.941681 -520.928737
v 163.114769 164.489339 -520.928737
v 163.114769 140.941681 -317.479243
v 163.114769 164.489339 -317.479243
v -163.114769 93.846415 -520.928737
v -163.114769 117.394053 -520.928737
v -163.114769 117.394053 -317.479243
v -163.114769 93.846415 -317.479243
v 163.114769 93.846415 -520.928737
v 163.114769 117.394053 -520.928737
v 163.114769 93.846415 -317.479243
v 163.114769 117.394053 -317.479243
v -163.114769 46.751139 -520.928737
v -163.114769 70.298782 -520.928737
v -163.114769 70.298782 -317.479243
v -163.114769 46.751139 -317.479243
v 163.114769 46.751139 -520.928737
v 163.114769 70.298782 -520.928737
v 163.114769 46.751139 -317.479243
v 163.114769 70.298782 -317.479243
v -152.256955 -0.344137 -330.259264
v 152.256955 -0.344137 -330.259264
v 152.256955 23.203499 -330.259264
v -152.256955 23.203499 -330.259264
v -152.256955 23.203499 -508.148715
v 152.256955 23.203499 -508.148715
v 152.256955 -0.344137 -508.148715
v -152.256955 -0.344137 -508.148715
v -152.256955 140.941681 -508.148715
v -152.256955 140.941681 -330.259264
v -152.256955 164.489339 -330.259264
v -152.256955 164.489339 -508.148715
v 152.256955 164.489339 -508.148715
v 152.256955 140.941681 -508.148715
v 152.256955 140.941681 -330.259264
v 152.256955 164.489339 -330.259264
v -152.256955 93.846415 -508.148715
v -152.256955 93.846415 -330.259264
v -152.256955 117.394053 -330.259264
v -152.256955 117.394053 -508.148715
v 152.256955 117.394053 -508.148715
v 152.256955 93.846415 -508.148715
v 152.256955 93.846415 -330.259264
v 152.256955 117.394053 -330.259264
v -152.256955 46.751139 -508.148715
v -152.256955 46.751139 -330.259264
v -152.256955 70.298782 -330.259264
v -152.256955 70.298782 -508.148715
v 152.256955 70.298782 -508.148715
v 152.256955 46.751139 -508.148715
v 152.256955 46.751139 -330.259264
v 152.256955 70.298782 -330.259264
vt 0.375000 0.000000
vt 0.375000 0.035714
vt 0.625000 0.035714
vt 0.625000 0.000000
vt 0.375000 0.714286
vt 0.375000 0.750000
vt 0.625000 0.750000
vt 0.625000 0.714286
vt 0.625000 0.000000
vt 0.625000 0.035714
vt 0.875000 0.035714
vt 0.875000 0.000000
vt 0.125000 0.000000
vt 0.125000 0.035714
vt 0.375000 0.035714
vt 0.375000 0.000000
vt 0.125000 0.214286
vt 0.125000 0.250000
vt 0.375000 0.250000
vt 0.375000 0.214286
vt 0.375000 0.500000
vt 0.375000 0.535714
vt 0.625000 0.535714
vt 0.625000 0.500000
vt 0.625000 0.214286
vt 0.625000 0.250000
vt 0.875000 0.250000
vt 0.875000 0.214286
vt 0.375000 0.214286
vt 0.375000 0.250000
vt 0.625000 0.250000
vt 0.625000 0.214286
vt 0.125000 0.142857
vt 0.125000 0.178571
vt 0.375000 0.178571
vt 0.375000 0.142857
vt 0.375000 0.571429
vt 0.375000 0.607143
vt 0.625000 0.607143
vt 0.625000 0.571429
vt 0.625000 0.142857
vt 0.625000 0.178571
vt 0.875000 0.178571
vt 0.875000 0.142857
vt 0.375000 0.142857
vt 0.375000 0.178571
vt 0.625000 0.178571
vt 0.625000 0.142857
vt 0.125000 0.071429
vt 0.125000 0.107143
vt 0.375000 0.107143
vt 0.375000 0.071429
vt 0.375000 0.642857
vt 0.375000 0.678571
vt 0.625000 0.678571
vt 0.625000 0.642857
vt 0.625000 0.071429
vt 0.625000 0.107143
vt 0.875000 0.107143
vt 0.875000 0.071429
vt 0.375000 0.071429
vt 0.375000 0.107143
vt 0.625000 0.107143
vt 0.625000 0.071429
vt 0.375000 0.000000
vt 0.625000 0.000000
vt 0.625000 0.035714
vt 0.375000 0.035714
vt 0.375000 0.714286
vt 0.625000 0.714286
vt 0.625000 0.750000
vt 0.375000 0.750000
vt 0.625000 0.000000
vt 0.875000 0.000000
vt 0.875000 0.035714
vt 0.625000 0.035714
vt 0.125000 0.000000
vt 0.375000 0.000000
vt 0.375000 0.035714
vt 0.125000 0.035714
vt 0.125000 0.214286
vt 0.375000 0.214286
vt 0.375000 0.250000
vt 0.125000 0.250000
vt 0.375000 0.500000
vt 0.625000 0.500000
vt 0.625000 0.535714
vt 0.375000 0.535714
vt 0.625000 0.214286
vt 0.875000 0.214286
vt 0.875000 0.250000
vt 0.625000 0.250000
vt 0.375000 0.214286
vt 0.625000 0.214286
vt 0.625000 0.250000
vt 0.375000 0.250000
vt 0.125000 0.142857
vt 0.375000 0.142857
vt 0.375000 0.178571
vt 0.125000 0.178571
vt 0.375000 0.571429
vt 0.625000 0.571429
vt 0.625000 0.607143
vt 0.375000 0.607143
vt 0.625000 0.142857
vt 0.875000 0.142857
vt 0.875000 0.178571
vt 0.625000 0.178571
vt 0.375000 0.142857
vt 0.625000 0.142857
vt 0.625000 0.178571
vt 0.375000 0.178571
vt 0.125000 0.071429
vt 0.375000 0.071429
vt 0.375000 0.107143
vt 0.125000 0.107143
vt 0.375000 0.642857
vt 0.625000 0.642857
vt 0.625000 0.678571
vt 0.375000 0.678571
vt 0.625000 0.071429
vt 0.875000 0.071429
vt 0.875000 0.107143
vt 0.625000 0.107143
vt 0.375000 0.071429
vt 0.625000 0.071429
vt 0.625000 0.107143
vt 0.375000 0.107143
vt 0.375000 0.714286
vt 0.375000 0.714286
vt 0.625000 0.714286
vt 0.625000 0.714286
vt 0.625000 0.750000
vt 0.625000 0.750000
vt 0.375000 0.750000
vt 0.375000 0.750000
vt 0.625000 0.000000
vt 0.875000 0.000000
vt 0.875000 0.000000
vt 0.625000 0.000000
vt 0.375000 0.000000
vt 0.375000 0.000000
vt 0.125000 0.000000
vt 0.125000 0.000000
vt 0.875000 0.035714
vt 0.875000 0.035714
vt 0.625000 0.035714
vt 0.625000 0.035714
vt 0.375000 0.035714
vt 0.375000 0.035714
vt 0.125000 0.035714
vt 0.125000 0.035714
vt 0.125000 0.214286
vt 0.125000 0.214286
vt 0.375000 0.214286
vt 0.375000 0.214286
vt 0.625000 0.214286
vt 0.625000 0.214286
vt 0.875000 0.214286
vt 0.875000 0.214286
vt 0.375000 0.250000
vt 0.125000 0.250000
vt 0.125000 0.250000
vt 0.375000 0.250000
vt 0.625000 0.250000
vt 0.625000 0.250000
vt 0.875000 0.250000
vt 0.875000 0.250000
vt 0.375000 0.500000
vt 0.375000 0.500000
vt 0.625000 0.500000
vt 0.625000 0.500000
vt 0.625000 0.535714
vt 0.625000 0.535714
vt 0.375000 0.535714
vt 0.375000 0.535714
vt 0.125000 0.142857
vt 0.125000 0.142857
vt 0.375000 0.142857
vt 0.375000 0.142857
vt 0.625000 0.142857
vt 0.625000 0.142857
vt 0.875000 0.142857
vt 0.875000 0.142857
vt 0.375000 0.178571
vt 0.125000 0.178571
vt 0.125000 0.178571
vt 0.375000 0.178571
vt 0.625000 0.178571
vt 0.625000 0.178571
vt 0.875000 0.178571
vt 0.875000 0.178571
vt 0.375000 0.571429
vt 0.375000 0.571429
vt 0.625000 0.571429
vt 0.625000 0.571429
vt 0.625000 0.607143
vt 0.625000 0.607143
vt 0.375000 0.607143
vt 0.375000 0.607143
vt 0.125000 0.071429
vt 0.125000 0.071429
vt 0.375000 0.071429
vt 0.375000 0.071429
vt 0.625000 0.071429
vt 0.625000 0.071429
vt 0.875000 0.071429
vt 0.875000 0.071429
vt 0.375000 0.107143
vt 0.125000 0.107143
vt 0.125000 0.107143
vt 0.375000 0.107143
vt 0.625000 0.107143
vt 0.625000 0.107143
vt 0.875000 0.107143
vt 0.875000 0.107143
vt 0.375000 0.642857
vt 0.375000 0.642857
vt 0.625000 0.642857
vt 0.625000 0.642857
vt 0.625000 0.678571
vt 0.625000 0.678571
vt 0.375000 0.678571
vt 0.375000 0.678571
vn 0.000000 0.000000 1.000000
vn 0.000000 0.000000 1.000000
vn 0.000000 0.000000 1.000000
vn 0.000000 0.000000 1.000000
vn 0.000000 0.000000 1.000000
vn 0.000000 0.000000 1.000000
vn 0.000000 0.000000 -1.000000
vn 0.000000 0.000000 -1.000000
vn 0.000000 0.000000 -1.000000
vn 0.000000 0.000000 -1.000000
vn 0.000000 0.000000 -1.000000
vn 0.000000 0.000000 -1.000000
vn 1.000000 0.000000 0.000000
vn 1.000000 0.000000 0.000000
vn 1.000000 0.000000 0.000000
vn 1.000000 0.000000 0.000000
vn 1.000000 0.000000 0.000000
vn 1.000000 0.000000 0.000000
vn -1.000000 0.000000 0.000000
vn -1.000000 0.000000 0.000000
vn -1.000000 0.000000 0.000000
vn -1.000000 0.000000 0.000000
vn -1.000000 0.000000 0.000000
vn -1.000000 0.000000 0.000000
vn -1.000000 0.000000 0.000000
vn -1.000000 0.000000 0.000000
vn -1.000000 0.000000 0.000000
vn -1.000000 0.000000 0.000000
vn -1.000000 0.000000 0.000000
vn -1.000000 0.000000 0.000000
vn 0.000000 0.000000 -1.000000
vn 0.000000 0.000000 -1.000000
vn 0.000000 0.000000 -1.000000
vn 0.000000 0.000000 -1.000000
vn 0.000000 0.000000 -1.000000
vn 0.000000 0.000000 -1.000000
vn 1.000000 0.000000 0.000000
vn 1.000000 0.000000 0.000000
vn 1.000000 0.000000 0.000000
vn 1.000000 0.000000 0.000000
vn 1.000000 0.000000 0.000000
vn 1.000000 0.000000 0.000000
vn 0.000000 0.000000 1.000000
vn 0.000000 0.000000 1.000000
vn 0.000000 0.000000 1.000000
vn 0.000000 0.000000 1.000000
vn 0.000000 0.000000 1.000000
vn 0.000000 0.000000 1.000000
vn -1.000000 0.000000 0.000000
vn -1.000000 0.000000 0.000000
vn -1.000000 0.000000 0.000000
vn -1.000000 0.000000 0.000000
vn -1.000000 0.000000 0.000000
vn -1.000000 0.000000 0.000000
vn 0.000000 0.000000 -1.000000
vn 0.000000 0.000000 -1.000000
vn 0.000000 0.000000 -1.000000
vn 0.000000 0.000000 -1.000000
vn 0.000000 0.000000 -1.000000
vn 0.000000 0.000000 -1.000000
vn 1.000000 0.000000 0.000000
vn 1.000000 0.000000 0.000000
vn 1.000000 0.000000 0.000000
vn 1.000000 0.000000 0.000000
vn 1.000000 0.000000 0.000000
vn 1.000000 0.000000 0.000000
vn 0.000000 0.000000 1.000000
vn 0.000000 0.000000 1.000000
vn 0.000000 0.000000 1.000000
vn 0.000000 0.000000 1.000000
vn 0.000000 0.000000 1.000000
vn 0.000000 0.000000 1.000000
vn -1.000000 0.000000 0.000000
vn -1.000000 0.000000 0.000000
vn -1.000000 0.000000 0.000000
vn -1.000000 0.000000 0.000000
vn -1.000000 0.000000 0.000000
vn -1.000000 0.000000 0.000000
vn 0.000000 0.000000 -1.000000
vn 0.000000 0.000000 -1.000000
vn 0.000000 0.000000 -1.000000
vn 0.000000 0.000000 -1.000000
vn 0.000000 0.000000 -1.000000
vn 0.000000 0.000000 -1.000000
vn 1.000000 0.000000 0.000000
vn 1.000000 0.000000 0.000000
vn 1.000000 0.000000 0.000000
vn 1.000000 0.000000 0.000000
vn 1.000000 0.000000 0.000000
vn 1.000000 0.000000 0.000000
vn 0.000000 0.000000 1.000000
vn 0.000000 0.000000 1.000000
vn 0.000000 0.000000 1.000000
vn 0.000000 0.000000 1.000000
vn 0.000000 0.000000 1.000000
vn 0.000000 0.000000 1.000000
vn 0.000000 0.000000 -1.000000
vn 0.000000 0.000000 -1.000000
vn 0.000000 0.000000 -1.000000
vn 0.000000 0.000000 -1.000000
vn 0.000000 0.000000 -1.000000
vn 0.000000 0.000000 -1.000000
vn 0.000000 0.000000 1.000000
vn 0.000000 0.000000 1.000000
vn 0.000000 0.000000 1.000000
vn 0.000000 0.000000 1.000000
vn 0.000000 0.000000 1.000000
vn 0.000000 0.000000 1.000000
vn -1.000000 0.000000 0.000000
vn -1.000000 0.000000 0.000000
vn -1.000000 0.000000 0.000000
vn -1.000000 0.000000 0.000000
vn -1.000000 0.000000 0.000000
vn -1.000000 0.000000 0.000000
vn 1.000000 0.000000 0.000000
vn 1.000000 0.000000 0.000000
vn 1.000000 0.000000 0.000000
vn 1.000000 0.000000 0.000000
vn 1.000000 0.000000 0.000000
vn 1.000000 0.000000 0.000000
vn 1.000000 0.000000 0.000000
vn 1.000000 0.000000 0.000000
vn 1.000000 0.000000 0.000000
vn 1.000000 0.000000 0.000000
vn 1.000000 0.000000 0.000000
vn 1.000000 0.000000 0.000000
vn 0.000000 0.000000 1.000000
vn 0.000000 0.000000 1.000000
vn 0.000000 0.000000 1.000000
vn 0.000000 0.000000 1.000000
vn 0.000000 0.000000 1.000000
vn 0.000000 0.000000 1.000000
vn -1.000000 0.000000 0.000000
vn -1.000000 0.000000 0.000000
vn -1.000000 0.000000 0.000000
vn -1.000000 0.000000 0.000000
vn -1.000000 0.000000 0.000000
vn -1.000000 0.000000 0.000000
vn 0.000000 0.000000 -1.000000
vn 0.000000 0.000000 -1.000000
vn 0.000000 0.000000 -1.000000
vn 0.000000 0.000000 -1.000000
vn 0.000000 0.000000 -1.000000
vn 0.000000 0.000000 -1.000000
vn 1.000000 0.000000 0.000000
vn 1.000000 0.000000 0.000000
vn 1.000000 0.000000 0.000000
vn 1.000000 0.000000 0.000000
vn 1.000000 0.000000 0.000000
vn 1.000000 0.000000 0.000000
vn 0.000000 0.000000 1.000000
vn 0.000000 0.000000 1.000000
vn 0.000000 0.000000 1.000000
vn 0.000000 0.000000 1.000000
vn 0.000000 0.000000 1.000000
vn 0.000000 0.000000 1.000000
vn -1.000000 0.000000 0.000000
vn -1.000000 0.000000 0.000000
vn -1.000000 0.000000 0.000000
vn -1.000000 0.000000 0.000000
vn -1.000000 0.000000 0.000000
vn -1.000000 0.000000 0.000000
vn 0.000000 0.000000 -1.000000
vn 0.000000 0.000000 -1.000000
vn 0.000000 0.000000 -1.000000
vn 0.000000 0.000000 -1.000000
vn 0.000000 0.000000 -1.000000
vn 0.000000 0.000000 -1.000000
vn 1.000000 0.000000 0.000000
vn 1.000000 0.000000 0.000000
vn 1.000000 0.000000 0.000000
vn 1.000000 0.000000 0.000000
vn 1.000000 0.000000 0.000000
vn 1.000000 0.000000 0.000000
vn 0.000000 0.000000 1.000000
vn 0.000000 0.000000 1.000000
vn 0.000000 0.000000 1.000000
vn 0.000000 0.000000 1.000000
vn 0.000000 0.000000 1.000000
vn 0.000000 0.000000 1.000000
vn -1.000000 0.000000 0.000000
vn -1.000000 0.000000 0.000000
vn -1.000000 0.000000 0.000000
vn -1.000000 0.000000 0.000000
vn -1.000000 0.000000 0.000000
vn -1.000000 0.000000 0.000000
vn 0.000000 0.000000 -1.000000
vn 0.000000 0.000000 -1.000000
vn 0.000000 0.000000 -1.000000
vn 0.000000 0.000000 -1.000000
vn 0.000000 0.000000 -1.000000
vn 0.000000 0.000000 -1.000000
vn 0.000000 1.000000 0.000000
vn 0.000000 1.000000 0.000000
vn 0.000000 1.000000 0.000000
vn 0.000000 1.000000 0.000000
vn 0.000000 1.000000 0.000000
vn 0.000000 1.000000 0.000000
vn 0.000000 -1.000000 0.000000
vn 0.000000 -1.000000 0.000000
vn 0.000000 -1.000000 0.000000
vn 0.000000 -1.000000 0.000000
vn 0.000000 -1.000000 0.000000
vn 0.000000 -1.000000 0.000000
vn 0.000000 -1.000000 0.000000
vn 0.000000 -1.000000 0.000000
vn 0.000000 -1.000000 0.000000
vn 0.000000 -1.000000 0.000000
vn 0.000000 -1.000000 0.000000
vn 0.000000 -1.000000 0.000000
vn 0.000000 -1.000000 0.000000
vn 0.000000 -1.000000 0.000000
vn 0.000000 -1.000000 0.000000
vn 0.000000 -1.000000 0.000000
vn 0.000000 -1.000000 0.000000
vn 0.000000 -1.000000 0.000000
vn 0.000000 -1.000000 0.000000
vn 0.000000 -1.000000 0.000000
vn 0.000000 -1.000000 0.000000
vn 0.000000 -1.000000 0.000000
vn 0.000000 -1.000000 0.000000
vn 0.000000 -1.000000 0.000000
vn 0.000000 1.000000 0.000000
vn 0.000000 1.000000 0.000000
vn 0.000000 1.000000 0.000000
vn 0.000000 1.000000 0.000000
vn 0.000000 1.000000 0.000000
vn 0.000000 1.000000 0.000000
vn 0.000000 1.000000 0.000000
vn 0.000000 1.000000 0.000000
vn 0.000000 1.000000 0.000000
vn 0.000000 1.000000 0.000000
vn 0.000000 1.000000 0.000000
vn 0.000000 1.000000 0.000000
vn 0.000000 1.000000 0.000000
vn 0.000000 1.000000 0.000000
vn 0.000000 1.000000 0.000000
vn 0.000000 1.000000 0.000000
vn 0.000000 1.000000 0.000000
vn 0.000000 1.000000 0.000000
vn 0.000000 -1.000000 -0.000000
vn 0.000000 -1.000000 0.000000
vn 0.000000 -1.000000 -0.000000
vn 0.000000 -1.000000 -0.000000
vn 0.000000 -1.000000 0.000000
vn 0.000000 -1.000000 0.000000
vn 0.000000 -1.000000 0.000000
vn 0.000000 -1.000000 0.000000
vn 0.000000 -1.000000 0.000000
vn 0.000000 -1.000000 0.000000
vn 0.000000 -1.000000 0.000000
vn 0.000000 -1.000000 0.000000
vn 0.000000 -1.000000 0.000000
vn 0.000000 -1.000000 -0.000000
vn 0.000000 -1.000000 0.000000
vn 0.000000 -1.000000 0.000000
vn 0.000000 -1.000000 -0.000000
vn 0.000000 -1.000000 -0.000000
vn 0.000000 1.000000 0.000000
vn 0.000000 1.000000 -0.000000
vn 0.000000 1.000000 -0.000001
vn 0.000000 1.000000 0.000000
vn 0.000000 1.000000 -0.000001
vn 0.000000 1.000000 0.000001
vn 0.000000 1.000000 0.000000
vn 0.000000 1.000000 0.000000
vn 0.000000 1.000000 0.000001
vn 0.000000 1.000000 0.000000
vn 0.000000 1.000000 0.000001
vn 0.000000 1.000000 0.000001
vn 0.000000 1.000000 -0.000000
vn 0.000000 1.000000 0.000000
vn 0.000000 1.000000 0.000001
vn 0.000000 1.000000 -0.000000
vn 0.000000 1.000000 0.000001
vn 0.000000 1.000000 -0.000001
vn 0.000000 1.000000 -0.000000
vn 0.000000 1.000000 -0.000001
vn 0.000000 1.000000 -0.000001
vn 0.000000 1.000000 -0.000000
vn 0.000000 1.000000 -0.000000
vn 0.000000 1.000000 -0.000001
vn 0.000000 -1.000000 -0.000000
vn 0.000000 -1.000000 -0.000000
vn 0.000000 -1.000000 -0.000000
vn 0.000000 -1.000000 -0.000000
vn 0.000000 -1.000000 -0.000000
vn 0.000000 -1.000000 -0.000000
vn 0.000000 -1.000000 -0.000000
vn 0.000000 -1.000000 0.000000
vn 0.000000 -1.000000 -0.000000
vn 0.000000 -1.000000 -0.000000
vn 0.000000 -1.000000 0.000000
vn 0.000000 -1.000000 0.000000
vn 0.000000 -1.000000 0.000000
vn 0.000000 -1.000000 0.000000
vn 0.000000 -1.000000 0.000000
vn 0.000000 -1.000000 0.000000
vn 0.000000 -1.000000 0.000000
vn 0.000000 -1.000000 0.000000
vn 0.000000 -1.000000 0.000000
vn 0.000000 -1.000000 -0.000000
vn 0.000000 -1.000000 0.000000
vn 0.000000 -1.000000 0.000000
vn 0.000000 -1.000000 -0.000000
vn 0.000000 -1.000000 -0.000000
vn 0.000000 1.000000 0.000000
vn 0.000000 1.000000 0.000000
vn 0.000000 1.000000 0.000000
vn 0.000000 1.000000 0.000000
vn 0.000000 1.000000 0.000000
vn 0.000000 1.000000 -0.000000
vn 0.000000 1.000000 0.000000
vn 0.000000 1.000000 0.000000
vn 0.000000 1.000000 -0.000000
vn 0.000000 1.000000 0.000000
vn 0.000000 1.000000 -0.000000
vn 0.000000 1.000000 -0.000000
vn 0.000000 1.000000 0.000000
vn 0.000000 1.000000 0.000000
vn 0.000000 1.000000 -0.000000
vn 0.000000 1.000000 0.000000
vn 0.000000 1.000000 -0.000000
vn 0.000000 1.000000 0.000000
vn 0.000000 1.000000 0.000000
vn 0.000000 1.000000 0.000000
vn 0.000000 1.000000 0.000000
vn 0.000000 1.000000 0.000000
vn 0.000000 1.000000 0.000000
vn 0.000000 1.000000 0.000000
vn 0.000000 -1.000000 -0.000000
vn 0.000000 -1.000000 -0.000000
vn 0.000000 -1.000000 -0.000000
vn 0.000000 -1.000000 -0.000000
vn 0.000000 -1.000000 -0.000000
vn 0.000000 -1.000000 -0.000000
vn 0.000000 -1.000000 -0.000000
vn 0.000000 -1.000000 0.000000
vn 0.000000 -1.000000 -0.000000
vn 0.000000 -1.000000 -0.000000
vn 0.000000 -1.000000 0.000000
vn 0.000000 -1.000000 0.000000
vn 0.000000 -1.000000 0.000000
vn 0.000000 -1.000000 0.000000
vn 0.000000 -1.000000 0.000000
vn 0.000000 -1.000000 0.000000
vn 0.000000 -1.000000 0.000000
vn 0.000000 -1.000000 0.000000
vn 0.000000 -1.000000 0.000000
vn 0.000000 -1.000000 -0.000000
vn 0.000000 -1.000000 0.000000
vn 0.000000 -1.000000 0.000000
vn 0.000000 -1.000000 -0.000000
vn 0.000000 -1.000000 -0.000000
vn 0.000000 1.000000 -0.000000
vn 0.000000 1.000000 0.000000
vn 0.000000 1.000000 0.000000
vn 0.000000 1.000000 -0.000000
vn 0.000000 1.000000 0.000000
vn 0.000000 1.000000 -0.000000
vn 0.000000 1.000000 -0.000000
vn 0.000000 1.000000 -0.000000
vn 0.000000 1.000000 -0.000000
vn 0.000000 1.000000 -0.000000
vn 0.000000 1.000000 -0.000000
vn 0.000000 1.000000 -0.000000
vn 0.000000 1.000000 0.000000
vn 0.000000 1.000000 -0.000000
vn 0.000000 1.000000 -0.000000
vn 0.000000 1.000000 0.000000
vn 0.000000 1.000000 -0.000000
vn 0.000000 1.000000 0.000000
vn 0.000000 1.000000 0.000000
vn 0.000000 1.000000 0.000000
vn 0.000000 1.000000 0.000000
vn 0.000000 1.000000 0.000000
vn 0.000000 1.000000 0.000000
vn 0.000000 1.000000 0.000000
vn 0.000000 -1.000000 -0.000000
vn 0.000000 -1.000000 -0.000000
vn 0.000000 -1.000000 -0.000000
vn 0.000000 -1.000000 -0.000000
vn 0.000000 -1.000000 -0.000000
vn 0.000000 -1.000000 -0.000000
s off
g shop group43 ShopBox
usemtl pCube2SG
f 25/73/109 27/75/110 26/74/111
f 25/73/112 28/76/113 27/75/114
f 29/77/115 31/79/116 30/78/117
f 29/77/118 32/80/119 31/79/120
f 28/81/121 32/83/122 27/82/123
f 28/81/124 31/84/125 32/83/126
f 30/85/127 26/87/128 29/86/129
f 30/85/130 25/88/131 26/87/132
f 33/89/133 35/91/134 34/90/135
f 33/89/136 36/92/137 35/91/138
f 34/93/139 37/95/140 33/94/141
f 34/93/142 38/96/143 37/95/144
f 39/97/145 38/99/146 40/98/147
f 39/97/148 37/100/149 38/99/150
f 36/101/151 40/103/152 35/102/153
f 36/101/154 39/104/155 40/103/156
f 41/105/157 43/107/158 42/106/159
f 41/105/160 44/108/161 43/107/162
f 42/109/163 45/111/164 41/110/165
f 42/109/166 46/112/167 45/111/168
f 47/113/169 46/115/170 48/114/171
f 47/113/172 45/116/173 46/115/174
f 44/117/175 48/119/176 43/118/177
f 44/117/178 47/120/179 48/119/180
f 49/121/181 51/123/182 50/122/183
f 49/121/184 52/124/185 51/123/186
f 50/125/187 53/127/188 49/126/189
f 50/125/190 54/128/191 53/127/192
f 55/129/193 54/131/194 56/130/195
f 55/129/196 53/132/197 54/131/198
f 52/133/199 56/135/200 51/134/201
f 52/133/202 55/136/203 56/135/204
f 57/137/205 59/139/206 58/138/207
f 57/137/208 60/140/209 59/139/210
f 61/141/211 63/143/212 62/142/213
f 61/141/214 64/144/215 63/143/216
f 58/145/217 62/147/218 63/146/219
f 58/145/220 59/148/221 62/147/222
f 64/149/223 60/151/224 57/150/225
f 64/149/226 61/152/227 60/151/228
f 65/153/229 67/155/230 66/154/231
f 65/153/232 68/156/233 67/155/234
f 68/157/235 70/159/236 69/158/237
f 68/157/238 65/160/239 70/159/240
f 71/161/241 69/163/242 70/162/243
f 71/161/244 72/164/245 69/163/246
f 66/165/247 72/167/248 71/166/249
f 66/165/250 67/168/251 72/167/252
f 73/169/253 75/171/254 74/170/255
f 73/169/256 76/172/257 75/171/258
f 76/173/259 78/175/260 77/174/261
f 76/173/262 73/176/263 78/175/264
f 79/177/265 77/179/266 78/178/267
f 79/177/268 80/180/269 77/179/270
f 74/181/271 80/183/272 79/182/273
f 74/181/274 75/184/275 80/183/276
f 81/185/277 83/187/278 82/186/279
f 81/185/280 84/188/281 83/187/282
f 84/189/283 86/191/284 85/190/285
f 84/189/286 81/192/287 86/191/288
f 87/193/289 85/195/290 86/194/291
f 87/193/292 88/196/293 85/195/294
f 82/197/295 88/199/296 87/198/297
f 82/197/298 83/200/299 88/199/300
f 61/201/301 32/203/302 29/202/303
f 61/201/304 62/204/305 32/203/306
f 63/205/307 30/207/308 31/206/309
f 63/205/310 64/208/311 30/207/312
f 58/209/313 63/211/314 31/210/315
f 58/209/316 31/210/317 28/212/318
f 57/213/319 58/209/320 28/212/321
f 57/213/322 28/212/323 25/214/324
f 64/215/325 57/213/326 25/214/327
f 64/215/328 25/214/329 30/216/330
f 62/217/331 27/219/332 32/218/333
f 62/217/334 59/220/335 27/219/336
f 59/220/337 26/221/338 27/219/339
f 59/220/340 60/222/341 26/221/342
f 60/222/343 29/223/344 26/221/345
f 60/222/346 61/224/347 29/223/348
f 65/225/349 36/227/350 33/226/351
f 65/225/352 66/228/353 36/227/354
f 66/228/355 39/229/356 36/227/357
f 66/228/358 71/230/359 39/229/360
f 71/230/361 37/231/362 39/229/363
f 71/230/364 70/232/365 37/231/366
f 67/233/367 68/235/368 34/234/369
f 67/233/370 34/234/371 35/236/372
f 72/237/373 67/233/374 35/236/375
f 72/237/376 35/236/377 40/238/378
f 69/239/379 72/237/380 40/238/381
f 69/239/382 40/238/383 38/240/384
f 68/241/385 38/243/386 34/242/387
f 68/241/388 69/244/389 38/243/390
f 70/245/391 33/247/392 37/246/393
f 70/245/394 65/248/395 33/247/396
f 73/249/397 44/251/398 41/250/399
f 73/249/400 74/252/401 44/251/402
f 74/252/403 47/253/404 44/251/405
f 74/252/406 79/254/407 47/253/408
f 79/254/409 45/255/410 47/253/411
f 79/254/412 78/256/413 45/255/414
f 75/257/415 76/259/416 42/258/417
f 75/257/418 42/258/419 43/260/420
f 80/261/421 75/257/422 43/260/423
f 80/261/424 43/260/425 48/262/426
f 77/263/427 80/261/428 48/262/429
f 77/263/430 48/262/431 46/264/432
f 76/265/433 46/267/434 42/266/435
f 76/265/436 77/268/437 46/267/438
f 78/269/439 41/271/440 45/270/441
f 78/269/442 73/272/443 41/271/444
f 81/273/445 52/275/446 49/274/447
f 81/273/448 82/276/449 52/275/450
f 82/276/451 55/277/452 52/275/453
f 82/276/454 87/278/455 55/277/456
f 87/278/457 53/279/458 55/277/459
f 87/278/460 86/280/461 53/279/462
f 83/281/463 84/283/464 50/282/465
f 83/281/466 50/282/467 51/284/468
f 88/285/469 83/281/470 51/284/471
f 88/285/472 51/284/473 56/286/474
f 85/287/475 88/285/476 56/286/477
f 85/287/478 56/286/479 54/288/480
f 84/289/481 54/291/482 50/290/483
f 84/289/484 85/292/485 54/291/486
f 86/293/487 49/295/488 53/294/489
f 86/293/490 81/296/491 49/295/492
g default
v -153.621706 164.708445 -328.491425
v -153.621706 175.613612 -328.491425
v 153.621706 175.613612 -328.491425
v 153.621706 164.708445 -328.491425
v -153.621706 175.613612 -509.916555
v 153.621706 175.613612 -509.916555
v -153.621706 164.708445 -509.916555
v 153.621706 164.708445 -509.916555
vt 0.375000 0.000000
vt 0.375000 0.250000
vt 0.625000 0.250000
vt 0.625000 0.000000
vt 0.375000 0.250000
vt 0.375000 0.500000
vt 0.625000 0.500000
vt 0.625000 0.250000
vt 0.375000 0.500000
vt 0.375000 0.750000
vt 0.625000 0.750000
vt 0.625000 0.500000
vt 0.375000 0.750000
vt 0.375000 1.000000
vt 0.625000 1.000000
vt 0.625000 0.750000
vt 0.625000 0.000000
vt 0.625000 0.250000
vt 0.875000 0.250000
vt 0.875000 0.000000
vt 0.125000 0.000000
vt 0.125000 0.250000
vt 0.375000 0.250000
vt 0.375000 0.000000
vn 0.000000 0.000000 1.000000
vn 0.000000 0.000000 1.000000
vn 0.000000 0.000000 1.000000
vn 0.000000 0.000000 1.000000
vn 0.000000 0.000000 1.000000
vn 0.000000 0.000000 1.000000
vn 0.000000 1.000000 0.000000
vn 0.000000 1.000000 0.000000
vn 0.000000 1.000000 0.000000
vn 0.000000 1.000000 0.000000
vn 0.000000 1.000000 0.000000
vn 0.000000 1.000000 0.000000
vn 0.000000 0.000000 -1.000000
vn 0.000000 0.000000 -1.000000
vn 0.000000 0.000000 -1.000000
vn 0.000000 0.000000 -1.000000
vn 0.000000 0.000000 -1.000000
vn 0.000000 0.000000 -1.000000
vn 0.000000 -1.000000 0.000000
vn 0.000000 -1.000000 0.000000
vn 0.000000 -1.000000 0.000000
vn 0.000000 -1.000000 0.000000
vn 0.000000 -1.000000 0.000000
vn 0.000000 -1.000000 0.000000
vn 1.000000 0.000000 0.000000
vn 1.000000 0.000000 0.000000
vn 1.000000 0.000000 0.000000
vn 1.000000 0.000000 0.000000
vn 1.000000 0.000000 0.000000
vn 1.000000 0.000000 0.000000
vn -1.000000 0.000000 0.000000
vn -1.000000 0.000000 0.000000
vn -1.000000 0.000000 0.000000
vn -1.000000 0.000000 0.000000
vn -1.000000 0.000000 0.000000
vn -1.000000 0.000000 0.000000
s off
g shop group43 Table
usemtl pCube2SG
f 89/297/493 91/299/494 90/298/495
f 89/297/496 92/300/497 91/299/498
f 90/301/499 94/303/500 93/302/501
f 90/301/502 91/304/503 94/303/504
f 93/305/505 96/307/506 95/306/507
f 93/305/508 94/308/509 96/307/510
f 95/309/511 92/311/512 89/310/513
f 95/309/514 96/312/515 92/311/516
f 92/313/517 94/315/518 91/314/519
f 92/313/520 96/316/521 94/315/522
f 95/317/523 90/319/524 93/318/525
f 95/317/526 89/320/527 90/319/528
