# This file uses centimeters as units for non-parametric coordinates.

mtllib wood_gate.mtl
g default
v 1512.711588 1.555184 1015.789488
v 1512.711588 222.171280 1015.789488
v 1498.581834 240.698753 1015.594968
v 1498.581834 1.555184 1015.594968
v 1484.799617 1.555184 1015.405231
v 1484.799617 222.171280 1015.405231
v 1512.591298 222.171280 1024.527224
v 1498.461544 240.698753 1024.332703
v 1484.679327 222.171280 1024.142966
v 1512.591298 1.555184 1024.527224
v 1498.461544 1.555184 1024.332703
v 1484.679327 1.555184 1024.142966
vt 0.375000 0.000000
vt 0.375000 0.250000
vt 0.501556 0.250000
vt 0.501556 0.000000
vt 0.625000 0.000000
vt 0.625000 0.250000
vt 0.375000 0.250000
vt 0.375000 0.500000
vt 0.501556 0.500000
vt 0.501556 0.250000
vt 0.625000 0.250000
vt 0.625000 0.500000
vt 0.375000 0.500000
vt 0.375000 0.750000
vt 0.501556 0.750000
vt 0.501556 0.500000
vt 0.625000 0.750000
vt 0.625000 0.500000
vt 0.375000 0.750000
vt 0.375000 1.000000
vt 0.501556 1.000000
vt 0.501556 0.750000
vt 0.625000 0.750000
vt 0.625000 1.000000
vt 0.625000 0.000000
vt 0.625000 0.250000
vt 0.875000 0.250000
vt 0.875000 0.000000
vt 0.125000 0.000000
vt 0.125000 0.250000
vt 0.375000 0.250000
vt 0.375000 0.000000
vn 0.013765 0.000000 -0.999905
vn 0.013765 0.000000 -0.999905
vn 0.013765 0.000000 -0.999905
vn 0.013765 0.000000 -0.999905
vn 0.013765 0.000000 -0.999905
vn 0.013765 0.000000 -0.999905
vn 0.013765 0.000000 -0.999905
vn 0.013765 0.000000 -0.999905
vn 0.013765 0.000000 -0.999905
vn 0.013765 0.000000 -0.999905
vn 0.013765 0.000000 -0.999905
vn 0.013765 0.000000 -0.999905
vn 0.795047 0.606448 0.010945
vn 0.000000 1.000000 -0.000000
vn 0.795047 0.606448 0.010945
vn 0.795047 0.606448 0.010945
vn 0.000000 1.000000 -0.000000
vn 0.000000 1.000000 -0.000000
vn 0.000000 1.000000 -0.000000
vn 0.000000 1.000000 -0.000000
vn -0.802248 0.596889 -0.011044
vn 0.000000 1.000000 -0.000000
vn -0.802248 0.596889 -0.011044
vn -0.802248 0.596889 -0.011044
vn -0.013765 0.000000 0.999905
vn -0.013765 0.000000 0.999905
vn -0.013765 0.000000 0.999905
vn -0.013765 0.000000 0.999905
vn -0.013765 0.000000 0.999905
vn -0.013765 0.000000 0.999905
vn -0.013765 0.000000 0.999905
vn -0.013765 0.000000 0.999905
vn -0.013765 0.000000 0.999905
vn -0.013765 0.000000 0.999905
vn -0.013765 0.000000 0.999905
vn -0.013765 0.000000 0.999905
vn 0.000000 -1.000000 0.000000
vn 0.000000 -1.000000 0.000000
vn 0.000000 -1.000000 0.000000
vn 0.000000 -1.000000 0.000000
vn 0.000000 -1.000000 0.000000
vn 0.000000 -1.000000 0.000000
vn 0.000000 -1.000000 0.000000
vn 0.000000 -1.000000 0.000000
vn 0.000000 -1.000000 0.000000
vn 0.000000 -1.000000 0.000000
vn 0.000000 -1.000000 0.000000
vn 0.000000 -1.000000 0.000000
vn -0.999905 0.000000 -0.013765
vn -0.999905 0.000000 -0.013765
vn -0.999905 0.000000 -0.013765
vn -0.999905 0.000000 -0.013765
vn -0.999905 0.000000 -0.013765
vn -0.999905 0.000000 -0.013765
vn 0.999905 0.000000 0.013765
vn 0.999905 0.000000 0.013765
vn 0.999905 0.000000 0.013765
vn 0.999905 0.000000 0.013765
vn 0.999905 0.000000 0.013765
vn 0.999905 0.000000 0.013765
s off
g w1 wood_gate_L wood_gate group46
usemtl CubeSG
f 1/1/1 3/3/2 2/2/3
f 1/1/4 4/4/5 3/3/6
f 3/3/7 4/4/8 5/5/9
f 3/3/10 5/5/11 6/6/12
f 2/7/13 8/9/14 7/8/15
f 2/7/16 3/10/17 8/9/18
f 8/9/19 3/10/20 6/11/21
f 8/9/22 6/11/23 9/12/24
f 7/13/25 11/15/26 10/14/27
f 7/13/28 8/16/29 11/15/30
f 8/16/31 12/17/32 11/15/33
f 8/16/34 9/18/35 12/17/36
f 10/19/37 4/21/38 1/20/39
f 10/19/40 11/22/41 4/21/42
f 4/21/43 11/22/44 12/23/45
f 4/21/46 12/23/47 5/24/48
f 5/25/49 9/27/50 6/26/51
f 5/25/52 12/28/53 9/27/54
f 10/29/55 2/31/56 7/30/57
f 10/29/58 1/32/59 2/31/60
g default
v 1568.604665 1.555184 1016.558954
v 1568.604665 222.171280 1016.558954
v 1554.474911 240.698753 1016.364434
v 1554.474911 1.555184 1016.364434
v 1540.692694 1.555184 1016.174697
v 1540.692694 222.171280 1016.174697
v 1568.484375 222.171280 1025.296690
v 1554.354621 240.698753 1025.102169
v 1540.572404 222.171280 1024.912432
v 1568.484375 1.555184 1025.296690
v 1554.354621 1.555184 1025.102169
v 1540.572404 1.555184 1024.912432
vt 0.375000 0.000000
vt 0.375000 0.250000
vt 0.501556 0.250000
vt 0.501556 0.000000
vt 0.625000 0.000000
vt 0.625000 0.250000
vt 0.375000 0.250000
vt 0.375000 0.500000
vt 0.501556 0.500000
vt 0.501556 0.250000
vt 0.625000 0.250000
vt 0.625000 0.500000
vt 0.375000 0.500000
vt 0.375000 0.750000
vt 0.501556 0.750000
vt 0.501556 0.500000
vt 0.625000 0.750000
vt 0.625000 0.500000
vt 0.375000 0.750000
vt 0.375000 1.000000
vt 0.501556 1.000000
vt 0.501556 0.750000
vt 0.625000 0.750000
vt 0.625000 1.000000
vt 0.625000 0.000000
vt 0.625000 0.250000
vt 0.875000 0.250000
vt 0.875000 0.000000
vt 0.125000 0.000000
vt 0.125000 0.250000
vt 0.375000 0.250000
vt 0.375000 0.000000
vn 0.013765 0.000000 -0.999905
vn 0.013765 0.000000 -0.999905
vn 0.013765 0.000000 -0.999905
vn 0.013765 0.000000 -0.999905
vn 0.013765 0.000000 -0.999905
vn 0.013765 0.000000 -0.999905
vn 0.013765 0.000000 -0.999905
vn 0.013765 0.000000 -0.999905
vn 0.013765 0.000000 -0.999905
vn 0.013765 0.000000 -0.999905
vn 0.013765 0.000000 -0.999905
vn 0.013765 0.000000 -0.999905
vn 0.795047 0.606448 0.010945
vn 0.000000 1.000000 -0.000000
vn 0.795047 0.606448 0.010945
vn 0.795047 0.606448 0.010945
vn 0.000000 1.000000 -0.000000
vn 0.000000 1.000000 -0.000000
vn 0.000000 1.000000 -0.000000
vn 0.000000 1.000000 -0.000000
vn -0.802248 0.596889 -0.011044
vn 0.000000 1.000000 -0.000000
vn -0.802248 0.596889 -0.011044
vn -0.802248 0.596889 -0.011044
vn -0.013765 0.000000 0.999905
vn -0.013765 0.000000 0.999905
vn -0.013765 0.000000 0.999905
vn -0.013765 0.000000 0.999905
vn -0.013765 0.000000 0.999905
vn -0.013765 0.000000 0.999905
vn -0.013765 0.000000 0.999905
vn -0.013765 0.000000 0.999905
vn -0.013765 0.000000 0.999905
vn -0.013765 0.000000 0.999905
vn -0.013765 0.000000 0.999905
vn -0.013765 0.000000 0.999905
vn 0.000000 -1.000000 0.000000
vn 0.000000 -1.000000 0.000000
vn 0.000000 -1.000000 0.000000
vn 0.000000 -1.000000 0.000000
vn 0.000000 -1.000000 0.000000
vn 0.000000 -1.000000 0.000000
vn 0.000000 -1.000000 0.000000
vn 0.000000 -1.000000 0.000000
vn 0.000000 -1.000000 0.000000
vn 0.000000 -1.000000 0.000000
vn 0.000000 -1.000000 0.000000
vn 0.000000 -1.000000 0.000000
vn -0.999905 0.000000 -0.013765
vn -0.999905 0.000000 -0.013765
vn -0.999905 0.000000 -0.013765
vn -0.999905 0.000000 -0.013765
vn -0.999905 0.000000 -0.013765
vn -0.999905 0.000000 -0.013765
vn 0.999905 0.000000 0.013765
vn 0.999905 0.000000 0.013765
vn 0.999905 0.000000 0.013765
vn 0.999905 0.000000 0.013765
vn 0.999905 0.000000 0.013765
vn 0.999905 0.000000 0.013765
s off
g wood_gate_L wood_gate group46 w2
usemtl CubeSG
f 13/33/61 15/35/62 14/34/63
f 13/33/64 16/36/65 15/35/66
f 15/35/67 16/36/68 17/37/69
f 15/35/70 17/37/71 18/38/72
f 14/39/73 20/41/74 19/40/75
f 14/39/76 15/42/77 20/41/78
f 20/41/79 15/42/80 18/43/81
f 20/41/82 18/43/83 21/44/84
f 19/45/85 23/47/86 22/46/87
f 19/45/88 20/48/89 23/47/90
f 20/48/91 24/49/92 23/47/93
f 20/48/94 21/50/95 24/49/96
f 22/51/97 16/53/98 13/52/99
f 22/51/100 23/54/101 16/53/102
f 16/53/103 23/54/104 24/55/105
f 16/53/106 24/55/107 17/56/108
f 17/57/109 21/59/110 18/58/111
f 17/57/112 24/60/113 21/59/114
f 22/61/115 14/63/116 19/62/117
f 22/61/118 13/64/119 14/63/120
g default
v 1679.709769 165.468894 1028.062396
v 1679.709769 195.752273 1028.062396
v 1484.655902 195.752273 1025.377138
v 1484.655902 165.468894 1025.377138
v 1679.584707 195.752273 1037.146752
v 1484.530840 195.752273 1034.461494
v 1679.584707 165.468894 1037.146752
v 1484.530840 165.468894 1034.461494
vt 0.375000 0.000000
vt 0.375000 0.250000
vt 0.625000 0.250000
vt 0.625000 0.000000
vt 0.375000 0.250000
vt 0.375000 0.500000
vt 0.625000 0.500000
vt 0.625000 0.250000
vt 0.375000 0.500000
vt 0.375000 0.750000
vt 0.625000 0.750000
vt 0.625000 0.500000
vt 0.375000 0.750000
vt 0.375000 1.000000
vt 0.625000 1.000000
vt 0.625000 0.750000
vt 0.625000 0.000000
vt 0.625000 0.250000
vt 0.875000 0.250000
vt 0.875000 0.000000
vt 0.125000 0.000000
vt 0.125000 0.250000
vt 0.375000 0.250000
vt 0.375000 0.000000
vn 0.013765 0.000000 -0.999905
vn 0.013765 0.000000 -0.999905
vn 0.013765 0.000000 -0.999905
vn 0.013765 0.000000 -0.999905
vn 0.013765 0.000000 -0.999905
vn 0.013765 0.000000 -0.999905
vn 0.000000 1.000000 -0.000000
vn 0.000000 1.000000 -0.000000
vn 0.000000 1.000000 -0.000000
vn 0.000000 1.000000 -0.000000
vn 0.000000 1.000000 -0.000000
vn 0.000000 1.000000 -0.000000
vn -0.013765 0.000000 0.999905
vn -0.013765 0.000000 0.999905
vn -0.013765 0.000000 0.999905
vn -0.013765 0.000000 0.999905
vn -0.013765 0.000000 0.999905
vn -0.013765 0.000000 0.999905
vn 0.000000 -1.000000 0.000000
vn 0.000000 -1.000000 0.000000
vn 0.000000 -1.000000 0.000000
vn 0.000000 -1.000000 0.000000
vn 0.000000 -1.000000 0.000000
vn 0.000000 -1.000000 0.000000
vn -0.999905 0.000000 -0.013765
vn -0.999905 0.000000 -0.013765
vn -0.999905 0.000000 -0.013765
vn -0.999905 0.000000 -0.013765
vn -0.999905 0.000000 -0.013765
vn -0.999905 0.000000 -0.013765
vn 0.999905 0.000000 0.013765
vn 0.999905 0.000000 0.013765
vn 0.999905 0.000000 0.013765
vn 0.999905 0.000000 0.013765
vn 0.999905 0.000000 0.013765
vn 0.999905 0.000000 0.013765
s off
g wood_gate_L wood_gate group46 w3
usemtl Cube_001SG
f 25/65/121 27/67/122 26/66/123
f 25/65/124 28/68/125 27/67/126
f 26/69/127 30/71/128 29/70/129
f 26/69/130 27/72/131 30/71/132
f 29/73/133 32/75/134 31/74/135
f 29/73/136 30/76/137 32/75/138
f 31/77/139 28/79/140 25/78/141
f 31/77/142 32/80/143 28/79/144
f 28/81/145 30/83/146 27/82/147
f 28/81/148 32/84/149 30/83/150
f 31/85/151 26/87/152 29/86/153
f 31/85/154 25/88/155 26/87/156
g default
v 1659.989640 10.821451 1022.174836
v 1679.300138 31.797617 1022.440679
v 1505.799273 191.551395 1020.052136
v 1486.488776 170.575230 1019.786293
v 1679.175076 31.797617 1031.525035
v 1505.674211 191.551395 1029.136492
v 1659.864578 10.821451 1031.259192
v 1486.363713 170.575230 1028.870649
vt 0.375000 0.000000
vt 0.375000 0.250000
vt 0.625000 0.250000
vt 0.625000 0.000000
vt 0.375000 0.250000
vt 0.375000 0.500000
vt 0.625000 0.500000
vt 0.625000 0.250000
vt 0.375000 0.500000
vt 0.375000 0.750000
vt 0.625000 0.750000
vt 0.625000 0.500000
vt 0.375000 0.750000
vt 0.375000 1.000000
vt 0.625000 1.000000
vt 0.625000 0.750000
vt 0.625000 0.000000
vt 0.625000 0.250000
vt 0.875000 0.250000
vt 0.875000 0.000000
vt 0.125000 0.000000
vt 0.125000 0.250000
vt 0.375000 0.250000
vt 0.375000 0.000000
vn 0.013765 0.000000 -0.999905
vn 0.013765 0.000000 -0.999905
vn 0.013765 0.000000 -0.999905
vn 0.013765 0.000000 -0.999905
vn 0.013765 0.000000 -0.999905
vn 0.013765 0.000000 -0.999905
vn 0.677263 0.735682 0.009324
vn 0.677263 0.735682 0.009324
vn 0.677263 0.735682 0.009324
vn 0.677263 0.735682 0.009324
vn 0.677263 0.735682 0.009324
vn 0.677263 0.735682 0.009324
vn -0.013765 0.000000 0.999905
vn -0.013765 0.000000 0.999905
vn -0.013765 0.000000 0.999905
vn -0.013765 0.000000 0.999905
vn -0.013765 0.000000 0.999905
vn -0.013765 0.000000 0.999905
vn -0.677263 -0.735682 -0.009324
vn -0.677263 -0.735682 -0.009324
vn -0.677263 -0.735682 -0.009324
vn -0.677263 -0.735682 -0.009324
vn -0.677263 -0.735682 -0.009324
vn -0.677263 -0.735682 -0.009324
vn -0.735612 0.677327 -0.010127
vn -0.735612 0.677327 -0.010127
vn -0.735612 0.677327 -0.010127
vn -0.735612 0.677327 -0.010127
vn -0.735612 0.677327 -0.010127
vn -0.735612 0.677327 -0.010127
vn 0.735612 -0.677327 0.010127
vn 0.735612 -0.677327 0.010127
vn 0.735612 -0.677327 0.010127
vn 0.735612 -0.677327 0.010127
vn 0.735612 -0.677327 0.010127
vn 0.735612 -0.677327 0.010127
s off
g wood_gate_L wood_gate group46 w4
usemtl Cube_001SG
f 33/89/157 35/91/158 34/90/159
f 33/89/160 36/92/161 35/91/162
f 34/93/163 38/95/164 37/94/165
f 34/93/166 35/96/167 38/95/168
f 37/97/169 40/99/170 39/98/171
f 37/97/172 38/100/173 40/99/174
f 39/101/175 36/103/176 33/102/177
f 39/101/178 40/104/179 36/103/180
f 36/105/181 38/107/182 35/106/183
f 36/105/184 40/108/185 38/107/186
f 39/109/187 34/111/188 37/110/189
f 39/109/190 33/112/191 34/111/192
g default
v 1679.709769 87.343798 1028.062396
v 1679.709769 117.627177 1028.062396
v 1484.655902 117.627177 1025.377138
v 1484.655902 87.343798 1025.377138
v 1679.584707 117.627177 1037.146752
v 1484.530840 117.627177 1034.461494
v 1679.584707 87.343798 1037.146752
v 1484.530840 87.343798 1034.461494
vt 0.375000 0.000000
vt 0.375000 0.250000
vt 0.625000 0.250000
vt 0.625000 0.000000
vt 0.375000 0.250000
vt 0.375000 0.500000
vt 0.625000 0.500000
vt 0.625000 0.250000
vt 0.375000 0.500000
vt 0.375000 0.750000
vt 0.625000 0.750000
vt 0.625000 0.500000
vt 0.375000 0.750000
vt 0.375000 1.000000
vt 0.625000 1.000000
vt 0.625000 0.750000
vt 0.625000 0.000000
vt 0.625000 0.250000
vt 0.875000 0.250000
vt 0.875000 0.000000
vt 0.125000 0.000000
vt 0.125000 0.250000
vt 0.375000 0.250000
vt 0.375000 0.000000
vn 0.013765 0.000000 -0.999905
vn 0.013765 0.000000 -0.999905
vn 0.013765 0.000000 -0.999905
vn 0.013765 0.000000 -0.999905
vn 0.013765 0.000000 -0.999905
vn 0.013765 0.000000 -0.999905
vn 0.000000 1.000000 -0.000000
vn 0.000000 1.000000 -0.000000
vn 0.000000 1.000000 -0.000000
vn 0.000000 1.000000 -0.000000
vn 0.000000 1.000000 -0.000000
vn 0.000000 1.000000 -0.000000
vn -0.013765 0.000000 0.999905
vn -0.013765 0.000000 0.999905
vn -0.013765 0.000000 0.999905
vn -0.013765 0.000000 0.999905
vn -0.013765 0.000000 0.999905
vn -0.013765 0.000000 0.999905
vn 0.000000 -1.000000 0.000000
vn 0.000000 -1.000000 0.000000
vn 0.000000 -1.000000 0.000000
vn 0.000000 -1.000000 0.000000
vn 0.000000 -1.000000 0.000000
vn 0.000000 -1.000000 0.000000
vn -0.999905 0.000000 -0.013765
vn -0.999905 0.000000 -0.013765
vn -0.999905 0.000000 -0.013765
vn -0.999905 0.000000 -0.013765
vn -0.999905 0.000000 -0.013765
vn -0.999905 0.000000 -0.013765
vn 0.999905 0.000000 0.013765
vn 0.999905 0.000000 0.013765
vn 0.999905 0.000000 0.013765
vn 0.999905 0.000000 0.013765
vn 0.999905 0.000000 0.013765
vn 0.999905 0.000000 0.013765
s off
g wood_gate_L wood_gate group46 w5
usemtl Cube_001SG
f 41/113/193 43/115/194 42/114/195
f 41/113/196 44/116/197 43/115/198
f 42/117/199 46/119/200 45/118/201
f 42/117/202 43/120/203 46/119/204
f 45/121/205 48/123/206 47/122/207
f 45/121/208 46/124/209 48/123/210
f 47/125/211 44/127/212 41/126/213
f 47/125/214 48/128/215 44/127/216
f 44/129/217 46/131/218 43/130/219
f 44/129/220 48/132/221 46/131/222
f 47/133/223 42/135/224 45/134/225
f 47/133/226 41/136/227 42/135/228
g default
v 1679.709769 3.537584 1028.062396
v 1679.709769 33.820963 1028.062396
v 1484.655902 33.820963 1025.377138
v 1484.655902 3.537584 1025.377138
v 1679.584707 33.820963 1037.146752
v 1484.530840 33.820963 1034.461494
v 1679.584707 3.537584 1037.146752
v 1484.530840 3.537584 1034.461494
vt 0.375000 0.000000
vt 0.375000 0.250000
vt 0.625000 0.250000
vt 0.625000 0.000000
vt 0.375000 0.250000
vt 0.375000 0.500000
vt 0.625000 0.500000
vt 0.625000 0.250000
vt 0.375000 0.500000
vt 0.375000 0.750000
vt 0.625000 0.750000
vt 0.625000 0.500000
vt 0.375000 0.750000
vt 0.375000 1.000000
vt 0.625000 1.000000
vt 0.625000 0.750000
vt 0.625000 0.000000
vt 0.625000 0.250000
vt 0.875000 0.250000
vt 0.875000 0.000000
vt 0.125000 0.000000
vt 0.125000 0.250000
vt 0.375000 0.250000
vt 0.375000 0.000000
vn 0.013765 0.000000 -0.999905
vn 0.013765 0.000000 -0.999905
vn 0.013765 0.000000 -0.999905
vn 0.013765 0.000000 -0.999905
vn 0.013765 0.000000 -0.999905
vn 0.013765 0.000000 -0.999905
vn 0.000000 1.000000 -0.000000
vn 0.000000 1.000000 -0.000000
vn 0.000000 1.000000 -0.000000
vn 0.000000 1.000000 -0.000000
vn 0.000000 1.000000 -0.000000
vn 0.000000 1.000000 -0.000000
vn -0.013765 0.000000 0.999905
vn -0.013765 0.000000 0.999905
vn -0.013765 0.000000 0.999905
vn -0.013765 0.000000 0.999905
vn -0.013765 0.000000 0.999905
vn -0.013765 0.000000 0.999905
vn 0.000000 -1.000000 0.000000
vn 0.000000 -1.000000 0.000000
vn 0.000000 -1.000000 0.000000
vn 0.000000 -1.000000 0.000000
vn 0.000000 -1.000000 0.000000
vn 0.000000 -1.000000 0.000000
vn -0.999905 0.000000 -0.013765
vn -0.999905 0.000000 -0.013765
vn -0.999905 0.000000 -0.013765
vn -0.999905 0.000000 -0.013765
vn -0.999905 0.000000 -0.013765
vn -0.999905 0.000000 -0.013765
vn 0.999905 0.000000 0.013765
vn 0.999905 0.000000 0.013765
vn 0.999905 0.000000 0.013765
vn 0.999905 0.000000 0.013765
vn 0.999905 0.000000 0.013765
vn 0.999905 0.000000 0.013765
s off
g wood_gate_L wood_gate group46 w6
usemtl Cube_001SG
f 49/137/229 51/139/230 50/138/231
f 49/137/232 52/140/233 51/139/234
f 50/141/235 54/143/236 53/142/237
f 50/141/238 51/144/239 54/143/240
f 53/145/241 56/147/242 55/146/243
f 53/145/244 54/148/245 56/147/246
f 55/149/247 52/151/248 49/150/249
f 55/149/250 56/152/251 52/151/252
f 52/153/253 54/155/254 51/154/255
f 52/153/256 56/156/257 54/155/258
f 55/157/259 50/159/260 53/158/261
f 55/157/262 49/160/263 50/159/264
g default
v 1623.926578 1.555184 1017.320557
v 1623.926578 222.171280 1017.320557
v 1609.796825 240.698753 1017.126036
v 1609.796825 1.555184 1017.126036
v 1596.014608 1.555184 1016.936300
v 1596.014608 222.171280 1016.936300
v 1623.806288 222.171280 1026.058292
v 1609.676534 240.698753 1025.863772
v 1595.894317 222.171280 1025.674035
v 1623.806288 1.555184 1026.058292
v 1609.676534 1.555184 1025.863772
v 1595.894317 1.555184 1025.674035
vt 0.375000 0.000000
vt 0.375000 0.250000
vt 0.501556 0.250000
vt 0.501556 0.000000
vt 0.625000 0.000000
vt 0.625000 0.250000
vt 0.375000 0.250000
vt 0.375000 0.500000
vt 0.501556 0.500000
vt 0.501556 0.250000
vt 0.625000 0.250000
vt 0.625000 0.500000
vt 0.375000 0.500000
vt 0.375000 0.750000
vt 0.501556 0.750000
vt 0.501556 0.500000
vt 0.625000 0.750000
vt 0.625000 0.500000
vt 0.375000 0.750000
vt 0.375000 1.000000
vt 0.501556 1.000000
vt 0.501556 0.750000
vt 0.625000 0.750000
vt 0.625000 1.000000
vt 0.625000 0.000000
vt 0.625000 0.250000
vt 0.875000 0.250000
vt 0.875000 0.000000
vt 0.125000 0.000000
vt 0.125000 0.250000
vt 0.375000 0.250000
vt 0.375000 0.000000
vn 0.013765 0.000000 -0.999905
vn 0.013765 0.000000 -0.999905
vn 0.013765 0.000000 -0.999905
vn 0.013765 0.000000 -0.999905
vn 0.013765 0.000000 -0.999905
vn 0.013765 0.000000 -0.999905
vn 0.013765 0.000000 -0.999905
vn 0.013765 0.000000 -0.999905
vn 0.013765 0.000000 -0.999905
vn 0.013765 0.000000 -0.999905
vn 0.013765 0.000000 -0.999905
vn 0.013765 0.000000 -0.999905
vn 0.795047 0.606448 0.010945
vn 0.000000 1.000000 -0.000000
vn 0.795047 0.606448 0.010945
vn 0.795047 0.606448 0.010945
vn 0.000000 1.000000 -0.000000
vn 0.000000 1.000000 -0.000000
vn 0.000000 1.000000 -0.000000
vn 0.000000 1.000000 -0.000000
vn -0.802248 0.596889 -0.011044
vn 0.000000 1.000000 -0.000000
vn -0.802248 0.596889 -0.011044
vn -0.802248 0.596889 -0.011044
vn -0.013765 0.000000 0.999905
vn -0.013765 0.000000 0.999905
vn -0.013765 0.000000 0.999905
vn -0.013765 0.000000 0.999905
vn -0.013765 0.000000 0.999905
vn -0.013765 0.000000 0.999905
vn -0.013765 0.000000 0.999905
vn -0.013765 0.000000 0.999905
vn -0.013765 0.000000 0.999905
vn -0.013765 0.000000 0.999905
vn -0.013765 0.000000 0.999905
vn -0.013765 0.000000 0.999905
vn 0.000000 -1.000000 0.000000
vn 0.000000 -1.000000 0.000000
vn 0.000000 -1.000000 0.000000
vn 0.000000 -1.000000 0.000000
vn 0.000000 -1.000000 0.000000
vn 0.000000 -1.000000 0.000000
vn 0.000000 -1.000000 0.000000
vn 0.000000 -1.000000 0.000000
vn 0.000000 -1.000000 0.000000
vn 0.000000 -1.000000 0.000000
vn 0.000000 -1.000000 0.000000
vn 0.000000 -1.000000 0.000000
vn -0.999905 0.000000 -0.013765
vn -0.999905 0.000000 -0.013765
vn -0.999905 0.000000 -0.013765
vn -0.999905 0.000000 -0.013765
vn -0.999905 0.000000 -0.013765
vn -0.999905 0.000000 -0.013765
vn 0.999905 0.000000 0.013765
vn 0.999905 0.000000 0.013765
vn 0.999905 0.000000 0.013765
vn 0.999905 0.000000 0.013765
vn 0.999905 0.000000 0.013765
vn 0.999905 0.000000 0.013765
s off
g wood_gate_L wood_gate group46 w7
usemtl CubeSG
f 57/161/265 59/163/266 58/162/267
f 57/161/268 60/164/269 59/163/270
f 59/163/271 60/164/272 61/165/273
f 59/163/274 61/165/275 62/166/276
f 58/167/277 64/169/278 63/168/279
f 58/167/280 59/170/281 64/169/282
f 64/169/283 59/170/284 62/171/285
f 64/169/286 62/171/287 65/172/288
f 63/173/289 67/175/290 66/174/291
f 63/173/292 64/176/293 67/175/294
f 64/176/295 68/177/296 67/175/297
f 64/176/298 65/178/299 68/177/300
f 66/179/301 60/181/302 57/180/303
f 66/179/304 67/182/305 60/181/306
f 60/181/307 67/182/308 68/183/309
f 60/181/310 68/183/311 61/184/312
f 61/185/313 65/187/314 62/186/315
f 61/185/316 68/188/317 65/187/318
f 66/189/319 58/191/320 63/190/321
f 66/189/322 57/192/323 58/191/324
g default
v 1679.311629 1.555184 1018.083029
v 1679.311629 222.171280 1018.083029
v 1665.181875 240.698753 1017.888509
v 1665.181875 1.555184 1017.888509
v 1651.399658 1.555184 1017.698772
v 1651.399658 222.171280 1017.698772
v 1679.191339 222.171280 1026.820765
v 1665.061585 240.698753 1026.626244
v 1651.279368 222.171280 1026.436507
v 1679.191339 1.555184 1026.820765
v 1665.061585 1.555184 1026.626244
v 1651.279368 1.555184 1026.436507
vt 0.375000 0.000000
vt 0.375000 0.250000
vt 0.501556 0.250000
vt 0.501556 0.000000
vt 0.625000 0.000000
vt 0.625000 0.250000
vt 0.375000 0.250000
vt 0.375000 0.500000
vt 0.501556 0.500000
vt 0.501556 0.250000
vt 0.625000 0.250000
vt 0.625000 0.500000
vt 0.375000 0.500000
vt 0.375000 0.750000
vt 0.501556 0.750000
vt 0.501556 0.500000
vt 0.625000 0.750000
vt 0.625000 0.500000
vt 0.375000 0.750000
vt 0.375000 1.000000
vt 0.501556 1.000000
vt 0.501556 0.750000
vt 0.625000 0.750000
vt 0.625000 1.000000
vt 0.625000 0.000000
vt 0.625000 0.250000
vt 0.875000 0.250000
vt 0.875000 0.000000
vt 0.125000 0.000000
vt 0.125000 0.250000
vt 0.375000 0.250000
vt 0.375000 0.000000
vn 0.013765 0.000000 -0.999905
vn 0.013765 0.000000 -0.999905
vn 0.013765 0.000000 -0.999905
vn 0.013765 0.000000 -0.999905
vn 0.013765 0.000000 -0.999905
vn 0.013765 0.000000 -0.999905
vn 0.013765 0.000000 -0.999905
vn 0.013765 0.000000 -0.999905
vn 0.013765 0.000000 -0.999905
vn 0.013765 0.000000 -0.999905
vn 0.013765 0.000000 -0.999905
vn 0.013765 0.000000 -0.999905
vn 0.795047 0.606448 0.010945
vn 0.000000 1.000000 -0.000000
vn 0.795047 0.606448 0.010945
vn 0.795047 0.606448 0.010945
vn 0.000000 1.000000 -0.000000
vn 0.000000 1.000000 -0.000000
vn 0.000000 1.000000 -0.000000
vn 0.000000 1.000000 -0.000000
vn -0.802248 0.596889 -0.011044
vn 0.000000 1.000000 -0.000000
vn -0.802248 0.596889 -0.011044
vn -0.802248 0.596889 -0.011044
vn -0.013765 0.000000 0.999905
vn -0.013765 0.000000 0.999905
vn -0.013765 0.000000 0.999905
vn -0.013765 0.000000 0.999905
vn -0.013765 0.000000 0.999905
vn -0.013765 0.000000 0.999905
vn -0.013765 0.000000 0.999905
vn -0.013765 0.000000 0.999905
vn -0.013765 0.000000 0.999905
vn -0.013765 0.000000 0.999905
vn -0.013765 0.000000 0.999905
vn -0.013765 0.000000 0.999905
vn 0.000000 -1.000000 0.000000
vn 0.000000 -1.000000 0.000000
vn 0.000000 -1.000000 0.000000
vn 0.000000 -1.000000 0.000000
vn 0.000000 -1.000000 0.000000
vn 0.000000 -1.000000 0.000000
vn 0.000000 -1.000000 0.000000
vn 0.000000 -1.000000 0.000000
vn 0.000000 -1.000000 0.000000
vn 0.000000 -1.000000 0.000000
vn 0.000000 -1.000000 0.000000
vn 0.000000 -1.000000 0.000000
vn -0.999905 0.000000 -0.013765
vn -0.999905 0.000000 -0.013765
vn -0.999905 0.000000 -0.013765
vn -0.999905 0.000000 -0.013765
vn -0.999905 0.000000 -0.013765
vn -0.999905 0.000000 -0.013765
vn 0.999905 0.000000 0.013765
vn 0.999905 0.000000 0.013765
vn 0.999905 0.000000 0.013765
vn 0.999905 0.000000 0.013765
vn 0.999905 0.000000 0.013765
vn 0.999905 0.000000 0.013765
s off
g wood_gate_L wood_gate group46 w8
usemtl CubeSG
f 69/193/325 71/195/326 70/194/327
f 69/193/328 72/196/329 71/195/330
f 71/195/331 72/196/332 73/197/333
f 71/195/334 73/197/335 74/198/336
f 70/199/337 76/201/338 75/200/339
f 70/199/340 71/202/341 76/201/342
f 76/201/343 71/202/344 74/203/345
f 76/201/346 74/203/347 77/204/348
f 75/205/349 79/207/350 78/206/351
f 75/205/352 76/208/353 79/207/354
f 76/208/355 80/209/356 79/207/357
f 76/208/358 77/210/359 80/209/360
f 78/211/361 72/213/362 69/212/363
f 78/211/364 79/214/365 72/213/366
f 72/213/367 79/214/368 80/215/369
f 72/213/370 80/215/371 73/216/372
f 73/217/373 77/219/374 74/218/375
f 73/217/376 80/220/377 77/219/378
f 78/221/379 70/223/380 75/222/381
f 78/221/382 69/224/383 70/223/384
g default
v 1292.414283 1.555184 1012.756711
v 1292.414283 222.171280 1012.756711
v 1278.284529 240.698753 1012.562190
v 1278.284529 1.555184 1012.562190
v 1264.502312 1.555184 1012.372454
v 1264.502312 222.171280 1012.372454
v 1292.293993 222.171280 1021.494446
v 1278.164239 240.698753 1021.299925
v 1264.382022 222.171280 1021.110189
v 1292.293993 1.555184 1021.494446
v 1278.164239 1.555184 1021.299925
v 1264.382022 1.555184 1021.110189
vt 0.375000 0.000000
vt 0.375000 0.250000
vt 0.501556 0.250000
vt 0.501556 0.000000
vt 0.625000 0.000000
vt 0.625000 0.250000
vt 0.375000 0.250000
vt 0.375000 0.500000
vt 0.501556 0.500000
vt 0.501556 0.250000
vt 0.625000 0.250000
vt 0.625000 0.500000
vt 0.375000 0.500000
vt 0.375000 0.750000
vt 0.501556 0.750000
vt 0.501556 0.500000
vt 0.625000 0.750000
vt 0.625000 0.500000
vt 0.375000 0.750000
vt 0.375000 1.000000
vt 0.501556 1.000000
vt 0.501556 0.750000
vt 0.625000 0.750000
vt 0.625000 1.000000
vt 0.625000 0.000000
vt 0.625000 0.250000
vt 0.875000 0.250000
vt 0.875000 0.000000
vt 0.125000 0.000000
vt 0.125000 0.250000
vt 0.375000 0.250000
vt 0.375000 0.000000
vn 0.013765 0.000000 -0.999905
vn 0.013765 0.000000 -0.999905
vn 0.013765 0.000000 -0.999905
vn 0.013765 0.000000 -0.999905
vn 0.013765 0.000000 -0.999905
vn 0.013765 0.000000 -0.999905
vn 0.013765 0.000000 -0.999905
vn 0.013765 0.000000 -0.999905
vn 0.013765 0.000000 -0.999905
vn 0.013765 0.000000 -0.999905
vn 0.013765 0.000000 -0.999905
vn 0.013765 0.000000 -0.999905
vn 0.795047 0.606448 0.010945
vn 0.000000 1.000000 -0.000000
vn 0.795047 0.606448 0.010945
vn 0.795047 0.606448 0.010945
vn 0.000000 1.000000 -0.000000
vn 0.000000 1.000000 -0.000000
vn 0.000000 1.000000 -0.000000
vn 0.000000 1.000000 -0.000000
vn -0.802248 0.596889 -0.011044
vn 0.000000 1.000000 -0.000000
vn -0.802248 0.596889 -0.011044
vn -0.802248 0.596889 -0.011044
vn -0.013765 0.000000 0.999905
vn -0.013765 0.000000 0.999905
vn -0.013765 0.000000 0.999905
vn -0.013765 0.000000 0.999905
vn -0.013765 0.000000 0.999905
vn -0.013765 0.000000 0.999905
vn -0.013765 0.000000 0.999905
vn -0.013765 0.000000 0.999905
vn -0.013765 0.000000 0.999905
vn -0.013765 0.000000 0.999905
vn -0.013765 0.000000 0.999905
vn -0.013765 0.000000 0.999905
vn 0.000000 -1.000000 0.000000
vn 0.000000 -1.000000 0.000000
vn 0.000000 -1.000000 0.000000
vn 0.000000 -1.000000 0.000000
vn 0.000000 -1.000000 0.000000
vn 0.000000 -1.000000 0.000000
vn 0.000000 -1.000000 0.000000
vn 0.000000 -1.000000 0.000000
vn 0.000000 -1.000000 0.000000
vn 0.000000 -1.000000 0.000000
vn 0.000000 -1.000000 0.000000
vn 0.000000 -1.000000 0.000000
vn -0.999905 0.000000 -0.013765
vn -0.999905 0.000000 -0.013765
vn -0.999905 0.000000 -0.013765
vn -0.999905 0.000000 -0.013765
vn -0.999905 0.000000 -0.013765
vn -0.999905 0.000000 -0.013765
vn 0.999905 0.000000 0.013765
vn 0.999905 0.000000 0.013765
vn 0.999905 0.000000 0.013765
vn 0.999905 0.000000 0.013765
vn 0.999905 0.000000 0.013765
vn 0.999905 0.000000 0.013765
s off
g wood_gate group46 w1_1 wood_gate_R
usemtl CubeSG
f 81/225/385 83/227/386 82/226/387
f 81/225/388 84/228/389 83/227/390
f 83/227/391 84/228/392 85/229/393
f 83/227/394 85/229/395 86/230/396
f 82/231/397 88/233/398 87/232/399
f 82/231/400 83/234/401 88/233/402
f 88/233/403 83/234/404 86/235/405
f 88/233/406 86/235/407 89/236/408
f 87/237/409 91/239/410 90/238/411
f 87/237/412 88/240/413 91/239/414
f 88/240/415 92/241/416 91/239/417
f 88/240/418 89/242/419 92/241/420
f 90/243/421 84/245/422 81/244/423
f 90/243/424 91/246/425 84/245/426
f 84/245/427 91/246/428 92/247/429
f 84/245/430 92/247/431 85/248/432
f 85/249/433 89/251/434 86/250/435
f 85/249/436 92/252/437 89/251/438
f 90/253/439 82/255/440 87/254/441
f 90/253/442 81/256/443 82/255/444
g default
v 1348.307360 1.555184 1013.526177
v 1348.307360 222.171280 1013.526177
v 1334.177606 240.698753 1013.331656
v 1334.177606 1.555184 1013.331656
v 1320.395389 1.555184 1013.141919
v 1320.395389 222.171280 1013.141919
v 1348.187070 222.171280 1022.263912
v 1334.057316 240.698753 1022.069391
v 1320.275099 222.171280 1021.879655
v 1348.187070 1.555184 1022.263912
v 1334.057316 1.555184 1022.069391
v 1320.275099 1.555184 1021.879655
vt 0.375000 0.000000
vt 0.375000 0.250000
vt 0.501556 0.250000
vt 0.501556 0.000000
vt 0.625000 0.000000
vt 0.625000 0.250000
vt 0.375000 0.250000
vt 0.375000 0.500000
vt 0.501556 0.500000
vt 0.501556 0.250000
vt 0.625000 0.250000
vt 0.625000 0.500000
vt 0.375000 0.500000
vt 0.375000 0.750000
vt 0.501556 0.750000
vt 0.501556 0.500000
vt 0.625000 0.750000
vt 0.625000 0.500000
vt 0.375000 0.750000
vt 0.375000 1.000000
vt 0.501556 1.000000
vt 0.501556 0.750000
vt 0.625000 0.750000
vt 0.625000 1.000000
vt 0.625000 0.000000
vt 0.625000 0.250000
vt 0.875000 0.250000
vt 0.875000 0.000000
vt 0.125000 0.000000
vt 0.125000 0.250000
vt 0.375000 0.250000
vt 0.375000 0.000000
vn 0.013765 0.000000 -0.999905
vn 0.013765 0.000000 -0.999905
vn 0.013765 0.000000 -0.999905
vn 0.013765 0.000000 -0.999905
vn 0.013765 0.000000 -0.999905
vn 0.013765 0.000000 -0.999905
vn 0.013765 0.000000 -0.999905
vn 0.013765 0.000000 -0.999905
vn 0.013765 0.000000 -0.999905
vn 0.013765 0.000000 -0.999905
vn 0.013765 0.000000 -0.999905
vn 0.013765 0.000000 -0.999905
vn 0.795047 0.606448 0.010945
vn 0.000000 1.000000 -0.000000
vn 0.795047 0.606448 0.010945
vn 0.795047 0.606448 0.010945
vn 0.000000 1.000000 -0.000000
vn 0.000000 1.000000 -0.000000
vn 0.000000 1.000000 -0.000000
vn 0.000000 1.000000 -0.000000
vn -0.802248 0.596889 -0.011044
vn 0.000000 1.000000 -0.000000
vn -0.802248 0.596889 -0.011044
vn -0.802248 0.596889 -0.011044
vn -0.013765 0.000000 0.999905
vn -0.013765 0.000000 0.999905
vn -0.013765 0.000000 0.999905
vn -0.013765 0.000000 0.999905
vn -0.013765 0.000000 0.999905
vn -0.013765 0.000000 0.999905
vn -0.013765 0.000000 0.999905
vn -0.013765 0.000000 0.999905
vn -0.013765 0.000000 0.999905
vn -0.013765 0.000000 0.999905
vn -0.013765 0.000000 0.999905
vn -0.013765 0.000000 0.999905
vn 0.000000 -1.000000 0.000000
vn 0.000000 -1.000000 0.000000
vn 0.000000 -1.000000 0.000000
vn 0.000000 -1.000000 0.000000
vn 0.000000 -1.000000 0.000000
vn 0.000000 -1.000000 0.000000
vn 0.000000 -1.000000 0.000000
vn 0.000000 -1.000000 0.000000
vn 0.000000 -1.000000 0.000000
vn 0.000000 -1.000000 0.000000
vn 0.000000 -1.000000 0.000000
vn 0.000000 -1.000000 0.000000
vn -0.999905 0.000000 -0.013765
vn -0.999905 0.000000 -0.013765
vn -0.999905 0.000000 -0.013765
vn -0.999905 0.000000 -0.013765
vn -0.999905 0.000000 -0.013765
vn -0.999905 0.000000 -0.013765
vn 0.999905 0.000000 0.013765
vn 0.999905 0.000000 0.013765
vn 0.999905 0.000000 0.013765
vn 0.999905 0.000000 0.013765
vn 0.999905 0.000000 0.013765
vn 0.999905 0.000000 0.013765
s off
g wood_gate group46 wood_gate_R w2_1
usemtl CubeSG
f 93/257/445 95/259/446 94/258/447
f 93/257/448 96/260/449 95/259/450
f 95/259/451 96/260/452 97/261/453
f 95/259/454 97/261/455 98/262/456
f 94/263/457 100/265/458 99/264/459
f 94/263/460 95/266/461 100/265/462
f 100/265/463 95/266/464 98/267/465
f 100/265/466 98/267/467 101/268/468
f 99/269/469 103/271/470 102/270/471
f 99/269/472 100/272/473 103/271/474
f 100/272/475 104/273/476 103/271/477
f 100/272/478 101/274/479 104/273/480
f 102/275/481 96/277/482 93/276/483
f 102/275/484 103/278/485 96/277/486
f 96/277/487 103/278/488 104/279/489
f 96/277/490 104/279/491 97/280/492
f 97/281/493 101/283/494 98/282/495
f 97/281/496 104/284/497 101/283/498
f 102/285/499 94/287/500 99/286/501
f 102/285/502 93/288/503 94/287/504
g default
v 1459.412464 165.468894 1025.029618
v 1459.412464 195.752273 1025.029618
v 1264.358597 195.752273 1022.344360
v 1264.358597 165.468894 1022.344360
v 1459.287402 195.752273 1034.113974
v 1264.233535 195.752273 1031.428717
v 1459.287402 165.468894 1034.113974
v 1264.233535 165.468894 1031.428717
vt 0.375000 0.000000
vt 0.375000 0.250000
vt 0.625000 0.250000
vt 0.625000 0.000000
vt 0.375000 0.250000
vt 0.375000 0.500000
vt 0.625000 0.500000
vt 0.625000 0.250000
vt 0.375000 0.500000
vt 0.375000 0.750000
vt 0.625000 0.750000
vt 0.625000 0.500000
vt 0.375000 0.750000
vt 0.375000 1.000000
vt 0.625000 1.000000
vt 0.625000 0.750000
vt 0.625000 0.000000
vt 0.625000 0.250000
vt 0.875000 0.250000
vt 0.875000 0.000000
vt 0.125000 0.000000
vt 0.125000 0.250000
vt 0.375000 0.250000
vt 0.375000 0.000000
vn 0.013765 0.000000 -0.999905
vn 0.013765 0.000000 -0.999905
vn 0.013765 0.000000 -0.999905
vn 0.013765 0.000000 -0.999905
vn 0.013765 0.000000 -0.999905
vn 0.013765 0.000000 -0.999905
vn 0.000000 1.000000 -0.000000
vn 0.000000 1.000000 -0.000000
vn 0.000000 1.000000 -0.000000
vn 0.000000 1.000000 -0.000000
vn 0.000000 1.000000 -0.000000
vn 0.000000 1.000000 -0.000000
vn -0.013765 0.000000 0.999905
vn -0.013765 0.000000 0.999905
vn -0.013765 0.000000 0.999905
vn -0.013765 0.000000 0.999905
vn -0.013765 0.000000 0.999905
vn -0.013765 0.000000 0.999905
vn 0.000000 -1.000000 0.000000
vn 0.000000 -1.000000 0.000000
vn 0.000000 -1.000000 0.000000
vn 0.000000 -1.000000 0.000000
vn 0.000000 -1.000000 0.000000
vn 0.000000 -1.000000 0.000000
vn -0.999905 0.000000 -0.013765
vn -0.999905 0.000000 -0.013765
vn -0.999905 0.000000 -0.013765
vn -0.999905 0.000000 -0.013765
vn -0.999905 0.000000 -0.013765
vn -0.999905 0.000000 -0.013765
vn 0.999905 0.000000 0.013765
vn 0.999905 0.000000 0.013765
vn 0.999905 0.000000 0.013765
vn 0.999905 0.000000 0.013765
vn 0.999905 0.000000 0.013765
vn 0.999905 0.000000 0.013765
s off
g wood_gate group46 wood_gate_R w3_1
usemtl Cube_001SG
f 105/289/505 107/291/506 106/290/507
f 105/289/508 108/292/509 107/291/510
f 106/293/511 110/295/512 109/294/513
f 106/293/514 107/296/515 110/295/516
f 109/297/517 112/299/518 111/298/519
f 109/297/520 110/300/521 112/299/522
f 111/301/523 108/303/524 105/302/525
f 111/301/526 112/304/527 108/303/528
f 108/305/529 110/307/530 107/306/531
f 108/305/532 112/308/533 110/307/534
f 111/309/535 106/311/536 109/310/537
f 111/309/538 105/312/539 106/311/540
g default
v 1262.207947 20.236115 1017.257030
v 1282.367456 0.074699 1017.534561
v 1450.185249 167.908359 1019.844866
v 1430.025739 188.069774 1019.567335
v 1282.242394 0.074699 1026.618917
v 1450.060186 167.908359 1028.929222
v 1262.082885 20.236115 1026.341386
v 1429.900677 188.069774 1028.651691
vt 0.375000 0.000000
vt 0.375000 0.250000
vt 0.625000 0.250000
vt 0.625000 0.000000
vt 0.375000 0.250000
vt 0.375000 0.500000
vt 0.625000 0.500000
vt 0.625000 0.250000
vt 0.375000 0.500000
vt 0.375000 0.750000
vt 0.625000 0.750000
vt 0.625000 0.500000
vt 0.375000 0.750000
vt 0.375000 1.000000
vt 0.625000 1.000000
vt 0.625000 0.750000
vt 0.625000 0.000000
vt 0.625000 0.250000
vt 0.875000 0.250000
vt 0.875000 0.000000
vt 0.125000 0.000000
vt 0.125000 0.250000
vt 0.375000 0.250000
vt 0.375000 0.000000
vn 0.013765 0.000000 -0.999905
vn 0.013765 0.000000 -0.999905
vn 0.013765 0.000000 -0.999905
vn 0.013765 0.000000 -0.999905
vn 0.013765 0.000000 -0.999905
vn 0.013765 0.000000 -0.999905
vn 0.707040 -0.707107 0.009734
vn 0.707040 -0.707107 0.009734
vn 0.707040 -0.707107 0.009734
vn 0.707040 -0.707107 0.009734
vn 0.707040 -0.707107 0.009734
vn 0.707040 -0.707107 0.009734
vn -0.013765 -0.000000 0.999905
vn -0.013765 -0.000000 0.999905
vn -0.013765 -0.000000 0.999905
vn -0.013765 -0.000000 0.999905
vn -0.013765 -0.000000 0.999905
vn -0.013765 -0.000000 0.999905
vn -0.707040 0.707107 -0.009734
vn -0.707040 0.707107 -0.009734
vn -0.707040 0.707107 -0.009734
vn -0.707040 0.707107 -0.009734
vn -0.707040 0.707107 -0.009734
vn -0.707040 0.707107 -0.009734
vn 0.707040 0.707107 0.009734
vn 0.707040 0.707107 0.009734
vn 0.707040 0.707107 0.009734
vn 0.707040 0.707107 0.009734
vn 0.707040 0.707107 0.009734
vn 0.707040 0.707107 0.009734
vn -0.707040 -0.707107 -0.009734
vn -0.707040 -0.707107 -0.009734
vn -0.707040 -0.707107 -0.009734
vn -0.707040 -0.707107 -0.009734
vn -0.707040 -0.707107 -0.009734
vn -0.707040 -0.707107 -0.009734
s off
g wood_gate group46 wood_gate_R w4_1
usemtl Cube_001SG
f 113/313/541 115/315/542 114/314/543
f 113/313/544 116/316/545 115/315/546
f 114/317/547 118/319/548 117/318/549
f 114/317/550 115/320/551 118/319/552
f 117/321/553 120/323/554 119/322/555
f 117/321/556 118/324/557 120/323/558
f 119/325/559 116/327/560 113/326/561
f 119/325/562 120/328/563 116/327/564
f 116/329/565 118/331/566 115/330/567
f 116/329/568 120/332/569 118/331/570
f 119/333/571 114/335/572 117/334/573
f 119/333/574 113/336/575 114/335/576
g default
v 1459.412464 87.343798 1025.029618
v 1459.412464 117.627177 1025.029618
v 1264.358597 117.627177 1022.344360
v 1264.358597 87.343798 1022.344360
v 1459.287402 117.627177 1034.113974
v 1264.233535 117.627177 1031.428717
v 1459.287402 87.343798 1034.113974
v 1264.233535 87.343798 1031.428717
vt 0.375000 0.000000
vt 0.375000 0.250000
vt 0.625000 0.250000
vt 0.625000 0.000000
vt 0.375000 0.250000
vt 0.375000 0.500000
vt 0.625000 0.500000
vt 0.625000 0.250000
vt 0.375000 0.500000
vt 0.375000 0.750000
vt 0.625000 0.750000
vt 0.625000 0.500000
vt 0.375000 0.750000
vt 0.375000 1.000000
vt 0.625000 1.000000
vt 0.625000 0.750000
vt 0.625000 0.000000
vt 0.625000 0.250000
vt 0.875000 0.250000
vt 0.875000 0.000000
vt 0.125000 0.000000
vt 0.125000 0.250000
vt 0.375000 0.250000
vt 0.375000 0.000000
vn 0.013765 0.000000 -0.999905
vn 0.013765 0.000000 -0.999905
vn 0.013765 0.000000 -0.999905
vn 0.013765 0.000000 -0.999905
vn 0.013765 0.000000 -0.999905
vn 0.013765 0.000000 -0.999905
vn 0.000000 1.000000 -0.000000
vn 0.000000 1.000000 -0.000000
vn 0.000000 1.000000 -0.000000
vn 0.000000 1.000000 -0.000000
vn 0.000000 1.000000 -0.000000
vn 0.000000 1.000000 -0.000000
vn -0.013765 0.000000 0.999905
vn -0.013765 0.000000 0.999905
vn -0.013765 0.000000 0.999905
vn -0.013765 0.000000 0.999905
vn -0.013765 0.000000 0.999905
vn -0.013765 0.000000 0.999905
vn 0.000000 -1.000000 0.000000
vn 0.000000 -1.000000 0.000000
vn 0.000000 -1.000000 0.000000
vn 0.000000 -1.000000 0.000000
vn 0.000000 -1.000000 0.000000
vn 0.000000 -1.000000 0.000000
vn -0.999905 0.000000 -0.013765
vn -0.999905 0.000000 -0.013765
vn -0.999905 0.000000 -0.013765
vn -0.999905 0.000000 -0.013765
vn -0.999905 0.000000 -0.013765
vn -0.999905 0.000000 -0.013765
vn 0.999905 0.000000 0.013765
vn 0.999905 0.000000 0.013765
vn 0.999905 0.000000 0.013765
vn 0.999905 0.000000 0.013765
vn 0.999905 0.000000 0.013765
vn 0.999905 0.000000 0.013765
s off
g wood_gate group46 wood_gate_R w5_1
usemtl Cube_001SG
f 121/337/577 123/339/578 122/338/579
f 121/337/580 124/340/581 123/339/582
f 122/341/583 126/343/584 125/342/585
f 122/341/586 123/344/587 126/343/588
f 125/345/589 128/347/590 127/346/591
f 125/345/592 126/348/593 128/347/594
f 127/349/595 124/351/596 121/350/597
f 127/349/598 128/352/599 124/351/600
f 124/353/601 126/355/602 123/354/603
f 124/353/604 128/356/605 126/355/606
f 127/357/607 122/359/608 125/358/609
f 127/357/610 121/360/611 122/359/612
g default
v 1459.412464 3.537584 1025.029618
v 1459.412464 33.820963 1025.029618
v 1264.358597 33.820963 1022.344360
v 1264.358597 3.537584 1022.344360
v 1459.287402 33.820963 1034.113974
v 1264.233535 33.820963 1031.428717
v 1459.287402 3.537584 1034.113974
v 1264.233535 3.537584 1031.428717
vt 0.375000 0.000000
vt 0.375000 0.250000
vt 0.625000 0.250000
vt 0.625000 0.000000
vt 0.375000 0.250000
vt 0.375000 0.500000
vt 0.625000 0.500000
vt 0.625000 0.250000
vt 0.375000 0.500000
vt 0.375000 0.750000
vt 0.625000 0.750000
vt 0.625000 0.500000
vt 0.375000 0.750000
vt 0.375000 1.000000
vt 0.625000 1.000000
vt 0.625000 0.750000
vt 0.625000 0.000000
vt 0.625000 0.250000
vt 0.875000 0.250000
vt 0.875000 0.000000
vt 0.125000 0.000000
vt 0.125000 0.250000
vt 0.375000 0.250000
vt 0.375000 0.000000
vn 0.013765 0.000000 -0.999905
vn 0.013765 0.000000 -0.999905
vn 0.013765 0.000000 -0.999905
vn 0.013765 0.000000 -0.999905
vn 0.013765 0.000000 -0.999905
vn 0.013765 0.000000 -0.999905
vn 0.000000 1.000000 -0.000000
vn 0.000000 1.000000 -0.000000
vn 0.000000 1.000000 -0.000000
vn 0.000000 1.000000 -0.000000
vn 0.000000 1.000000 -0.000000
vn 0.000000 1.000000 -0.000000
vn -0.013765 0.000000 0.999905
vn -0.013765 0.000000 0.999905
vn -0.013765 0.000000 0.999905
vn -0.013765 0.000000 0.999905
vn -0.013765 0.000000 0.999905
vn -0.013765 0.000000 0.999905
vn 0.000000 -1.000000 0.000000
vn 0.000000 -1.000000 0.000000
vn 0.000000 -1.000000 0.000000
vn 0.000000 -1.000000 0.000000
vn 0.000000 -1.000000 0.000000
vn 0.000000 -1.000000 0.000000
vn -0.999905 0.000000 -0.013765
vn -0.999905 0.000000 -0.013765
vn -0.999905 0.000000 -0.013765
vn -0.999905 0.000000 -0.013765
vn -0.999905 0.000000 -0.013765
vn -0.999905 0.000000 -0.013765
vn 0.999905 0.000000 0.013765
vn 0.999905 0.000000 0.013765
vn 0.999905 0.000000 0.013765
vn 0.999905 0.000000 0.013765
vn 0.999905 0.000000 0.013765
vn 0.999905 0.000000 0.013765
s off
g wood_gate group46 wood_gate_R w6_1
usemtl Cube_001SG
f 129/361/613 131/363/614 130/362/615
f 129/361/616 132/364/617 131/363/618
f 130/365/619 134/367/620 133/366/621
f 130/365/622 131/368/623 134/367/624
f 133/369/625 136/371/626 135/370/627
f 133/369/628 134/372/629 136/371/630
f 135/373/631 132/375/632 129/374/633
f 135/373/634 136/376/635 132/375/636
f 132/377/637 134/379/638 131/378/639
f 132/377/640 136/380/641 134/379/642
f 135/381/643 130/383/644 133/382/645
f 135/381/646 129/384/647 130/383/648
g default
v 1403.629273 1.555184 1014.287779
v 1403.629273 222.171280 1014.287779
v 1389.499520 240.698753 1014.093259
v 1389.499520 1.555184 1014.093259
v 1375.717303 1.555184 1013.903522
v 1375.717303 222.171280 1013.903522
v 1403.508983 222.171280 1023.025515
v 1389.379229 240.698753 1022.830994
v 1375.597012 222.171280 1022.641258
v 1403.508983 1.555184 1023.025515
v 1389.379229 1.555184 1022.830994
v 1375.597012 1.555184 1022.641258
vt 0.375000 0.000000
vt 0.375000 0.250000
vt 0.501556 0.250000
vt 0.501556 0.000000
vt 0.625000 0.000000
vt 0.625000 0.250000
vt 0.375000 0.250000
vt 0.375000 0.500000
vt 0.501556 0.500000
vt 0.501556 0.250000
vt 0.625000 0.250000
vt 0.625000 0.500000
vt 0.375000 0.500000
vt 0.375000 0.750000
vt 0.501556 0.750000
vt 0.501556 0.500000
vt 0.625000 0.750000
vt 0.625000 0.500000
vt 0.375000 0.750000
vt 0.375000 1.000000
vt 0.501556 1.000000
vt 0.501556 0.750000
vt 0.625000 0.750000
vt 0.625000 1.000000
vt 0.625000 0.000000
vt 0.625000 0.250000
vt 0.875000 0.250000
vt 0.875000 0.000000
vt 0.125000 0.000000
vt 0.125000 0.250000
vt 0.375000 0.250000
vt 0.375000 0.000000
vn 0.013765 0.000000 -0.999905
vn 0.013765 0.000000 -0.999905
vn 0.013765 0.000000 -0.999905
vn 0.013765 0.000000 -0.999905
vn 0.013765 0.000000 -0.999905
vn 0.013765 0.000000 -0.999905
vn 0.013765 0.000000 -0.999905
vn 0.013765 0.000000 -0.999905
vn 0.013765 0.000000 -0.999905
vn 0.013765 0.000000 -0.999905
vn 0.013765 0.000000 -0.999905
vn 0.013765 0.000000 -0.999905
vn 0.795047 0.606448 0.010945
vn 0.000000 1.000000 -0.000000
vn 0.795047 0.606448 0.010945
vn 0.795047 0.606448 0.010945
vn 0.000000 1.000000 -0.000000
vn 0.000000 1.000000 -0.000000
vn 0.000000 1.000000 -0.000000
vn 0.000000 1.000000 -0.000000
vn -0.802248 0.596889 -0.011044
vn 0.000000 1.000000 -0.000000
vn -0.802248 0.596889 -0.011044
vn -0.802248 0.596889 -0.011044
vn -0.013765 0.000000 0.999905
vn -0.013765 0.000000 0.999905
vn -0.013765 0.000000 0.999905
vn -0.013765 0.000000 0.999905
vn -0.013765 0.000000 0.999905
vn -0.013765 0.000000 0.999905
vn -0.013765 0.000000 0.999905
vn -0.013765 0.000000 0.999905
vn -0.013765 0.000000 0.999905
vn -0.013765 0.000000 0.999905
vn -0.013765 0.000000 0.999905
vn -0.013765 0.000000 0.999905
vn 0.000000 -1.000000 0.000000
vn 0.000000 -1.000000 0.000000
vn 0.000000 -1.000000 0.000000
vn 0.000000 -1.000000 0.000000
vn 0.000000 -1.000000 0.000000
vn 0.000000 -1.000000 0.000000
vn 0.000000 -1.000000 0.000000
vn 0.000000 -1.000000 0.000000
vn 0.000000 -1.000000 0.000000
vn 0.000000 -1.000000 0.000000
vn 0.000000 -1.000000 0.000000
vn 0.000000 -1.000000 0.000000
vn -0.999905 0.000000 -0.013765
vn -0.999905 0.000000 -0.013765
vn -0.999905 0.000000 -0.013765
vn -0.999905 0.000000 -0.013765
vn -0.999905 0.000000 -0.013765
vn -0.999905 0.000000 -0.013765
vn 0.999905 0.000000 0.013765
vn 0.999905 0.000000 0.013765
vn 0.999905 0.000000 0.013765
vn 0.999905 0.000000 0.013765
vn 0.999905 0.000000 0.013765
vn 0.999905 0.000000 0.013765
s off
g wood_gate group46 wood_gate_R w7_1
usemtl CubeSG
f 137/385/649 139/387/650 138/386/651
f 137/385/652 140/388/653 139/387/654
f 139/387/655 140/388/656 141/389/657
f 139/387/658 141/389/659 142/390/660
f 138/391/661 144/393/662 143/392/663
f 138/391/664 139/394/665 144/393/666
f 144/393/667 139/394/668 142/395/669
f 144/393/670 142/395/671 145/396/672
f 143/397/673 147/399/674 146/398/675
f 143/397/676 144/400/677 147/399/678
f 144/400/679 148/401/680 147/399/681
f 144/400/682 145/402/683 148/401/684
f 146/403/685 140/405/686 137/404/687
f 146/403/688 147/406/689 140/405/690
f 140/405/691 147/406/692 148/407/693
f 140/405/694 148/407/695 141/408/696
f 141/409/697 145/411/698 142/410/699
f 141/409/700 148/412/701 145/411/702
f 146/413/703 138/415/704 143/414/705
f 146/413/706 137/416/707 138/415/708
g default
v 1459.014324 1.555184 1015.050252
v 1459.014324 222.171280 1015.050252
v 1444.884570 240.698753 1014.855731
v 1444.884570 1.555184 1014.855731
v 1431.102353 1.555184 1014.665994
v 1431.102353 222.171280 1014.665994
v 1458.894033 222.171280 1023.787987
v 1444.764280 240.698753 1023.593466
v 1430.982063 222.171280 1023.403730
v 1458.894033 1.555184 1023.787987
v 1444.764280 1.555184 1023.593466
v 1430.982063 1.555184 1023.403730
vt 0.375000 0.000000
vt 0.375000 0.250000
vt 0.501556 0.250000
vt 0.501556 0.000000
vt 0.625000 0.000000
vt 0.625000 0.250000
vt 0.375000 0.250000
vt 0.375000 0.500000
vt 0.501556 0.500000
vt 0.501556 0.250000
vt 0.625000 0.250000
vt 0.625000 0.500000
vt 0.375000 0.500000
vt 0.375000 0.750000
vt 0.501556 0.750000
vt 0.501556 0.500000
vt 0.625000 0.750000
vt 0.625000 0.500000
vt 0.375000 0.750000
vt 0.375000 1.000000
vt 0.501556 1.000000
vt 0.501556 0.750000
vt 0.625000 0.750000
vt 0.625000 1.000000
vt 0.625000 0.000000
vt 0.625000 0.250000
vt 0.875000 0.250000
vt 0.875000 0.000000
vt 0.125000 0.000000
vt 0.125000 0.250000
vt 0.375000 0.250000
vt 0.375000 0.000000
vn 0.013765 0.000000 -0.999905
vn 0.013765 0.000000 -0.999905
vn 0.013765 0.000000 -0.999905
vn 0.013765 0.000000 -0.999905
vn 0.013765 0.000000 -0.999905
vn 0.013765 0.000000 -0.999905
vn 0.013765 0.000000 -0.999905
vn 0.013765 0.000000 -0.999905
vn 0.013765 0.000000 -0.999905
vn 0.013765 0.000000 -0.999905
vn 0.013765 0.000000 -0.999905
vn 0.013765 0.000000 -0.999905
vn 0.795047 0.606448 0.010945
vn 0.000000 1.000000 -0.000000
vn 0.795047 0.606448 0.010945
vn 0.795047 0.606448 0.010945
vn 0.000000 1.000000 -0.000000
vn 0.000000 1.000000 -0.000000
vn 0.000000 1.000000 -0.000000
vn 0.000000 1.000000 -0.000000
vn -0.802248 0.596889 -0.011044
vn 0.000000 1.000000 -0.000000
vn -0.802248 0.596889 -0.011044
vn -0.802248 0.596889 -0.011044
vn -0.013765 0.000000 0.999905
vn -0.013765 0.000000 0.999905
vn -0.013765 0.000000 0.999905
vn -0.013765 0.000000 0.999905
vn -0.013765 0.000000 0.999905
vn -0.013765 0.000000 0.999905
vn -0.013765 0.000000 0.999905
vn -0.013765 0.000000 0.999905
vn -0.013765 0.000000 0.999905
vn -0.013765 0.000000 0.999905
vn -0.013765 0.000000 0.999905
vn -0.013765 0.000000 0.999905
vn 0.000000 -1.000000 0.000000
vn 0.000000 -1.000000 0.000000
vn 0.000000 -1.000000 0.000000
vn 0.000000 -1.000000 0.000000
vn 0.000000 -1.000000 0.000000
vn 0.000000 -1.000000 0.000000
vn 0.000000 -1.000000 0.000000
vn 0.000000 -1.000000 0.000000
vn 0.000000 -1.000000 0.000000
vn 0.000000 -1.000000 0.000000
vn 0.000000 -1.000000 0.000000
vn 0.000000 -1.000000 0.000000
vn -0.999905 0.000000 -0.013765
vn -0.999905 0.000000 -0.013765
vn -0.999905 0.000000 -0.013765
vn -0.999905 0.000000 -0.013765
vn -0.999905 0.000000 -0.013765
vn -0.999905 0.000000 -0.013765
vn 0.999905 0.000000 0.013765
vn 0.999905 0.000000 0.013765
vn 0.999905 0.000000 0.013765
vn 0.999905 0.000000 0.013765
vn 0.999905 0.000000 0.013765
vn 0.999905 0.000000 0.013765
s off
g wood_gate group46 wood_gate_R w8_1
usemtl CubeSG
f 149/417/709 151/419/710 150/418/711
f 149/417/712 152/420/713 151/419/714
f 151/419/715 152/420/716 153/421/717
f 151/419/718 153/421/719 154/422/720
f 150/423/721 156/425/722 155/424/723
f 150/423/724 151/426/725 156/425/726
f 156/425/727 151/426/728 154/427/729
f 156/425/730 154/427/731 157/428/732
f 155/429/733 159/431/734 158/430/735
f 155/429/736 156/432/737 159/431/738
f 156/432/739 160/433/740 159/431/741
f 156/432/742 157/434/743 160/433/744
f 158/435/745 152/437/746 149/436/747
f 158/435/748 159/438/749 152/437/750
f 152/437/751 159/438/752 160/439/753
f 152/437/754 160/439/755 153/440/756
f 153/441/757 157/443/758 154/442/759
f 153/441/760 160/444/761 157/443/762
f 158/445/763 150/447/764 155/446/765
f 158/445/766 149/448/767 150/447/768
