# This file uses centimeters as units for non-parametric coordinates.

mtllib wood_fence.mtl
g default
v -23.884274 -110.355542 982.138041
v -23.884273 -110.355542 972.067317
v -23.884273 110.355542 972.067317
v -23.884274 110.355542 982.138041
v 0.000001 -110.355542 972.067321
v 23.884274 -110.355542 972.067325
v 23.884274 110.355542 972.067325
v 0.000001 144.887220 972.067321
v 23.884273 -110.355542 982.138048
v 23.884273 110.355542 982.138048
v -0.000001 -110.355542 982.138045
v -0.000001 144.887220 982.138045
v 33.437984 -110.355542 982.138050
v 33.437986 -110.355542 972.067327
v 33.437986 110.355542 972.067327
v 33.437984 110.355542 982.138050
v 57.322259 -110.355542 972.067331
v 81.206532 -110.355542 972.067335
v 81.206532 110.355542 972.067335
v 57.322259 144.887220 972.067331
v 81.206531 -110.355542 982.138058
v 81.206531 110.355542 982.138058
v 57.322257 -110.355542 982.138054
v 57.322257 144.887220 982.138054
v 90.760242 -110.355542 982.138059
v 90.760244 -110.355542 972.067336
v 90.760244 110.355542 972.067336
v 90.760242 110.355542 982.138059
v 114.644517 -110.355542 972.067340
v 138.528791 -110.355542 972.067344
v 138.528791 110.355542 972.067344
v 114.644517 144.887220 972.067340
v 138.528789 -110.355542 982.138067
v 138.528789 110.355542 982.138067
v 114.644516 -110.355542 982.138063
v 114.644516 144.887220 982.138063
v 148.082501 -110.355542 982.138069
v 148.082502 -110.355542 972.067345
v 148.082502 110.355542 972.067345
v 148.082501 110.355542 982.138069
v 171.966776 -110.355542 972.067349
v 195.851038 -110.355542 972.067353
v 195.851038 110.355542 972.067353
v 171.966776 144.887220 972.067349
v 195.851036 -110.355542 982.138076
v 195.851036 110.355542 982.138076
v 171.966774 -110.355542 982.138073
v 171.966774 144.887220 982.138073
v 205.404759 -110.355542 982.138078
v 205.404761 -110.355542 972.067355
v 205.404761 110.355542 972.067355
v 205.404759 110.355542 982.138078
v 229.289034 -110.355542 972.067359
v 253.173284 -110.355542 972.067363
v 253.173284 110.355542 972.067363
v 229.289034 144.887220 972.067359
v 253.173283 -110.355542 982.138086
v 253.173283 110.355542 982.138086
v 229.289032 -110.355542 982.138082
v 229.289032 144.887220 982.138082
v 262.727006 -110.355542 982.138087
v 262.727007 -110.355542 972.067364
v 262.727007 110.355542 972.067364
v 262.727006 110.355542 982.138087
v 286.611281 -110.355542 972.067368
v 310.495531 -110.355542 972.067372
v 310.495531 110.355542 972.067372
v 286.611281 144.887220 972.067368
v 310.495530 -110.355542 982.138095
v 310.495530 110.355542 982.138095
v 286.611279 -110.355542 982.138091
v 286.611279 144.887220 982.138091
v 320.049230 -110.355542 982.138097
v 320.049232 -110.355542 972.067373
v 320.049232 110.355542 972.067373
v 320.049230 110.355542 982.138097
v 343.933528 -110.355542 972.067377
v 367.817801 -110.355542 972.067381
v 367.817801 110.355542 972.067381
v 343.933528 144.887220 972.067377
v 367.817799 -110.355542 982.138105
v 367.817799 110.355542 982.138105
v 343.933526 -110.355542 982.138101
v 343.933526 144.887220 982.138101
v 377.371500 -110.355542 982.138106
v 377.371501 -110.355542 972.067383
v 377.371501 110.355542 972.067383
v 377.371500 110.355542 982.138106
v 401.255729 -110.355542 972.067387
v 425.140048 -110.355542 972.067391
v 425.140048 110.355542 972.067391
v 401.255729 144.887220 972.067387
v 425.140046 -110.355542 982.138114
v 425.140046 110.355542 982.138114
v 401.255727 -110.355542 982.138110
v 401.255727 144.887220 982.138110
v 434.693746 -110.355542 982.138115
v 434.693748 -110.355542 972.067392
v 434.693748 110.355542 972.067392
v 434.693746 110.355542 982.138115
v 458.578021 -110.355542 972.067396
v 482.462249 -110.355542 972.067400
v 482.462249 110.355542 972.067400
v 458.578021 144.887220 972.067396
v 482.462247 -110.355542 982.138123
v 482.462247 110.355542 982.138123
v 458.578020 -110.355542 982.138119
v 458.578020 144.887220 982.138119
v 492.015993 -110.355542 982.138125
v 492.015995 -110.355542 972.067401
v 492.015995 110.355542 972.067401
v 492.015993 110.355542 982.138125
v 515.900268 -110.355542 972.067405
v 539.784542 -110.355542 972.067409
v 539.784542 110.355542 972.067409
v 515.900268 144.887220 972.067405
v 539.784540 -110.355542 982.138133
v 539.784540 110.355542 982.138133
v 515.900267 -110.355542 982.138129
v 515.900267 144.887220 982.138129
vt 0.375000 0.000000
vt 0.375000 0.250000
vt 0.625000 0.250000
vt 0.625000 0.000000
vt 0.375000 0.375000
vt 0.375000 0.500000
vt 0.625000 0.500000
vt 0.625000 0.375000
vt 0.375000 0.250000
vt 0.625000 0.250000
vt 0.375000 0.500000
vt 0.375000 0.750000
vt 0.625000 0.750000
vt 0.625000 0.500000
vt 0.375000 0.875000
vt 0.375000 1.000000
vt 0.625000 1.000000
vt 0.625000 0.875000
vt 0.375000 0.750000
vt 0.625000 0.750000
vt 0.250000 0.500000
vt 0.375000 0.750000
vt 0.375000 0.500000
vt 0.250000 0.750000
vt 0.125000 0.500000
vt 0.125000 0.750000
vt 0.750000 0.500000
vt 0.750000 0.750000
vt 0.875000 0.750000
vt 0.875000 0.500000
vt 0.625000 0.500000
vt 0.625000 0.750000
vt 0.750000 0.750000
vt 0.750000 0.500000
vt 0.375000 0.000000
vt 0.375000 0.250000
vt 0.625000 0.250000
vt 0.625000 0.000000
vt 0.375000 0.375000
vt 0.375000 0.500000
vt 0.625000 0.500000
vt 0.625000 0.375000
vt 0.375000 0.250000
vt 0.625000 0.250000
vt 0.375000 0.500000
vt 0.375000 0.750000
vt 0.625000 0.750000
vt 0.625000 0.500000
vt 0.375000 0.875000
vt 0.375000 1.000000
vt 0.625000 1.000000
vt 0.625000 0.875000
vt 0.375000 0.750000
vt 0.625000 0.750000
vt 0.250000 0.500000
vt 0.375000 0.750000
vt 0.375000 0.500000
vt 0.250000 0.750000
vt 0.125000 0.500000
vt 0.125000 0.750000
vt 0.750000 0.500000
vt 0.750000 0.750000
vt 0.875000 0.750000
vt 0.875000 0.500000
vt 0.625000 0.500000
vt 0.625000 0.750000
vt 0.750000 0.750000
vt 0.750000 0.500000
vt 0.375000 0.000000
vt 0.375000 0.250000
vt 0.625000 0.250000
vt 0.625000 0.000000
vt 0.375000 0.375000
vt 0.375000 0.500000
vt 0.625000 0.500000
vt 0.625000 0.375000
vt 0.375000 0.250000
vt 0.625000 0.250000
vt 0.375000 0.500000
vt 0.375000 0.750000
vt 0.625000 0.750000
vt 0.625000 0.500000
vt 0.375000 0.875000
vt 0.375000 1.000000
vt 0.625000 1.000000
vt 0.625000 0.875000
vt 0.375000 0.750000
vt 0.625000 0.750000
vt 0.250000 0.500000
vt 0.375000 0.750000
vt 0.375000 0.500000
vt 0.250000 0.750000
vt 0.125000 0.500000
vt 0.125000 0.750000
vt 0.750000 0.500000
vt 0.750000 0.750000
vt 0.875000 0.750000
vt 0.875000 0.500000
vt 0.625000 0.500000
vt 0.625000 0.750000
vt 0.750000 0.750000
vt 0.750000 0.500000
vt 0.375000 0.000000
vt 0.375000 0.250000
vt 0.625000 0.250000
vt 0.625000 0.000000
vt 0.375000 0.375000
vt 0.375000 0.500000
vt 0.625000 0.500000
vt 0.625000 0.375000
vt 0.375000 0.250000
vt 0.625000 0.250000
vt 0.375000 0.500000
vt 0.375000 0.750000
vt 0.625000 0.750000
vt 0.625000 0.500000
vt 0.375000 0.875000
vt 0.375000 1.000000
vt 0.625000 1.000000
vt 0.625000 0.875000
vt 0.375000 0.750000
vt 0.625000 0.750000
vt 0.250000 0.500000
vt 0.375000 0.750000
vt 0.375000 0.500000
vt 0.250000 0.750000
vt 0.125000 0.500000
vt 0.125000 0.750000
vt 0.750000 0.500000
vt 0.750000 0.750000
vt 0.875000 0.750000
vt 0.875000 0.500000
vt 0.625000 0.500000
vt 0.625000 0.750000
vt 0.750000 0.750000
vt 0.750000 0.500000
vt 0.375000 0.000000
vt 0.375000 0.250000
vt 0.625000 0.250000
vt 0.625000 0.000000
vt 0.375000 0.375000
vt 0.375000 0.500000
vt 0.625000 0.500000
vt 0.625000 0.375000
vt 0.375000 0.250000
vt 0.625000 0.250000
vt 0.375000 0.500000
vt 0.375000 0.750000
vt 0.625000 0.750000
vt 0.625000 0.500000
vt 0.375000 0.875000
vt 0.375000 1.000000
vt 0.625000 1.000000
vt 0.625000 0.875000
vt 0.375000 0.750000
vt 0.625000 0.750000
vt 0.250000 0.500000
vt 0.375000 0.750000
vt 0.375000 0.500000
vt 0.250000 0.750000
vt 0.125000 0.500000
vt 0.125000 0.750000
vt 0.750000 0.500000
vt 0.750000 0.750000
vt 0.875000 0.750000
vt 0.875000 0.500000
vt 0.625000 0.500000
vt 0.625000 0.750000
vt 0.750000 0.750000
vt 0.750000 0.500000
vt 0.375000 0.000000
vt 0.375000 0.250000
vt 0.625000 0.250000
vt 0.625000 0.000000
vt 0.375000 0.375000
vt 0.375000 0.500000
vt 0.625000 0.500000
vt 0.625000 0.375000
vt 0.375000 0.250000
vt 0.625000 0.250000
vt 0.375000 0.500000
vt 0.375000 0.750000
vt 0.625000 0.750000
vt 0.625000 0.500000
vt 0.375000 0.875000
vt 0.375000 1.000000
vt 0.625000 1.000000
vt 0.625000 0.875000
vt 0.375000 0.750000
vt 0.625000 0.750000
vt 0.250000 0.500000
vt 0.375000 0.750000
vt 0.375000 0.500000
vt 0.250000 0.750000
vt 0.125000 0.500000
vt 0.125000 0.750000
vt 0.750000 0.500000
vt 0.750000 0.750000
vt 0.875000 0.750000
vt 0.875000 0.500000
vt 0.625000 0.500000
vt 0.625000 0.750000
vt 0.750000 0.750000
vt 0.750000 0.500000
vt 0.375000 0.000000
vt 0.375000 0.250000
vt 0.625000 0.250000
vt 0.625000 0.000000
vt 0.375000 0.375000
vt 0.375000 0.500000
vt 0.625000 0.500000
vt 0.625000 0.375000
vt 0.375000 0.250000
vt 0.625000 0.250000
vt 0.375000 0.500000
vt 0.375000 0.750000
vt 0.625000 0.750000
vt 0.625000 0.500000
vt 0.375000 0.875000
vt 0.375000 1.000000
vt 0.625000 1.000000
vt 0.625000 0.875000
vt 0.375000 0.750000
vt 0.625000 0.750000
vt 0.250000 0.500000
vt 0.375000 0.750000
vt 0.375000 0.500000
vt 0.250000 0.750000
vt 0.125000 0.500000
vt 0.125000 0.750000
vt 0.750000 0.500000
vt 0.750000 0.750000
vt 0.875000 0.750000
vt 0.875000 0.500000
vt 0.625000 0.500000
vt 0.625000 0.750000
vt 0.750000 0.750000
vt 0.750000 0.500000
vt 0.375000 0.000000
vt 0.375000 0.250000
vt 0.625000 0.250000
vt 0.625000 0.000000
vt 0.375000 0.375000
vt 0.375000 0.500000
vt 0.625000 0.500000
vt 0.625000 0.375000
vt 0.375000 0.250000
vt 0.625000 0.250000
vt 0.375000 0.500000
vt 0.375000 0.750000
vt 0.625000 0.750000
vt 0.625000 0.500000
vt 0.375000 0.875000
vt 0.375000 1.000000
vt 0.625000 1.000000
vt 0.625000 0.875000
vt 0.375000 0.750000
vt 0.625000 0.750000
vt 0.250000 0.500000
vt 0.375000 0.750000
vt 0.375000 0.500000
vt 0.250000 0.750000
vt 0.125000 0.500000
vt 0.125000 0.750000
vt 0.750000 0.500000
vt 0.750000 0.750000
vt 0.875000 0.750000
vt 0.875000 0.500000
vt 0.625000 0.500000
vt 0.625000 0.750000
vt 0.750000 0.750000
vt 0.750000 0.500000
vt 0.375000 0.000000
vt 0.375000 0.250000
vt 0.625000 0.250000
vt 0.625000 0.000000
vt 0.375000 0.375000
vt 0.375000 0.500000
vt 0.625000 0.500000
vt 0.625000 0.375000
vt 0.375000 0.250000
vt 0.625000 0.250000
vt 0.375000 0.500000
vt 0.375000 0.750000
vt 0.625000 0.750000
vt 0.625000 0.500000
vt 0.375000 0.875000
vt 0.375000 1.000000
vt 0.625000 1.000000
vt 0.625000 0.875000
vt 0.375000 0.750000
vt 0.625000 0.750000
vt 0.250000 0.500000
vt 0.375000 0.750000
vt 0.375000 0.500000
vt 0.250000 0.750000
vt 0.125000 0.500000
vt 0.125000 0.750000
vt 0.750000 0.500000
vt 0.750000 0.750000
vt 0.875000 0.750000
vt 0.875000 0.500000
vt 0.625000 0.500000
vt 0.625000 0.750000
vt 0.750000 0.750000
vt 0.750000 0.500000
vt 0.375000 0.000000
vt 0.375000 0.250000
vt 0.625000 0.250000
vt 0.625000 0.000000
vt 0.375000 0.375000
vt 0.375000 0.500000
vt 0.625000 0.500000
vt 0.625000 0.375000
vt 0.375000 0.250000
vt 0.625000 0.250000
vt 0.375000 0.500000
vt 0.375000 0.750000
vt 0.625000 0.750000
vt 0.625000 0.500000
vt 0.375000 0.875000
vt 0.375000 1.000000
vt 0.625000 1.000000
vt 0.625000 0.875000
vt 0.375000 0.750000
vt 0.625000 0.750000
vt 0.250000 0.500000
vt 0.375000 0.750000
vt 0.375000 0.500000
vt 0.250000 0.750000
vt 0.125000 0.500000
vt 0.125000 0.750000
vt 0.750000 0.500000
vt 0.750000 0.750000
vt 0.875000 0.750000
vt 0.875000 0.500000
vt 0.625000 0.500000
vt 0.625000 0.750000
vt 0.750000 0.750000
vt 0.750000 0.500000
vn -1.000000 0.000000 -0.000000
vn -1.000000 0.000000 -0.000000
vn -1.000000 0.000000 -0.000000
vn -1.000000 0.000000 -0.000000
vn -1.000000 0.000000 -0.000000
vn -1.000000 0.000000 -0.000000
vn 0.000000 0.000000 -1.000000
vn 0.000000 0.000000 -1.000000
vn 0.000000 0.000000 -1.000000
vn 0.000000 0.000000 -1.000000
vn 0.000000 0.000000 -1.000000
vn 0.000000 0.000000 -1.000000
vn 0.000000 0.000000 -1.000000
vn 0.000000 0.000000 -1.000000
vn 0.000000 0.000000 -1.000000
vn 0.000000 0.000000 -1.000000
vn 0.000000 0.000000 -1.000000
vn 0.000000 0.000000 -1.000000
vn 1.000000 0.000000 0.000000
vn 1.000000 0.000000 0.000000
vn 1.000000 0.000000 0.000000
vn 1.000000 0.000000 0.000000
vn 1.000000 0.000000 0.000000
vn 1.000000 0.000000 0.000000
vn -0.000000 0.000000 1.000000
vn -0.000000 0.000000 1.000000
vn -0.000000 0.000000 1.000000
vn -0.000000 0.000000 1.000000
vn -0.000000 0.000000 1.000000
vn -0.000000 0.000000 1.000000
vn -0.000000 0.000000 1.000000
vn -0.000000 0.000000 1.000000
vn -0.000000 0.000000 1.000000
vn -0.000000 0.000000 1.000000
vn -0.000000 0.000000 1.000000
vn -0.000000 0.000000 1.000000
vn 0.000000 -1.000000 0.000000
vn 0.000000 -1.000000 0.000000
vn 0.000000 -1.000000 0.000000
vn 0.000000 -1.000000 0.000000
vn 0.000000 -1.000000 0.000000
vn 0.000000 -1.000000 0.000000
vn 0.000000 -1.000000 0.000000
vn 0.000000 -1.000000 0.000000
vn 0.000000 -1.000000 0.000000
vn 0.000000 -1.000000 0.000000
vn 0.000000 -1.000000 0.000000
vn 0.000000 -1.000000 0.000000
vn -0.822440 0.568851 -0.000000
vn -0.822440 0.568851 -0.000000
vn -0.822440 0.568851 -0.000000
vn -0.822440 0.568851 -0.000000
vn -0.822440 0.568851 -0.000000
vn -0.822440 0.568851 -0.000000
vn 0.822440 0.568851 0.000000
vn 0.822440 0.568851 0.000000
vn 0.822440 0.568851 0.000000
vn 0.822440 0.568851 0.000000
vn 0.822440 0.568851 0.000000
vn 0.822440 0.568851 0.000000
vn -1.000000 0.000000 -0.000000
vn -1.000000 0.000000 -0.000000
vn -1.000000 0.000000 -0.000000
vn -1.000000 0.000000 -0.000000
vn -1.000000 0.000000 -0.000000
vn -1.000000 0.000000 -0.000000
vn 0.000000 0.000000 -1.000000
vn 0.000000 0.000000 -1.000000
vn 0.000000 0.000000 -1.000000
vn 0.000000 0.000000 -1.000000
vn 0.000000 0.000000 -1.000000
vn 0.000000 0.000000 -1.000000
vn 0.000000 0.000000 -1.000000
vn 0.000000 0.000000 -1.000000
vn 0.000000 0.000000 -1.000000
vn 0.000000 0.000000 -1.000000
vn 0.000000 0.000000 -1.000000
vn 0.000000 0.000000 -1.000000
vn 1.000000 0.000000 0.000000
vn 1.000000 0.000000 0.000000
vn 1.000000 0.000000 0.000000
vn 1.000000 0.000000 0.000000
vn 1.000000 0.000000 0.000000
vn 1.000000 0.000000 0.000000
vn -0.000000 0.000000 1.000000
vn -0.000000 0.000000 1.000000
vn -0.000000 0.000000 1.000000
vn -0.000000 0.000000 1.000000
vn -0.000000 0.000000 1.000000
vn -0.000000 0.000000 1.000000
vn -0.000000 0.000000 1.000000
vn -0.000000 0.000000 1.000000
vn -0.000000 0.000000 1.000000
vn -0.000000 0.000000 1.000000
vn -0.000000 0.000000 1.000000
vn -0.000000 0.000000 1.000000
vn 0.000000 -1.000000 0.000000
vn 0.000000 -1.000000 0.000000
vn 0.000000 -1.000000 0.000000
vn 0.000000 -1.000000 0.000000
vn 0.000000 -1.000000 0.000000
vn 0.000000 -1.000000 0.000000
vn 0.000000 -1.000000 0.000000
vn 0.000000 -1.000000 0.000000
vn 0.000000 -1.000000 0.000000
vn 0.000000 -1.000000 0.000000
vn 0.000000 -1.000000 0.000000
vn 0.000000 -1.000000 0.000000
vn -0.822440 0.568851 -0.000000
vn -0.822440 0.568851 -0.000000
vn -0.822440 0.568851 -0.000000
vn -0.822440 0.568851 -0.000000
vn -0.822440 0.568851 -0.000000
vn -0.822440 0.568851 -0.000000
vn 0.822440 0.568851 0.000000
vn 0.822440 0.568851 0.000000
vn 0.822440 0.568851 0.000000
vn 0.822440 0.568851 0.000000
vn 0.822440 0.568851 0.000000
vn 0.822440 0.568851 0.000000
vn -1.000000 0.000000 -0.000000
vn -1.000000 0.000000 -0.000000
vn -1.000000 0.000000 -0.000000
vn -1.000000 0.000000 -0.000000
vn -1.000000 0.000000 -0.000000
vn -1.000000 0.000000 -0.000000
vn 0.000000 0.000000 -1.000000
vn 0.000000 0.000000 -1.000000
vn 0.000000 0.000000 -1.000000
vn 0.000000 0.000000 -1.000000
vn 0.000000 0.000000 -1.000000
vn 0.000000 0.000000 -1.000000
vn 0.000000 0.000000 -1.000000
vn 0.000000 0.000000 -1.000000
vn 0.000000 0.000000 -1.000000
vn 0.000000 0.000000 -1.000000
vn 0.000000 0.000000 -1.000000
vn 0.000000 0.000000 -1.000000
vn 1.000000 0.000000 0.000000
vn 1.000000 0.000000 0.000000
vn 1.000000 0.000000 0.000000
vn 1.000000 0.000000 0.000000
vn 1.000000 0.000000 0.000000
vn 1.000000 0.000000 0.000000
vn -0.000000 0.000000 1.000000
vn -0.000000 0.000000 1.000000
vn -0.000000 0.000000 1.000000
vn -0.000000 0.000000 1.000000
vn -0.000000 0.000000 1.000000
vn -0.000000 0.000000 1.000000
vn -0.000000 0.000000 1.000000
vn -0.000000 0.000000 1.000000
vn -0.000000 0.000000 1.000000
vn -0.000000 0.000000 1.000000
vn -0.000000 0.000000 1.000000
vn -0.000000 0.000000 1.000000
vn 0.000000 -1.000000 0.000000
vn 0.000000 -1.000000 0.000000
vn 0.000000 -1.000000 0.000000
vn 0.000000 -1.000000 0.000000
vn 0.000000 -1.000000 0.000000
vn 0.000000 -1.000000 0.000000
vn 0.000000 -1.000000 0.000000
vn 0.000000 -1.000000 0.000000
vn 0.000000 -1.000000 0.000000
vn 0.000000 -1.000000 0.000000
vn 0.000000 -1.000000 0.000000
vn 0.000000 -1.000000 0.000000
vn -0.822440 0.568851 -0.000000
vn -0.822440 0.568851 -0.000000
vn -0.822440 0.568851 -0.000000
vn -0.822440 0.568851 -0.000000
vn -0.822440 0.568851 -0.000000
vn -0.822440 0.568851 -0.000000
vn 0.822440 0.568851 0.000000
vn 0.822440 0.568851 0.000000
vn 0.822440 0.568851 0.000000
vn 0.822440 0.568851 0.000000
vn 0.822440 0.568851 0.000000
vn 0.822440 0.568851 0.000000
vn -1.000000 0.000000 -0.000000
vn -1.000000 0.000000 -0.000000
vn -1.000000 0.000000 -0.000000
vn -1.000000 0.000000 -0.000000
vn -1.000000 0.000000 -0.000000
vn -1.000000 0.000000 -0.000000
vn 0.000000 0.000000 -1.000000
vn 0.000000 0.000000 -1.000000
vn 0.000000 0.000000 -1.000000
vn 0.000000 0.000000 -1.000000
vn 0.000000 0.000000 -1.000000
vn 0.000000 0.000000 -1.000000
vn 0.000000 0.000000 -1.000000
vn 0.000000 0.000000 -1.000000
vn 0.000000 0.000000 -1.000000
vn 0.000000 0.000000 -1.000000
vn 0.000000 0.000000 -1.000000
vn 0.000000 0.000000 -1.000000
vn 1.000000 0.000000 0.000000
vn 1.000000 0.000000 0.000000
vn 1.000000 0.000000 0.000000
vn 1.000000 0.000000 0.000000
vn 1.000000 0.000000 0.000000
vn 1.000000 0.000000 0.000000
vn -0.000000 0.000000 1.000000
vn -0.000000 0.000000 1.000000
vn -0.000000 0.000000 1.000000
vn -0.000000 0.000000 1.000000
vn -0.000000 0.000000 1.000000
vn -0.000000 0.000000 1.000000
vn -0.000000 0.000000 1.000000
vn -0.000000 0.000000 1.000000
vn -0.000000 0.000000 1.000000
vn -0.000000 0.000000 1.000000
vn -0.000000 0.000000 1.000000
vn -0.000000 0.000000 1.000000
vn 0.000000 -1.000000 0.000000
vn 0.000000 -1.000000 0.000000
vn 0.000000 -1.000000 0.000000
vn 0.000000 -1.000000 0.000000
vn 0.000000 -1.000000 0.000000
vn 0.000000 -1.000000 0.000000
vn 0.000000 -1.000000 0.000000
vn 0.000000 -1.000000 0.000000
vn 0.000000 -1.000000 0.000000
vn 0.000000 -1.000000 0.000000
vn 0.000000 -1.000000 0.000000
vn 0.000000 -1.000000 0.000000
vn -0.822440 0.568851 -0.000000
vn -0.822440 0.568851 -0.000000
vn -0.822440 0.568851 -0.000000
vn -0.822440 0.568851 -0.000000
vn -0.822440 0.568851 -0.000000
vn -0.822440 0.568851 -0.000000
vn 0.822440 0.568851 0.000000
vn 0.822440 0.568851 0.000000
vn 0.822440 0.568851 0.000000
vn 0.822440 0.568851 0.000000
vn 0.822440 0.568851 0.000000
vn 0.822440 0.568851 0.000000
vn -1.000000 0.000000 -0.000000
vn -1.000000 0.000000 -0.000000
vn -1.000000 0.000000 -0.000000
vn -1.000000 0.000000 -0.000000
vn -1.000000 0.000000 -0.000000
vn -1.000000 0.000000 -0.000000
vn 0.000000 0.000000 -1.000000
vn 0.000000 0.000000 -1.000000
vn 0.000000 0.000000 -1.000000
vn 0.000000 0.000000 -1.000000
vn 0.000000 0.000000 -1.000000
vn 0.000000 0.000000 -1.000000
vn 0.000000 0.000000 -1.000000
vn 0.000000 0.000000 -1.000000
vn 0.000000 0.000000 -1.000000
vn 0.000000 0.000000 -1.000000
vn 0.000000 0.000000 -1.000000
vn 0.000000 0.000000 -1.000000
vn 1.000000 0.000000 0.000000
vn 1.000000 0.000000 0.000000
vn 1.000000 0.000000 0.000000
vn 1.000000 0.000000 0.000000
vn 1.000000 0.000000 0.000000
vn 1.000000 0.000000 0.000000
vn -0.000000 0.000000 1.000000
vn -0.000000 0.000000 1.000000
vn -0.000000 0.000000 1.000000
vn -0.000000 0.000000 1.000000
vn -0.000000 0.000000 1.000000
vn -0.000000 0.000000 1.000000
vn -0.000000 0.000000 1.000000
vn -0.000000 0.000000 1.000000
vn -0.000000 0.000000 1.000000
vn -0.000000 0.000000 1.000000
vn -0.000000 0.000000 1.000000
vn -0.000000 0.000000 1.000000
vn 0.000000 -1.000000 0.000000
vn 0.000000 -1.000000 0.000000
vn 0.000000 -1.000000 0.000000
vn 0.000000 -1.000000 0.000000
vn 0.000000 -1.000000 0.000000
vn 0.000000 -1.000000 0.000000
vn 0.000000 -1.000000 0.000000
vn 0.000000 -1.000000 0.000000
vn 0.000000 -1.000000 0.000000
vn 0.000000 -1.000000 0.000000
vn 0.000000 -1.000000 0.000000
vn 0.000000 -1.000000 0.000000
vn -0.822440 0.568851 -0.000000
vn -0.822440 0.568851 -0.000000
vn -0.822440 0.568851 -0.000000
vn -0.822440 0.568851 -0.000000
vn -0.822440 0.568851 -0.000000
vn -0.822440 0.568851 -0.000000
vn 0.822440 0.568851 0.000000
vn 0.822440 0.568851 0.000000
vn 0.822440 0.568851 0.000000
vn 0.822440 0.568851 0.000000
vn 0.822440 0.568851 0.000000
vn 0.822440 0.568851 0.000000
vn -1.000000 0.000000 -0.000000
vn -1.000000 0.000000 -0.000000
vn -1.000000 0.000000 -0.000000
vn -1.000000 0.000000 -0.000000
vn -1.000000 0.000000 -0.000000
vn -1.000000 0.000000 -0.000000
vn 0.000000 0.000000 -1.000000
vn 0.000000 0.000000 -1.000000
vn 0.000000 0.000000 -1.000000
vn 0.000000 0.000000 -1.000000
vn 0.000000 0.000000 -1.000000
vn 0.000000 0.000000 -1.000000
vn 0.000000 0.000000 -1.000000
vn 0.000000 0.000000 -1.000000
vn 0.000000 0.000000 -1.000000
vn 0.000000 0.000000 -1.000000
vn 0.000000 0.000000 -1.000000
vn 0.000000 0.000000 -1.000000
vn 1.000000 0.000000 0.000000
vn 1.000000 0.000000 0.000000
vn 1.000000 0.000000 0.000000
vn 1.000000 0.000000 0.000000
vn 1.000000 0.000000 0.000000
vn 1.000000 0.000000 0.000000
vn -0.000000 0.000000 1.000000
vn -0.000000 0.000000 1.000000
vn -0.000000 0.000000 1.000000
vn -0.000000 0.000000 1.000000
vn -0.000000 0.000000 1.000000
vn -0.000000 0.000000 1.000000
vn -0.000000 0.000000 1.000000
vn -0.000000 0.000000 1.000000
vn -0.000000 0.000000 1.000000
vn -0.000000 0.000000 1.000000
vn -0.000000 0.000000 1.000000
vn -0.000000 0.000000 1.000000
vn 0.000000 -1.000000 0.000000
vn 0.000000 -1.000000 0.000000
vn 0.000000 -1.000000 0.000000
vn 0.000000 -1.000000 0.000000
vn 0.000000 -1.000000 0.000000
vn 0.000000 -1.000000 0.000000
vn 0.000000 -1.000000 0.000000
vn 0.000000 -1.000000 0.000000
vn 0.000000 -1.000000 0.000000
vn 0.000000 -1.000000 0.000000
vn 0.000000 -1.000000 0.000000
vn 0.000000 -1.000000 0.000000
vn -0.822440 0.568851 -0.000000
vn -0.822440 0.568851 -0.000000
vn -0.822440 0.568851 -0.000000
vn -0.822440 0.568851 -0.000000
vn -0.822440 0.568851 -0.000000
vn -0.822440 0.568851 -0.000000
vn 0.822440 0.568851 0.000000
vn 0.822440 0.568851 0.000000
vn 0.822440 0.568851 0.000000
vn 0.822440 0.568851 0.000000
vn 0.822440 0.568851 0.000000
vn 0.822440 0.568851 0.000000
vn -1.000000 0.000000 -0.000000
vn -1.000000 0.000000 -0.000000
vn -1.000000 0.000000 -0.000000
vn -1.000000 0.000000 -0.000000
vn -1.000000 0.000000 -0.000000
vn -1.000000 0.000000 -0.000000
vn 0.000000 0.000000 -1.000000
vn 0.000000 0.000000 -1.000000
vn 0.000000 0.000000 -1.000000
vn 0.000000 0.000000 -1.000000
vn 0.000000 0.000000 -1.000000
vn 0.000000 0.000000 -1.000000
vn 0.000000 0.000000 -1.000000
vn 0.000000 0.000000 -1.000000
vn 0.000000 0.000000 -1.000000
vn 0.000000 0.000000 -1.000000
vn 0.000000 0.000000 -1.000000
vn 0.000000 0.000000 -1.000000
vn 1.000000 0.000000 0.000000
vn 1.000000 0.000000 0.000000
vn 1.000000 0.000000 0.000000
vn 1.000000 0.000000 0.000000
vn 1.000000 0.000000 0.000000
vn 1.000000 0.000000 0.000000
vn -0.000000 0.000000 1.000000
vn -0.000000 0.000000 1.000000
vn -0.000000 0.000000 1.000000
vn -0.000000 0.000000 1.000000
vn -0.000000 0.000000 1.000000
vn -0.000000 0.000000 1.000000
vn -0.000000 0.000000 1.000000
vn -0.000000 0.000000 1.000000
vn -0.000000 0.000000 1.000000
vn -0.000000 0.000000 1.000000
vn -0.000000 0.000000 1.000000
vn -0.000000 0.000000 1.000000
vn 0.000000 -1.000000 0.000000
vn 0.000000 -1.000000 0.000000
vn 0.000000 -1.000000 0.000000
vn 0.000000 -1.000000 0.000000
vn 0.000000 -1.000000 0.000000
vn 0.000000 -1.000000 0.000000
vn 0.000000 -1.000000 0.000000
vn 0.000000 -1.000000 0.000000
vn 0.000000 -1.000000 0.000000
vn 0.000000 -1.000000 0.000000
vn 0.000000 -1.000000 0.000000
vn 0.000000 -1.000000 0.000000
vn -0.822440 0.568851 -0.000000
vn -0.822440 0.568851 -0.000000
vn -0.822440 0.568851 -0.000000
vn -0.822440 0.568851 -0.000000
vn -0.822440 0.568851 -0.000000
vn -0.822440 0.568851 -0.000000
vn 0.822440 0.568851 0.000000
vn 0.822440 0.568851 0.000000
vn 0.822440 0.568851 0.000000
vn 0.822440 0.568851 0.000000
vn 0.822440 0.568851 0.000000
vn 0.822440 0.568851 0.000000
vn -1.000000 0.000000 -0.000000
vn -1.000000 0.000000 -0.000000
vn -1.000000 0.000000 -0.000000
vn -1.000000 0.000000 -0.000000
vn -1.000000 0.000000 -0.000000
vn -1.000000 0.000000 -0.000000
vn 0.000000 0.000000 -1.000000
vn 0.000000 0.000000 -1.000000
vn 0.000000 0.000000 -1.000000
vn 0.000000 0.000000 -1.000000
vn 0.000000 0.000000 -1.000000
vn 0.000000 0.000000 -1.000000
vn 0.000000 0.000000 -1.000000
vn 0.000000 0.000000 -1.000000
vn 0.000000 0.000000 -1.000000
vn 0.000000 0.000000 -1.000000
vn 0.000000 0.000000 -1.000000
vn 0.000000 0.000000 -1.000000
vn 1.000000 0.000000 0.000000
vn 1.000000 0.000000 0.000000
vn 1.000000 0.000000 0.000000
vn 1.000000 0.000000 0.000000
vn 1.000000 0.000000 0.000000
vn 1.000000 0.000000 0.000000
vn -0.000000 0.000000 1.000000
vn -0.000000 0.000000 1.000000
vn -0.000000 0.000000 1.000000
vn -0.000000 0.000000 1.000000
vn -0.000000 0.000000 1.000000
vn -0.000000 0.000000 1.000000
vn -0.000000 0.000000 1.000000
vn -0.000000 0.000000 1.000000
vn -0.000000 0.000000 1.000000
vn -0.000000 0.000000 1.000000
vn -0.000000 0.000000 1.000000
vn -0.000000 0.000000 1.000000
vn 0.000000 -1.000000 0.000000
vn 0.000000 -1.000000 0.000000
vn 0.000000 -1.000000 0.000000
vn 0.000000 -1.000000 0.000000
vn 0.000000 -1.000000 0.000000
vn 0.000000 -1.000000 0.000000
vn 0.000000 -1.000000 0.000000
vn 0.000000 -1.000000 0.000000
vn 0.000000 -1.000000 0.000000
vn 0.000000 -1.000000 0.000000
vn 0.000000 -1.000000 0.000000
vn 0.000000 -1.000000 0.000000
vn -0.822440 0.568851 -0.000000
vn -0.822440 0.568851 -0.000000
vn -0.822440 0.568851 -0.000000
vn -0.822440 0.568851 -0.000000
vn -0.822440 0.568851 -0.000000
vn -0.822440 0.568851 -0.000000
vn 0.822440 0.568851 0.000000
vn 0.822440 0.568851 0.000000
vn 0.822440 0.568851 0.000000
vn 0.822440 0.568851 0.000000
vn 0.822440 0.568851 0.000000
vn 0.822440 0.568851 0.000000
vn -1.000000 0.000000 -0.000000
vn -1.000000 0.000000 -0.000000
vn -1.000000 0.000000 -0.000000
vn -1.000000 0.000000 -0.000000
vn -1.000000 0.000000 -0.000000
vn -1.000000 0.000000 -0.000000
vn 0.000000 0.000000 -1.000000
vn 0.000000 0.000000 -1.000000
vn 0.000000 0.000000 -1.000000
vn 0.000000 0.000000 -1.000000
vn 0.000000 0.000000 -1.000000
vn 0.000000 0.000000 -1.000000
vn 0.000000 0.000000 -1.000000
vn 0.000000 0.000000 -1.000000
vn 0.000000 0.000000 -1.000000
vn 0.000000 0.000000 -1.000000
vn 0.000000 0.000000 -1.000000
vn 0.000000 0.000000 -1.000000
vn 1.000000 0.000000 0.000000
vn 1.000000 0.000000 0.000000
vn 1.000000 0.000000 0.000000
vn 1.000000 0.000000 0.000000
vn 1.000000 0.000000 0.000000
vn 1.000000 0.000000 0.000000
vn -0.000000 0.000000 1.000000
vn -0.000000 0.000000 1.000000
vn -0.000000 0.000000 1.000000
vn -0.000000 0.000000 1.000000
vn -0.000000 0.000000 1.000000
vn -0.000000 0.000000 1.000000
vn -0.000000 0.000000 1.000000
vn -0.000000 0.000000 1.000000
vn -0.000000 0.000000 1.000000
vn -0.000000 0.000000 1.000000
vn -0.000000 0.000000 1.000000
vn -0.000000 0.000000 1.000000
vn 0.000000 -1.000000 0.000000
vn 0.000000 -1.000000 0.000000
vn 0.000000 -1.000000 0.000000
vn 0.000000 -1.000000 0.000000
vn 0.000000 -1.000000 0.000000
vn 0.000000 -1.000000 0.000000
vn 0.000000 -1.000000 0.000000
vn 0.000000 -1.000000 0.000000
vn 0.000000 -1.000000 0.000000
vn 0.000000 -1.000000 0.000000
vn 0.000000 -1.000000 0.000000
vn 0.000000 -1.000000 0.000000
vn -0.822440 0.568851 -0.000000
vn -0.822440 0.568851 -0.000000
vn -0.822440 0.568851 -0.000000
vn -0.822440 0.568851 -0.000000
vn -0.822440 0.568851 -0.000000
vn -0.822440 0.568851 -0.000000
vn 0.822440 0.568851 0.000000
vn 0.822440 0.568851 0.000000
vn 0.822440 0.568851 0.000000
vn 0.822440 0.568851 0.000000
vn 0.822440 0.568851 0.000000
vn 0.822440 0.568851 0.000000
vn -1.000000 0.000000 -0.000000
vn -1.000000 0.000000 -0.000000
vn -1.000000 0.000000 -0.000000
vn -1.000000 0.000000 -0.000000
vn -1.000000 0.000000 -0.000000
vn -1.000000 0.000000 -0.000000
vn 0.000000 0.000000 -1.000000
vn 0.000000 0.000000 -1.000000
vn 0.000000 0.000000 -1.000000
vn 0.000000 0.000000 -1.000000
vn 0.000000 0.000000 -1.000000
vn 0.000000 0.000000 -1.000000
vn 0.000000 0.000000 -1.000000
vn 0.000000 0.000000 -1.000000
vn 0.000000 0.000000 -1.000000
vn 0.000000 0.000000 -1.000000
vn 0.000000 0.000000 -1.000000
vn 0.000000 0.000000 -1.000000
vn 1.000000 0.000000 0.000000
vn 1.000000 0.000000 0.000000
vn 1.000000 0.000000 0.000000
vn 1.000000 0.000000 0.000000
vn 1.000000 0.000000 0.000000
vn 1.000000 0.000000 0.000000
vn -0.000000 0.000000 1.000000
vn -0.000000 0.000000 1.000000
vn -0.000000 0.000000 1.000000
vn -0.000000 0.000000 1.000000
vn -0.000000 0.000000 1.000000
vn -0.000000 0.000000 1.000000
vn -0.000000 0.000000 1.000000
vn -0.000000 0.000000 1.000000
vn -0.000000 0.000000 1.000000
vn -0.000000 0.000000 1.000000
vn -0.000000 0.000000 1.000000
vn -0.000000 0.000000 1.000000
vn 0.000000 -1.000000 0.000000
vn 0.000000 -1.000000 0.000000
vn 0.000000 -1.000000 0.000000
vn 0.000000 -1.000000 0.000000
vn 0.000000 -1.000000 0.000000
vn 0.000000 -1.000000 0.000000
vn 0.000000 -1.000000 0.000000
vn 0.000000 -1.000000 0.000000
vn 0.000000 -1.000000 0.000000
vn 0.000000 -1.000000 0.000000
vn 0.000000 -1.000000 0.000000
vn 0.000000 -1.000000 0.000000
vn -0.822440 0.568851 -0.000000
vn -0.822440 0.568851 -0.000000
vn -0.822440 0.568851 -0.000000
vn -0.822440 0.568851 -0.000000
vn -0.822440 0.568851 -0.000000
vn -0.822440 0.568851 -0.000000
vn 0.822440 0.568851 0.000000
vn 0.822440 0.568851 0.000000
vn 0.822440 0.568851 0.000000
vn 0.822440 0.568851 0.000000
vn 0.822440 0.568851 0.000000
vn 0.822440 0.568851 0.000000
s off
g Cube wood_fence_model group45
usemtl CubeSG
f 1/1/1 3/3/2 2/2/3
f 1/1/4 4/4/5 3/3/6
f 5/5/7 7/7/8 6/6/9
f 5/5/10 8/8/11 7/7/12
f 2/9/13 8/8/14 5/5/15
f 2/9/16 3/10/17 8/8/18
f 6/11/19 10/13/20 9/12/21
f 6/11/22 7/14/23 10/13/24
f 11/15/25 4/17/26 1/16/27
f 11/15/28 12/18/29 4/17/30
f 9/19/31 12/18/32 11/15/33
f 9/19/34 10/20/35 12/18/36
f 5/21/37 6/23/38 9/22/39
f 5/21/40 9/22/41 11/24/42
f 2/25/43 5/21/44 11/24/45
f 2/25/46 11/24/47 1/26/48
f 8/27/49 4/29/50 12/28/51
f 8/27/52 3/30/53 4/29/54
f 7/31/55 12/33/56 10/32/57
f 7/31/58 8/34/59 12/33/60
f 13/35/61 15/37/62 14/36/63
f 13/35/64 16/38/65 15/37/66
f 17/39/67 19/41/68 18/40/69
f 17/39/70 20/42/71 19/41/72
f 14/43/73 20/42/74 17/39/75
f 14/43/76 15/44/77 20/42/78
f 18/45/79 22/47/80 21/46/81
f 18/45/82 19/48/83 22/47/84
f 23/49/85 16/51/86 13/50/87
f 23/49/88 24/52/89 16/51/90
f 21/53/91 24/52/92 23/49/93
f 21/53/94 22/54/95 24/52/96
f 17/55/97 18/57/98 21/56/99
f 17/55/100 21/56/101 23/58/102
f 14/59/103 17/55/104 23/58/105
f 14/59/106 23/58/107 13/60/108
f 20/61/109 16/63/110 24/62/111
f 20/61/112 15/64/113 16/63/114
f 19/65/115 24/67/116 22/66/117
f 19/65/118 20/68/119 24/67/120
f 25/69/121 27/71/122 26/70/123
f 25/69/124 28/72/125 27/71/126
f 29/73/127 31/75/128 30/74/129
f 29/73/130 32/76/131 31/75/132
f 26/77/133 32/76/134 29/73/135
f 26/77/136 27/78/137 32/76/138
f 30/79/139 34/81/140 33/80/141
f 30/79/142 31/82/143 34/81/144
f 35/83/145 28/85/146 25/84/147
f 35/83/148 36/86/149 28/85/150
f 33/87/151 36/86/152 35/83/153
f 33/87/154 34/88/155 36/86/156
f 29/89/157 30/91/158 33/90/159
f 29/89/160 33/90/161 35/92/162
f 26/93/163 29/89/164 35/92/165
f 26/93/166 35/92/167 25/94/168
f 32/95/169 28/97/170 36/96/171
f 32/95/172 27/98/173 28/97/174
f 31/99/175 36/101/176 34/100/177
f 31/99/178 32/102/179 36/101/180
f 37/103/181 39/105/182 38/104/183
f 37/103/184 40/106/185 39/105/186
f 41/107/187 43/109/188 42/108/189
f 41/107/190 44/110/191 43/109/192
f 38/111/193 44/110/194 41/107/195
f 38/111/196 39/112/197 44/110/198
f 42/113/199 46/115/200 45/114/201
f 42/113/202 43/116/203 46/115/204
f 47/117/205 40/119/206 37/118/207
f 47/117/208 48/120/209 40/119/210
f 45/121/211 48/120/212 47/117/213
f 45/121/214 46/122/215 48/120/216
f 41/123/217 42/125/218 45/124/219
f 41/123/220 45/124/221 47/126/222
f 38/127/223 41/123/224 47/126/225
f 38/127/226 47/126/227 37/128/228
f 44/129/229 40/131/230 48/130/231
f 44/129/232 39/132/233 40/131/234
f 43/133/235 48/135/236 46/134/237
f 43/133/238 44/136/239 48/135/240
f 49/137/241 51/139/242 50/138/243
f 49/137/244 52/140/245 51/139/246
f 53/141/247 55/143/248 54/142/249
f 53/141/250 56/144/251 55/143/252
f 50/145/253 56/144/254 53/141/255
f 50/145/256 51/146/257 56/144/258
f 54/147/259 58/149/260 57/148/261
f 54/147/262 55/150/263 58/149/264
f 59/151/265 52/153/266 49/152/267
f 59/151/268 60/154/269 52/153/270
f 57/155/271 60/154/272 59/151/273
f 57/155/274 58/156/275 60/154/276
f 53/157/277 54/159/278 57/158/279
f 53/157/280 57/158/281 59/160/282
f 50/161/283 53/157/284 59/160/285
f 50/161/286 59/160/287 49/162/288
f 56/163/289 52/165/290 60/164/291
f 56/163/292 51/166/293 52/165/294
f 55/167/295 60/169/296 58/168/297
f 55/167/298 56/170/299 60/169/300
f 61/171/301 63/173/302 62/172/303
f 61/171/304 64/174/305 63/173/306
f 65/175/307 67/177/308 66/176/309
f 65/175/310 68/178/311 67/177/312
f 62/179/313 68/178/314 65/175/315
f 62/179/316 63/180/317 68/178/318
f 66/181/319 70/183/320 69/182/321
f 66/181/322 67/184/323 70/183/324
f 71/185/325 64/187/326 61/186/327
f 71/185/328 72/188/329 64/187/330
f 69/189/331 72/188/332 71/185/333
f 69/189/334 70/190/335 72/188/336
f 65/191/337 66/193/338 69/192/339
f 65/191/340 69/192/341 71/194/342
f 62/195/343 65/191/344 71/194/345
f 62/195/346 71/194/347 61/196/348
f 68/197/349 64/199/350 72/198/351
f 68/197/352 63/200/353 64/199/354
f 67/201/355 72/203/356 70/202/357
f 67/201/358 68/204/359 72/203/360
f 73/205/361 75/207/362 74/206/363
f 73/205/364 76/208/365 75/207/366
f 77/209/367 79/211/368 78/210/369
f 77/209/370 80/212/371 79/211/372
f 74/213/373 80/212/374 77/209/375
f 74/213/376 75/214/377 80/212/378
f 78/215/379 82/217/380 81/216/381
f 78/215/382 79/218/383 82/217/384
f 83/219/385 76/221/386 73/220/387
f 83/219/388 84/222/389 76/221/390
f 81/223/391 84/222/392 83/219/393
f 81/223/394 82/224/395 84/222/396
f 77/225/397 78/227/398 81/226/399
f 77/225/400 81/226/401 83/228/402
f 74/229/403 77/225/404 83/228/405
f 74/229/406 83/228/407 73/230/408
f 80/231/409 76/233/410 84/232/411
f 80/231/412 75/234/413 76/233/414
f 79/235/415 84/237/416 82/236/417
f 79/235/418 80/238/419 84/237/420
f 85/239/421 87/241/422 86/240/423
f 85/239/424 88/242/425 87/241/426
f 89/243/427 91/245/428 90/244/429
f 89/243/430 92/246/431 91/245/432
f 86/247/433 92/246/434 89/243/435
f 86/247/436 87/248/437 92/246/438
f 90/249/439 94/251/440 93/250/441
f 90/249/442 91/252/443 94/251/444
f 95/253/445 88/255/446 85/254/447
f 95/253/448 96/256/449 88/255/450
f 93/257/451 96/256/452 95/253/453
f 93/257/454 94/258/455 96/256/456
f 89/259/457 90/261/458 93/260/459
f 89/259/460 93/260/461 95/262/462
f 86/263/463 89/259/464 95/262/465
f 86/263/466 95/262/467 85/264/468
f 92/265/469 88/267/470 96/266/471
f 92/265/472 87/268/473 88/267/474
f 91/269/475 96/271/476 94/270/477
f 91/269/478 92/272/479 96/271/480
f 97/273/481 99/275/482 98/274/483
f 97/273/484 100/276/485 99/275/486
f 101/277/487 103/279/488 102/278/489
f 101/277/490 104/280/491 103/279/492
f 98/281/493 104/280/494 101/277/495
f 98/281/496 99/282/497 104/280/498
f 102/283/499 106/285/500 105/284/501
f 102/283/502 103/286/503 106/285/504
f 107/287/505 100/289/506 97/288/507
f 107/287/508 108/290/509 100/289/510
f 105/291/511 108/290/512 107/287/513
f 105/291/514 106/292/515 108/290/516
f 101/293/517 102/295/518 105/294/519
f 101/293/520 105/294/521 107/296/522
f 98/297/523 101/293/524 107/296/525
f 98/297/526 107/296/527 97/298/528
f 104/299/529 100/301/530 108/300/531
f 104/299/532 99/302/533 100/301/534
f 103/303/535 108/305/536 106/304/537
f 103/303/538 104/306/539 108/305/540
f 109/307/541 111/309/542 110/308/543
f 109/307/544 112/310/545 111/309/546
f 113/311/547 115/313/548 114/312/549
f 113/311/550 116/314/551 115/313/552
f 110/315/553 116/314/554 113/311/555
f 110/315/556 111/316/557 116/314/558
f 114/317/559 118/319/560 117/318/561
f 114/317/562 115/320/563 118/319/564
f 119/321/565 112/323/566 109/322/567
f 119/321/568 120/324/569 112/323/570
f 117/325/571 120/324/572 119/321/573
f 117/325/574 118/326/575 120/324/576
f 113/327/577 114/329/578 117/328/579
f 113/327/580 117/328/581 119/330/582
f 110/331/583 113/327/584 119/330/585
f 110/331/586 119/330/587 109/332/588
f 116/333/589 112/335/590 120/334/591
f 116/333/592 111/336/593 112/335/594
f 115/337/595 120/339/596 118/338/597
f 115/337/598 116/340/599 120/339/600
g default
v -19.760035 31.560391 993.585634
v -19.760036 31.560391 983.684347
v -19.760036 73.881885 983.684347
v -19.760035 73.881885 993.585634
v 538.270109 31.569914 983.684305
v 538.270109 73.891408 983.684305
v 538.270110 31.569914 993.585592
v 538.270110 73.891408 993.585592
vt 0.375000 0.000000
vt 0.375000 0.250000
vt 0.625000 0.250000
vt 0.625000 0.000000
vt 0.375000 0.250000
vt 0.375000 0.500000
vt 0.625000 0.500000
vt 0.625000 0.250000
vt 0.375000 0.500000
vt 0.375000 0.750000
vt 0.625000 0.750000
vt 0.625000 0.500000
vt 0.375000 0.750000
vt 0.375000 1.000000
vt 0.625000 1.000000
vt 0.625000 0.750000
vt 0.125000 0.500000
vt 0.125000 0.750000
vt 0.375000 0.750000
vt 0.375000 0.500000
vt 0.625000 0.500000
vt 0.625000 0.750000
vt 0.875000 0.750000
vt 0.875000 0.500000
vn -1.000000 0.000000 0.000000
vn -1.000000 0.000000 0.000000
vn -1.000000 0.000000 0.000000
vn -1.000000 0.000000 0.000000
vn -1.000000 0.000000 0.000000
vn -1.000000 0.000000 0.000000
vn -0.000000 0.000000 -1.000000
vn -0.000000 0.000000 -1.000000
vn -0.000000 0.000000 -1.000000
vn -0.000000 0.000000 -1.000000
vn -0.000000 0.000000 -1.000000
vn -0.000000 0.000000 -1.000000
vn 1.000000 0.000000 -0.000000
vn 1.000000 0.000000 -0.000000
vn 1.000000 0.000000 -0.000000
vn 1.000000 0.000000 -0.000000
vn 1.000000 0.000000 -0.000000
vn 1.000000 0.000000 -0.000000
vn 0.000000 0.000000 1.000000
vn 0.000000 0.000000 1.000000
vn 0.000000 0.000000 1.000000
vn 0.000000 0.000000 1.000000
vn 0.000000 0.000000 1.000000
vn 0.000000 0.000000 1.000000
vn 0.000017 -1.000000 -0.000000
vn 0.000017 -1.000000 -0.000000
vn 0.000017 -1.000000 -0.000000
vn 0.000017 -1.000000 -0.000000
vn 0.000017 -1.000000 -0.000000
vn 0.000017 -1.000000 -0.000000
vn -0.000017 1.000000 0.000000
vn -0.000017 1.000000 0.000000
vn -0.000017 1.000000 0.000000
vn -0.000017 1.000000 0.000000
vn -0.000017 1.000000 0.000000
vn -0.000017 1.000000 0.000000
s off
g wood_fence_model group45 Cube_001 Cube_001__1_
usemtl Cube_001SG
f 121/341/601 123/343/602 122/342/603
f 121/341/604 124/344/605 123/343/606
f 122/345/607 126/347/608 125/346/609
f 122/345/610 123/348/611 126/347/612
f 125/349/613 128/351/614 127/350/615
f 125/349/616 126/352/617 128/351/618
f 127/353/619 124/355/620 121/354/621
f 127/353/622 128/356/623 124/355/624
f 122/357/625 127/359/626 121/358/627
f 122/357/628 125/360/629 127/359/630
f 126/361/631 124/363/632 128/362/633
f 126/361/634 123/364/635 124/363/636
g default
v -19.760035 -76.584775 993.585634
v -19.760036 -76.584775 983.684347
v -19.760036 -34.263281 983.684347
v -19.760035 -34.263281 993.585634
v 538.270109 -76.575252 983.684305
v 538.270109 -34.253758 983.684305
v 538.270110 -76.575252 993.585592
v 538.270110 -34.253758 993.585592
vt 0.375000 0.000000
vt 0.375000 0.250000
vt 0.625000 0.250000
vt 0.625000 0.000000
vt 0.375000 0.250000
vt 0.375000 0.500000
vt 0.625000 0.500000
vt 0.625000 0.250000
vt 0.375000 0.500000
vt 0.375000 0.750000
vt 0.625000 0.750000
vt 0.625000 0.500000
vt 0.375000 0.750000
vt 0.375000 1.000000
vt 0.625000 1.000000
vt 0.625000 0.750000
vt 0.125000 0.500000
vt 0.125000 0.750000
vt 0.375000 0.750000
vt 0.375000 0.500000
vt 0.625000 0.500000
vt 0.625000 0.750000
vt 0.875000 0.750000
vt 0.875000 0.500000
vn -1.000000 0.000000 0.000000
vn -1.000000 0.000000 0.000000
vn -1.000000 0.000000 0.000000
vn -1.000000 0.000000 0.000000
vn -1.000000 0.000000 0.000000
vn -1.000000 0.000000 0.000000
vn -0.000000 0.000000 -1.000000
vn -0.000000 0.000000 -1.000000
vn -0.000000 0.000000 -1.000000
vn -0.000000 0.000000 -1.000000
vn -0.000000 0.000000 -1.000000
vn -0.000000 0.000000 -1.000000
vn 1.000000 0.000000 -0.000000
vn 1.000000 0.000000 -0.000000
vn 1.000000 0.000000 -0.000000
vn 1.000000 0.000000 -0.000000
vn 1.000000 0.000000 -0.000000
vn 1.000000 0.000000 -0.000000
vn 0.000000 0.000000 1.000000
vn 0.000000 0.000000 1.000000
vn 0.000000 0.000000 1.000000
vn 0.000000 0.000000 1.000000
vn 0.000000 0.000000 1.000000
vn 0.000000 0.000000 1.000000
vn 0.000017 -1.000000 -0.000000
vn 0.000017 -1.000000 -0.000000
vn 0.000017 -1.000000 -0.000000
vn 0.000017 -1.000000 -0.000000
vn 0.000017 -1.000000 -0.000000
vn 0.000017 -1.000000 -0.000000
vn -0.000017 1.000000 0.000000
vn -0.000017 1.000000 0.000000
vn -0.000017 1.000000 0.000000
vn -0.000017 1.000000 0.000000
vn -0.000017 1.000000 0.000000
vn -0.000017 1.000000 0.000000
s off
g wood_fence_model group45 Cube_001 Cube_001__1_
usemtl Cube_001SG
f 129/365/637 131/367/638 130/366/639
f 129/365/640 132/368/641 131/367/642
f 130/369/643 134/371/644 133/370/645
f 130/369/646 131/372/647 134/371/648
f 133/373/649 136/375/650 135/374/651
f 133/373/652 134/376/653 136/375/654
f 135/377/655 132/379/656 129/378/657
f 135/377/658 136/380/659 132/379/660
f 130/381/661 135/383/662 129/382/663
f 130/381/664 133/384/665 135/383/666
f 134/385/667 132/387/668 136/386/669
f 134/385/670 131/388/671 132/387/672
